<?xml version="1.0" encoding="utf-8"?>
<svg xmlns="http://www.w3.org/2000/svg" style="margin: auto; background: none; display: block; shape-rendering: auto; animation-play-state: running; animation-delay: 0s;" width="271" height="168" preserveAspectRatio="xMidYMid">
<style type="text/css" style="animation-play-state: running; animation-delay: 0s;">
  text {
    text-anchor: middle; font-size: 51px; opacity: 0;
  }
</style>
<g style="transform-origin: 135.5px 84px; transform: scale(1); animation-play-state: running; animation-delay: 0s;">
<g transform="translate(135.5,84)" style="animation-play-state: running; animation-delay: 0s;">
  <g transform="translate(0,0)" style="animation-play-state: running; animation-delay: 0s;"><g class="path" style="transform: matrix(1, 0, 0, 1, 0, 0); transform-origin: -104.53px -4.33389px; animation: 50s linear -30s infinite normal forwards running tremble-7e807d5f-0ac5-4f12-9671-04da5c61f94e;"><path d="M11.73 0L11.73-12.65L0.61-34.78L5.36-34.78L13.87-17.90L22.44-34.78L27.18-34.78L16.07-12.65L16.07 0L11.73 0" fill="#8cd0e5" stroke="none" stroke-width="none" transform="translate(-118.42500877380371,13.056109636480162)" style="fill: rgb(140, 208, 229); animation-play-state: running; animation-delay: 0s;"></path></g><g class="path" style="transform: matrix(1, 0, 0, 1, 0, 0); transform-origin: -78.695px 0.306109px; animation: 50s linear -27s infinite normal forwards running tremble-7e807d5f-0ac5-4f12-9671-04da5c61f94e;"><path d="M31.67-12.70L31.67-12.70L31.67-12.70Q31.67-7.75 33.89-5.33L33.89-5.33L33.89-5.33Q36.11-2.91 39.88-2.91L39.88-2.91L39.88-2.91Q43.61-2.91 45.70-5.30L45.70-5.30L45.70-5.30Q47.79-7.70 47.79-12.50L47.79-12.50L47.79-12.50Q47.79-17.60 45.57-20.09L45.57-20.09L45.57-20.09Q43.35-22.59 39.53-22.59L39.53-22.59L39.53-22.59Q35.70-22.59 33.69-20.12L33.69-20.12L33.69-20.12Q31.67-17.65 31.67-12.70zM27.34-12.75L27.34-12.75L27.34-12.75Q27.34-16.63 28.56-19.20L28.56-19.20L28.56-19.20Q29.78-21.78 31.67-23.33L31.67-23.33L31.67-23.33Q33.56-24.89 35.73-25.53L35.73-25.53L35.73-25.53Q37.89-26.16 39.83-26.16L39.83-26.16L39.83-26.16Q41.67-26.16 43.83-25.58L43.83-25.58L43.83-25.58Q46.00-24.99 47.84-23.49L47.84-23.49L47.84-23.49Q49.67-21.98 50.90-19.46L50.90-19.46L50.90-19.46Q52.12-16.93 52.12-13.06L52.12-13.06L52.12-13.06Q52.12-9.03 50.87-6.38L50.87-6.38L50.87-6.38Q49.62-3.72 47.74-2.17L47.74-2.17L47.74-2.17Q45.85-0.61 43.66 0.03L43.66 0.03L43.66 0.03Q41.46 0.66 39.58 0.66L39.58 0.66L39.58 0.66Q37.64 0.66 35.50 0.05L35.50 0.05L35.50 0.05Q33.35-0.56 31.54-2.07L31.54-2.07L31.54-2.07Q29.73-3.57 28.53-6.17L28.53-6.17L28.53-6.17Q27.34-8.77 27.34-12.75" fill="#8cd0e5" stroke="none" stroke-width="none" transform="translate(-118.42500877380371,13.056109636480162)" style="fill: rgb(55, 104, 136); animation-play-state: running; animation-delay: 0s;"></path></g><g class="path" style="transform: matrix(1, 0, 0, 1, 0, 0); transform-origin: -50.625px 0.56111px; animation: 50s linear -24s infinite normal forwards running tremble-7e807d5f-0ac5-4f12-9671-04da5c61f94e;"><path d="M73.69 0.41L73.39-2.81L73.29-2.81L73.29-2.81Q72.83-2.45 71.96-1.86L71.96-1.86L71.96-1.86Q71.09-1.28 69.97-0.71L69.97-0.71L69.97-0.71Q68.85-0.15 67.50 0.26L67.50 0.26L67.50 0.26Q66.15 0.66 64.77 0.66L64.77 0.66L64.77 0.66Q62.88 0.66 61.56 0.18L61.56 0.18L61.56 0.18Q60.23-0.31 59.41-1.43L59.41-1.43L59.41-1.43Q58.60-2.55 58.24-4.39L58.24-4.39L58.24-4.39Q57.88-6.22 57.88-8.98L57.88-8.98L57.88-25.65L61.97-25.65L61.97-9.59L61.97-9.59Q61.97-8.06 62.02-6.83L62.02-6.83L62.02-6.83Q62.07-5.61 62.37-4.74L62.37-4.74L62.37-4.74Q62.68-3.88 63.37-3.39L63.37-3.39L63.37-3.39Q64.06-2.91 65.33-2.91L65.33-2.91L65.33-2.91Q66.66-2.91 68.09-3.47L68.09-3.47L68.09-3.47Q69.51-4.03 70.69-4.74L70.69-4.74L70.69-4.74Q72.06-5.56 73.39-6.58L73.39-6.58L73.39-25.65L77.47-25.65L77.47-3.32L77.47-3.32Q77.52-1.48 77.72 0L77.72 0L73.69 0.41" fill="#8cd0e5" stroke="none" stroke-width="none" transform="translate(-118.42500877380371,13.056109636480162)" style="fill: rgb(130, 107, 136); animation-play-state: running; animation-delay: 0s;"></path></g><g class="path" style="transform: matrix(1, 0, 0, 1, 0, 0); transform-origin: -27.315px -0.027462px; animation: 50s linear -21s infinite normal forwards running tremble-7e807d5f-0ac5-4f12-9671-04da5c61f94e;"><path d="M84.92 0L84.92-21.52L84.92-21.52Q84.92-22.70 84.66-25.19L84.66-25.19L88.43-25.70L88.84-21.98L88.89-21.98L88.89-21.98Q89.81-23.15 90.68-24.02L90.68-24.02L90.68-24.02Q91.55-24.89 92.49-25.53L92.49-25.53L92.49-25.53Q93.43-26.16 94.30-26.16L94.30-26.16L94.30-26.16Q95.47-26.21 97.56-25.91L97.56-25.91L96.65-21.98L96.65-21.98Q94.96-22.29 94.30-22.24L94.30-22.24L94.30-22.24Q93.43-22.24 92.46-21.42L92.46-21.42L92.46-21.42Q91.49-20.60 90.78-19.69L90.78-19.69L90.78-19.69Q89.86-18.56 89.00-17.14L89.00-17.14L89.00 0L84.92 0" fill="#8cd0e5" stroke="none" stroke-width="none" transform="translate(-118.42500877380371,13.056109636480162)" style="fill: rgb(222, 120, 106); animation-play-state: running; animation-delay: 0s;"></path></g><g class="path" style="transform: matrix(1, 0, 0, 1, 0, 0); transform-origin: 1.55499px -0.027462px; animation: 50s linear -18s infinite normal forwards running tremble-7e807d5f-0ac5-4f12-9671-04da5c61f94e;"><path d="M113.78 0L113.78-21.52L113.78-21.52Q113.78-22.70 113.53-25.19L113.53-25.19L117.30-25.70L117.71-21.98L117.76-21.98L117.76-21.98Q118.68-23.15 119.54-24.02L119.54-24.02L119.54-24.02Q120.41-24.89 121.35-25.53L121.35-25.53L121.35-25.53Q122.30-26.16 123.17-26.16L123.17-26.16L123.17-26.16Q124.34-26.21 126.43-25.91L126.43-25.91L125.51-21.98L125.51-21.98Q123.83-22.29 123.17-22.24L123.17-22.24L123.17-22.24Q122.30-22.24 121.33-21.42L121.33-21.42L121.33-21.42Q120.36-20.60 119.65-19.69L119.65-19.69L119.65-19.69Q118.73-18.56 117.86-17.14L117.86-17.14L117.86 0L113.78 0" fill="#8cd0e5" stroke="none" stroke-width="none" transform="translate(-118.42500877380371,13.056109636480162)" style="fill: rgb(248, 185, 118); animation-play-state: running; animation-delay: 0s;"></path></g><g class="path" style="transform: matrix(1, 0, 0, 1, 0, 0); transform-origin: 21.135px 0.306109px; animation: 50s linear -15s infinite normal forwards running tremble-7e807d5f-0ac5-4f12-9671-04da5c61f94e;"><path d="M148.36-4.03L149.12-0.61L149.12-0.61Q147.95-0.26 146.70 0L146.70 0L146.70 0Q145.45 0.26 143.95 0.46L143.95 0.46L143.95 0.46Q142.44 0.66 140.81 0.66L140.81 0.66L140.81 0.66Q138.26 0.66 136.07-0.05L136.07-0.05L136.07-0.05Q133.88-0.77 132.24-2.35L132.24-2.35L132.24-2.35Q130.61-3.93 129.67-6.45L129.67-6.45L129.67-6.45Q128.72-8.98 128.72-12.65L128.72-12.65L128.72-12.65Q128.72-15.96 129.64-18.49L129.64-18.49L129.64-18.49Q130.56-21.01 132.17-22.72L132.17-22.72L132.17-22.72Q133.77-24.43 135.94-25.30L135.94-25.30L135.94-25.30Q138.11-26.16 140.66-26.16L140.66-26.16L140.66-26.16Q143.16-26.16 144.99-25.19L144.99-25.19L144.99-25.19Q146.83-24.23 148.03-22.57L148.03-22.57L148.03-22.57Q149.23-20.91 149.81-18.69L149.81-18.69L149.81-18.69Q150.40-16.47 150.40-14.03L150.40-14.03L149.63-11.78L133.16-11.78L133.16-11.78Q133.16-10.20 133.57-8.62L133.57-8.62L133.57-8.62Q133.98-7.04 134.97-5.76L134.97-5.76L134.97-5.76Q135.97-4.49 137.57-3.70L137.57-3.70L137.57-3.70Q139.18-2.91 141.58-2.91L141.58-2.91L141.58-2.91Q143.11-2.91 144.38-3.09L144.38-3.09L144.38-3.09Q145.66-3.26 146.60-3.49L146.60-3.49L146.60-3.49Q147.54-3.72 148.36-4.03L148.36-4.03zM133.31-15.05L146.17-15.05L146.17-15.05Q146.17-15.40 146.01-16.63L146.01-16.63L146.01-16.63Q145.86-17.85 145.30-19.18L145.30-19.18L145.30-19.18Q144.74-20.50 143.56-21.55L143.56-21.55L143.56-21.55Q142.39-22.59 140.45-22.59L140.45-22.59L140.45-22.59Q138.31-22.59 136.94-21.70L136.94-21.70L136.94-21.70Q135.56-20.81 134.74-19.58L134.74-19.58L134.74-19.58Q133.93-18.36 133.62-17.09L133.62-17.09L133.62-17.09Q133.31-15.81 133.31-15.05L133.31-15.05" fill="#8cd0e5" stroke="none" stroke-width="none" transform="translate(-118.42500877380371,13.056109636480162)" style="fill: rgb(252, 221, 201); animation-play-state: running; animation-delay: 0s;"></path></g><g class="path" style="transform: matrix(1, 0, 0, 1, 0, 0); transform-origin: 45.465px 0.306109px; animation: 50s linear -12s infinite normal forwards running tremble-7e807d5f-0ac5-4f12-9671-04da5c61f94e;"><path d="M172.69-25.35L171.87-21.93L171.87-21.93Q171.00-22.13 169.47-22.36L169.47-22.36L169.47-22.36Q167.94-22.59 166.36-22.59L166.36-22.59L166.36-22.59Q164.07-22.59 162.61-21.68L162.61-21.68L162.61-21.68Q161.16-20.76 160.34-19.30L160.34-19.30L160.34-19.30Q159.53-17.85 159.22-16.09L159.22-16.09L159.22-16.09Q158.92-14.33 158.92-12.65L158.92-12.65L158.92-12.65Q158.92-10.05 159.58-8.19L159.58-8.19L159.58-8.19Q160.24-6.32 161.34-5.15L161.34-5.15L161.34-5.15Q162.44-3.98 163.86-3.44L163.86-3.44L163.86-3.44Q165.29-2.91 166.87-2.91L166.87-2.91L166.87-2.91Q167.94-2.91 168.94-3.03L168.94-3.03L168.94-3.03Q169.93-3.16 170.77-3.34L170.77-3.34L170.77-3.34Q171.62-3.52 172.38-3.77L172.38-3.77L173.20-0.36L173.20-0.36Q172.13-0.05 171.21 0.15L171.21 0.15L171.21 0.15Q170.29 0.36 169.04 0.51L169.04 0.51L169.04 0.51Q167.79 0.66 166.36 0.66L166.36 0.66L166.36 0.66Q163.56 0.66 161.36-0.05L161.36-0.05L161.36-0.05Q159.17-0.77 157.67-2.35L157.67-2.35L157.67-2.35Q156.16-3.93 155.37-6.48L155.37-6.48L155.37-6.48Q154.58-9.03 154.58-12.70L154.58-12.70L154.58-12.70Q154.58-16.27 155.58-18.84L155.58-18.84L155.58-18.84Q156.57-21.42 158.20-23.03L158.20-23.03L158.20-23.03Q159.83-24.63 161.95-25.40L161.95-25.40L161.95-25.40Q164.07-26.16 166.36-26.16L166.36-26.16L166.36-26.16Q167.59-26.16 168.73-26.04L168.73-26.04L168.73-26.04Q169.88-25.91 170.75-25.76L170.75-25.76L170.75-25.76Q171.77-25.55 172.69-25.35L172.69-25.35" fill="#8cd0e5" stroke="none" stroke-width="none" transform="translate(-118.42500877380371,13.056109636480162)" style="fill: rgb(140, 208, 229); animation-play-state: running; animation-delay: 0s;"></path></g><g class="path" style="transform: matrix(1, 0, 0, 1, 0, 0); transform-origin: 61.865px -0.0238905px; animation: 50s linear -9s infinite normal forwards running tremble-7e807d5f-0ac5-4f12-9671-04da5c61f94e;"><path d="M178.25 0L178.25-25.70L182.33-26.16L182.33 0L178.25 0" fill="#8cd0e5" stroke="none" stroke-width="none" transform="translate(-118.42500877380371,13.056109636480162)" style="fill: rgb(55, 104, 136); animation-play-state: running; animation-delay: 0s;"></path></g><g class="path" style="transform: matrix(1, 0, 0, 1, 0, 0); transform-origin: 61.985px -19.9389px; animation: 50s linear -6s infinite normal forwards running tremble-7e807d5f-0ac5-4f12-9671-04da5c61f94e;"><path d="M177.58-33.00L177.58-33.00L177.58-33.00Q177.58-34.17 178.37-34.96L178.37-34.96L178.37-34.96Q179.16-35.75 180.34-35.75L180.34-35.75L180.34-35.75Q181.56-35.75 182.40-34.96L182.40-34.96L182.40-34.96Q183.24-34.17 183.24-33.00L183.24-33.00L183.24-33.00Q183.24-31.82 182.40-31.03L182.40-31.03L182.40-31.03Q181.56-30.24 180.34-30.24L180.34-30.24L180.34-30.24Q179.16-30.24 178.37-31.03L178.37-31.03L178.37-31.03Q177.58-31.82 177.58-33.00" fill="#8cd0e5" stroke="none" stroke-width="none" transform="translate(-118.42500877380371,13.056109636480162)" style="fill: rgb(130, 107, 136); animation-play-state: running; animation-delay: 0s;"></path></g><g class="path" style="transform: matrix(1, 0, 0, 1, 0, 0); transform-origin: 81.93px 5.79111px; animation: 50s linear -3s infinite normal forwards running tremble-7e807d5f-0ac5-4f12-9671-04da5c61f94e;"><path d="M189.72 11.63L189.72-19.74L189.72-19.74Q189.72-21.57 189.47-25.19L189.47-25.19L193.24-25.70L193.70-22.95L193.70-22.95Q194.72-23.82 195.81-24.51L195.81-24.51L195.81-24.51Q196.91-25.19 198.21-25.68L198.21-25.68L198.21-25.68Q199.51-26.16 200.99-26.16L200.99-26.16L200.99-26.16Q203.08-26.16 204.94-25.45L204.94-25.45L204.94-25.45Q206.81-24.74 208.21-23.15L208.21-23.15L208.21-23.15Q209.61-21.57 210.43-19.05L210.43-19.05L210.43-19.05Q211.24-16.52 211.24-12.85L211.24-12.85L211.24-12.85Q211.24-9.13 210.15-6.55L210.15-6.55L210.15-6.55Q209.05-3.98 207.29-2.37L207.29-2.37L207.29-2.37Q205.53-0.77 203.31-0.05L203.31-0.05L203.31-0.05Q201.09 0.66 198.80 0.66L198.80 0.66L198.80 0.66Q196.35 0.61 193.80 0.05L193.80 0.05L193.80 11.12L189.72 11.63zM198.80-2.91L198.80-2.91L198.80-2.91Q200.94-2.91 202.47-3.67L202.47-3.67L202.47-3.67Q204-4.44 204.99-5.79L204.99-5.79L204.99-5.79Q205.99-7.14 206.45-8.90L206.45-8.90L206.45-8.90Q206.91-10.66 206.91-12.65L206.91-12.65L206.91-12.65Q206.91-14.43 206.58-16.22L206.58-16.22L206.58-16.22Q206.24-18.00 205.50-19.41L205.50-19.41L205.50-19.41Q204.77-20.81 203.54-21.70L203.54-21.70L203.54-21.70Q202.32-22.59 200.53-22.59L200.53-22.59L200.53-22.59Q199.21-22.59 198.03-22.11L198.03-22.11L198.03-22.11Q196.86-21.62 195.81-20.94L195.81-20.94L195.81-20.94Q194.77-20.25 193.80-19.38L193.80-19.38L193.80-3.72L193.80-3.72Q194.36-3.52 195.05-3.34L195.05-3.34L195.05-3.34Q195.74-3.16 196.68-3.03L196.68-3.03L196.68-3.03Q197.63-2.91 198.80-2.91" fill="#8cd0e5" stroke="none" stroke-width="none" transform="translate(-118.42500877380371,13.056109636480162)" style="fill: rgb(222, 120, 106); animation-play-state: running; animation-delay: 0s;"></path></g><g class="path" style="transform: matrix(1, 0, 0, 1, 0, 0); transform-origin: 108.195px 0.306109px; animation: 50s linear 0s infinite normal forwards running tremble-7e807d5f-0ac5-4f12-9671-04da5c61f94e;"><path d="M235.42-4.03L236.18-0.61L236.18-0.61Q235.01-0.26 233.76 0L233.76 0L233.76 0Q232.51 0.26 231.00 0.46L231.00 0.46L231.00 0.46Q229.50 0.66 227.87 0.66L227.87 0.66L227.87 0.66Q225.32 0.66 223.13-0.05L223.13-0.05L223.13-0.05Q220.93-0.77 219.30-2.35L219.30-2.35L219.30-2.35Q217.67-3.93 216.72-6.45L216.72-6.45L216.72-6.45Q215.78-8.98 215.78-12.65L215.78-12.65L215.78-12.65Q215.78-15.96 216.70-18.49L216.70-18.49L216.70-18.49Q217.62-21.01 219.22-22.72L219.22-22.72L219.22-22.72Q220.83-24.43 223.00-25.30L223.00-25.30L223.00-25.30Q225.17-26.16 227.72-26.16L227.72-26.16L227.72-26.16Q230.21-26.16 232.05-25.19L232.05-25.19L232.05-25.19Q233.89-24.23 235.08-22.57L235.08-22.57L235.08-22.57Q236.28-20.91 236.87-18.69L236.87-18.69L236.87-18.69Q237.46-16.47 237.46-14.03L237.46-14.03L236.69-11.78L220.22-11.78L220.22-11.78Q220.22-10.20 220.63-8.62L220.63-8.62L220.63-8.62Q221.03-7.04 222.03-5.76L222.03-5.76L222.03-5.76Q223.02-4.49 224.63-3.70L224.63-3.70L224.63-3.70Q226.24-2.91 228.63-2.91L228.63-2.91L228.63-2.91Q230.16-2.91 231.44-3.09L231.44-3.09L231.44-3.09Q232.71-3.26 233.66-3.49L233.66-3.49L233.66-3.49Q234.60-3.72 235.42-4.03L235.42-4.03zM220.37-15.05L233.22-15.05L233.22-15.05Q233.22-15.40 233.07-16.63L233.07-16.63L233.07-16.63Q232.92-17.85 232.36-19.18L232.36-19.18L232.36-19.18Q231.80-20.50 230.62-21.55L230.62-21.55L230.62-21.55Q229.45-22.59 227.51-22.59L227.51-22.59L227.51-22.59Q225.37-22.59 223.99-21.70L223.99-21.70L223.99-21.70Q222.62-20.81 221.80-19.58L221.80-19.58L221.80-19.58Q220.98-18.36 220.68-17.09L220.68-17.09L220.68-17.09Q220.37-15.81 220.37-15.05L220.37-15.05" fill="#8cd0e5" stroke="none" stroke-width="none" transform="translate(-118.42500877380371,13.056109636480162)" style="fill: rgb(248, 185, 118); animation-play-state: running; animation-delay: 0s;"></path></g></g>
</g>
</g>
<style id="tremble-7e807d5f-0ac5-4f12-9671-04da5c61f94e" data-anikit="">@keyframes tremble-7e807d5f-0ac5-4f12-9671-04da5c61f94e {
  0% { transform: translate(0px,0px) rotate(0deg) scale(1) }
  3.33333% { transform: translate(-0.18923px,1.45485px) rotate(0deg) scale(1) }
  6.66667% { transform: translate(-0.84296px,-1.32524px) rotate(0deg) scale(1) }
  10% { transform: translate(0.67971px,1.00422px) rotate(0deg) scale(1) }
  13.33333% { transform: translate(-0.5056px,0.83616px) rotate(0deg) scale(1) }
  16.66667% { transform: translate(1.31368px,-0.51401px) rotate(0deg) scale(1) }
  20% { transform: translate(-1.21184px,1.49193px) rotate(0deg) scale(1) }
  23.33333% { transform: translate(1.09065px,-0.21259px) rotate(0deg) scale(1) }
  26.66667% { transform: translate(-1.49916px,0.56159px) rotate(0deg) scale(1) }
  30% { transform: translate(1.48086px,1.21228px) rotate(0deg) scale(1) }
  33.33333% { transform: translate(-1.43889px,-1.152px) rotate(0deg) scale(1) }
  36.66667% { transform: translate(1.35914px,1.34835px) rotate(0deg) scale(1) }
  40% { transform: translate(-1.42834px,0.3091px) rotate(0deg) scale(1) }
  43.33333% { transform: translate(1.47472px,-1.49889px) rotate(0deg) scale(1) }
  46.66667% { transform: translate(-0.92402px,1.4416px) rotate(0deg) scale(1) }
  50% { transform: translate(1.0657px,-0.75306px) rotate(0deg) scale(1) }
  53.33333% { transform: translate(-1.19035px,-1.07484px) rotate(0deg) scale(1) }
  56.66667% { transform: translate(0.28828px,0.79337px) rotate(0deg) scale(1) }
  60% { transform: translate(-0.47167px,-1.42789px) rotate(0deg) scale(1) }
  63.33333% { transform: translate(0.64753px,-0.09795px) rotate(0deg) scale(1) }
  66.66667% { transform: translate(0.41006px,-0.26292px) rotate(0deg) scale(1) }
  70% { transform: translate(-0.22477px,-1.3683px) rotate(0deg) scale(1) }
  73.33333% { transform: translate(0.03588px,0.92931px) rotate(0deg) scale(1) }
  76.66667% { transform: translate(-1.01937px,-1.18398px) rotate(0deg) scale(1) }
  80% { transform: translate(0.8724px,-0.60494px) rotate(0deg) scale(1) }
  83.33333% { transform: translate(-0.71151px,1.4786px) rotate(0deg) scale(1) }
  86.66667% { transform: translate(1.40734px,-1.49607px) rotate(0deg) scale(1) }
  90% { transform: translate(-1.33062px,0.46957px) rotate(0deg) scale(1) }
  93.33333% { transform: translate(1.23264px,1.26738px) rotate(0deg) scale(1) }
  96.66667% { transform: translate(-1.48975px,-1.03867px) rotate(0deg) scale(1) }
  100% { transform: translate(0,0) rotate(0) scale(1) }
}</style></svg>