<?xml version="1.0" encoding="utf-8"?>
<svg xmlns="http://www.w3.org/2000/svg" xmlns:xlink="http://www.w3.org/1999/xlink" style="margin: auto; background: rgb(243, 232, 142); display: block; z-index: 1; position: relative; shape-rendering: auto;" width="1280" height="587" preserveAspectRatio="xMidYMid" viewBox="0 0 1280 587">
<g transform="translate(640,293.5) scale(1,1) translate(-640,-293.5)"><path id="path0" d="M 898.3327565083817 340.52538704215294
c 0 27.49672617979984 -6.727922363142513 7.897995817602082 -14.625918180744595 7.897995817602082
S 869.0809201468925 368.0221132219528 869.0809201468925 340.52538704215294
s 6.727922363142513 -7.897995817602082 14.625918180744595 -7.897995817602082
S 898.3327565083817 313.0286608623531 898.3327565083817 340.52538704215294
z" fill="none" stroke="none"></path>
<circle cx="0" cy="0" r="3.803467296399175" fill="#8cd0e5">
  <animateMotion begin="-2.3347665278252783s" dur="10s" repeatCount="indefinite">
    <mpath xlink:href="#path0"></mpath>
  </animateMotion>
</circle><path id="path1" d="M 667.9304987060589 34.344105044173915
c 0 28.884088715342134 -7.0673834090730745 8.29649356717274 -15.363876976245816 8.29649356717274
S 637.2027447535672 63.228193759516046 637.2027447535672 34.344105044173915
s 7.0673834090730745 -8.29649356717274 15.363876976245816 -8.29649356717274
S 667.9304987060589 5.460016328831781 667.9304987060589 34.344105044173915
z" fill="none" stroke="none"></path>
<circle cx="0" cy="0" r="5.7901091271405125" fill="#fcddc9">
  <animateMotion begin="-2.839607924920413s" dur="10s" repeatCount="indefinite">
    <mpath xlink:href="#path1"></mpath>
  </animateMotion>
</circle><path id="path2" d="M 72.78604866750949 11.795690251132115
c 0 21.377767972227268 -5.2307304612896495 6.140422715426981 -11.37115317671663 6.140422715426981
S 50.043742314076226 33.17345822335938 50.043742314076226 11.795690251132115
s 5.2307304612896495 -6.140422715426981 11.37115317671663 -6.140422715426981
S 72.78604866750949 -9.582077721095153 72.78604866750949 11.795690251132115
z" fill="none" stroke="none"></path>
<circle cx="0" cy="0" r="7.252789969880382" fill="#f8b976">
  <animateMotion begin="-2.3223545568024684s" dur="10s" repeatCount="indefinite">
    <mpath xlink:href="#path2"></mpath>
  </animateMotion>
</circle><path id="path3" d="M 244.73433135963094 350.7378215456008
c 0 21.463176394423243 -5.25162826672058 6.164954921802422 -11.416583188523003 6.164954921802422
S 221.90116498258496 372.2009979400241 221.90116498258496 350.7378215456008
s 5.25162826672058 -6.164954921802422 11.416583188523003 -6.164954921802422
S 244.73433135963094 329.27464515117754 244.73433135963094 350.7378215456008
z" fill="none" stroke="none"></path>
<circle cx="0" cy="0" r="5.282057654311351" fill="#de786a">
  <animateMotion begin="-6.428202465620332s" dur="10s" repeatCount="indefinite">
    <mpath xlink:href="#path3"></mpath>
  </animateMotion>
</circle><path id="path4" d="M 625.1563150479301 9.408982229463646
c 0 32.81752669525753 -8.029820361605564 9.426310859276098 -17.456131220881662 9.426310859276098
S 590.2440526061669 42.22650892472117 590.2440526061669 9.408982229463646
s 8.029820361605564 -9.426310859276098 17.456131220881662 -9.426310859276098
S 625.1563150479301 -23.40854446579388 625.1563150479301 9.408982229463646
z" fill="none" stroke="none"></path>
<circle cx="0" cy="0" r="7.326387448680639" fill="#f8b976">
  <animateMotion begin="-2.247636616581161s" dur="10s" repeatCount="indefinite">
    <mpath xlink:href="#path4"></mpath>
  </animateMotion>
</circle><path id="path5" d="M 404.1947950282802 348.73184283878163
c 0 33.735262069152114 -8.254372633941474 9.689915700713906 -17.94428833465538 9.689915700713906
S 368.3062183589695 382.46710490793373 368.3062183589695 348.73184283878163
s 8.254372633941474 -9.689915700713906 17.94428833465538 -9.689915700713906
S 404.1947950282802 314.99658076962953 404.1947950282802 348.73184283878163
z" fill="none" stroke="none"></path>
<circle cx="0" cy="0" r="7.188680861787887" fill="#f8b976">
  <animateMotion begin="-4.0699180782711935s" dur="10s" repeatCount="indefinite">
    <mpath xlink:href="#path5"></mpath>
  </animateMotion>
</circle><path id="path6" d="M 464.999585004204 435.93665001332806
c 0 36.26318682582998 -8.87290741483074 10.416021747844784 -19.288929162675522 10.416021747844784
S 426.42172667885296 472.199836839158 426.42172667885296 435.93665001332806
s 8.87290741483074 -10.416021747844784 19.288929162675522 -10.416021747844784
S 464.999585004204 399.6734631874981 464.999585004204 435.93665001332806
z" fill="none" stroke="none"></path>
<circle cx="0" cy="0" r="5.805165748690613" fill="#8cd0e5">
  <animateMotion begin="-4.551920383546541s" dur="10s" repeatCount="indefinite">
    <mpath xlink:href="#path6"></mpath>
  </animateMotion>
</circle><path id="path7" d="M 550.2139150175066 490.4672292224079
c 0 32.61001835940619 -7.97904704538662 9.366707401106034 -17.345754446492656 9.366707401106034
S 515.5224061245214 523.0772475818142 515.5224061245214 490.4672292224079
s 7.97904704538662 -9.366707401106034 17.345754446492656 -9.366707401106034
S 550.2139150175066 457.85721086300174 550.2139150175066 490.4672292224079
z" fill="none" stroke="none"></path>
<circle cx="0" cy="0" r="4.794152564738982" fill="#8cd0e5">
  <animateMotion begin="-7.610628008544333s" dur="10s" repeatCount="indefinite">
    <mpath xlink:href="#path7"></mpath>
  </animateMotion>
</circle><path id="path8" d="M 1233.6346892038302 329.5209948729644
c 0 33.86689521180954 -8.2865807433151 9.72772522041338 -18.014305963728482 9.72772522041338
S 1197.6060772763733 363.38789008477397 1197.6060772763733 329.5209948729644
s 8.2865807433151 -9.72772522041338 18.014305963728482 -9.72772522041338
S 1233.6346892038302 295.6540996611549 1233.6346892038302 329.5209948729644
z" fill="none" stroke="none"></path>
<circle cx="0" cy="0" r="5.462735640410154" fill="#8cd0e5">
  <animateMotion begin="-7.724579117154489s" dur="10s" repeatCount="indefinite">
    <mpath xlink:href="#path8"></mpath>
  </animateMotion>
</circle><path id="path9" d="M 1257.9441836842425 104.38601709681012
c 0 33.6874652065978 -8.242677656933504 9.67618681466107 -17.918864471594574 9.67618681466107
S 1222.1064547410533 138.07348230340793 1222.1064547410533 104.38601709681012
s 8.242677656933504 -9.67618681466107 17.918864471594574 -9.67618681466107
S 1257.9441836842425 70.69855189021231 1257.9441836842425 104.38601709681012
z" fill="none" stroke="none"></path>
<circle cx="0" cy="0" r="5.423683972251894" fill="#f8b976">
  <animateMotion begin="-5.2807776155366115s" dur="10s" repeatCount="indefinite">
    <mpath xlink:href="#path9"></mpath>
  </animateMotion>
</circle><path id="path10" d="M 1125.1797888869496 54.76322270837486
c 0 20.959197178972314 -5.128314203365566 6.020194934385665 -11.14850913775123 6.020194934385665
S 1102.882770611447 75.72241988734717 1102.882770611447 54.76322270837486
s 5.128314203365566 -6.020194934385665 11.14850913775123 -6.020194934385665
S 1125.1797888869496 33.80402552940255 1125.1797888869496 54.76322270837486
z" fill="none" stroke="none"></path>
<circle cx="0" cy="0" r="3.7598953322264888" fill="#de786a">
  <animateMotion begin="-7.989687944586404s" dur="10s" repeatCount="indefinite">
    <mpath xlink:href="#path10"></mpath>
  </animateMotion>
</circle><path id="path11" d="M 714.4228236100781 319.2155939197572
c 0 37.02293124329191 -9.058802325486317 10.634246208179592 -19.69304853366591 10.634246208179592
S 675.0367265427464 356.23852516304913 675.0367265427464 319.2155939197572
s 9.058802325486317 -10.634246208179592 19.69304853366591 -10.634246208179592
S 714.4228236100781 282.1926626764653 714.4228236100781 319.2155939197572
z" fill="none" stroke="none"></path>
<circle cx="0" cy="0" r="4.506663548050758" fill="#de786a">
  <animateMotion begin="-0.37188176940483375s" dur="10s" repeatCount="indefinite">
    <mpath xlink:href="#path11"></mpath>
  </animateMotion>
</circle><path id="path12" d="M 696.3342317498514 459.9633265639156
c 0 22.501654284242356 -5.505723920612491 6.463241124197272 -11.968965044809764 6.463241124197272
S 672.3963016602318 482.46498084815795 672.3963016602318 459.9633265639156
s 5.505723920612491 -6.463241124197272 11.968965044809764 -6.463241124197272
S 696.3342317498514 437.4616722796732 696.3342317498514 459.9633265639156
z" fill="none" stroke="none"></path>
<circle cx="0" cy="0" r="6.082347880950178" fill="#826b88">
  <animateMotion begin="-8.563961507381778s" dur="10s" repeatCount="indefinite">
    <mpath xlink:href="#path12"></mpath>
  </animateMotion>
</circle><path id="path13" d="M 200.87600085705455 283.044707751538
c 0 36.42612486485071 -8.912775232889002 10.462823099478396 -19.3755983323674 10.462823099478396
S 162.12480419231977 319.4708326163887 162.12480419231977 283.044707751538
s 8.912775232889002 -10.462823099478396 19.3755983323674 -10.462823099478396
S 200.87600085705455 246.61858288668728 200.87600085705455 283.044707751538
z" fill="none" stroke="none"></path>
<circle cx="0" cy="0" r="6.750806943229739" fill="#8cd0e5">
  <animateMotion begin="-0.6828120792755565s" dur="10s" repeatCount="indefinite">
    <mpath xlink:href="#path13"></mpath>
  </animateMotion>
</circle><path id="path14" d="M 627.687570614064 369.88975294603995
c 0 25.806616553383304 -6.314384901359744 7.412538797248396 -13.72692369860814 7.412538797248396
S 600.2337232168477 395.69636949942327 600.2337232168477 369.88975294603995
s 6.314384901359744 -7.412538797248396 13.72692369860814 -7.412538797248396
S 627.687570614064 344.0831363926566 627.687570614064 369.88975294603995
z" fill="none" stroke="none"></path>
<circle cx="0" cy="0" r="6.970781889252232" fill="#fcddc9">
  <animateMotion begin="-5.793291688070095s" dur="10s" repeatCount="indefinite">
    <mpath xlink:href="#path14"></mpath>
  </animateMotion>
</circle><path id="path15" d="M 907.4033930622397 229.73337736107965
c 0 33.21456464261633 -8.126967944469952 9.540353673942988 -17.66732161841294 9.540353673942988
S 872.0687498254138 262.94794200369597 872.0687498254138 229.73337736107965
s 8.126967944469952 -9.540353673942988 17.66732161841294 -9.540353673942988
S 907.4033930622397 196.51881271846332 907.4033930622397 229.73337736107965
z" fill="none" stroke="none"></path>
<circle cx="0" cy="0" r="4.0317221174472175" fill="#de786a">
  <animateMotion begin="-7.690435747762942s" dur="10s" repeatCount="indefinite">
    <mpath xlink:href="#path15"></mpath>
  </animateMotion>
</circle><path id="path16" d="M 505.85977352235807 71.28129908379206
c 0 28.88771214070193 -7.068269991873875 8.297534338286724 -15.3658043301606 8.297534338286724
S 475.1281648620369 100.169011224494 475.1281648620369 71.28129908379206
s 7.068269991873875 -8.297534338286724 15.3658043301606 -8.297534338286724
S 505.85977352235807 42.393586943090135 505.85977352235807 71.28129908379206
z" fill="none" stroke="none"></path>
<circle cx="0" cy="0" r="4.944914334638624" fill="#fcddc9">
  <animateMotion begin="-5.014280066481125s" dur="10s" repeatCount="indefinite">
    <mpath xlink:href="#path16"></mpath>
  </animateMotion>
</circle><path id="path17" d="M 926.4316015727153 232.45642685343145
c 0 22.080201571456932 -5.402602512164993 6.342185557758906 -11.7447880699239 6.342185557758906
S 902.9420254328676 254.5366284248884 902.9420254328676 232.45642685343145
s 5.402602512164993 -6.342185557758906 11.7447880699239 -6.342185557758906
S 926.4316015727153 210.3762252819745 926.4316015727153 232.45642685343145
z" fill="none" stroke="none"></path>
<circle cx="0" cy="0" r="4.619273240763242" fill="#826b88">
  <animateMotion begin="-0.05392649569242902s" dur="10s" repeatCount="indefinite">
    <mpath xlink:href="#path17"></mpath>
  </animateMotion>
</circle><path id="path18" d="M 1188.3370744673398 554.7886129148701
c 0 26.867100726571255 -6.573865071395094 7.717145953376851 -14.291011024771944 7.717145953376851
S 1159.755052417796 581.6557136414414 1159.755052417796 554.7886129148701
s 6.573865071395094 -7.717145953376851 14.291011024771944 -7.717145953376851
S 1188.3370744673398 527.9215121882988 1188.3370744673398 554.7886129148701
z" fill="none" stroke="none"></path>
<circle cx="0" cy="0" r="5.970160412843" fill="#8cd0e5">
  <animateMotion begin="-5.03285720636153s" dur="10s" repeatCount="indefinite">
    <mpath xlink:href="#path18"></mpath>
  </animateMotion>
</circle><path id="path19" d="M 1280.313240410171 556.1004564045306
c 0 32.17191348468411 -7.87185117178441 9.240868766877352 -17.112719938661762 9.240868766877352
S 1246.0878005328475 588.2723698892147 1246.0878005328475 556.1004564045306
s 7.87185117178441 -9.240868766877352 17.112719938661762 -9.240868766877352
S 1280.313240410171 523.9285429198466 1280.313240410171 556.1004564045306
z" fill="none" stroke="none"></path>
<circle cx="0" cy="0" r="3.7893930103405307" fill="#826b88">
  <animateMotion begin="-2.0281067237219763s" dur="10s" repeatCount="indefinite">
    <mpath xlink:href="#path19"></mpath>
  </animateMotion>
</circle><path id="path20" d="M 219.86533424104877 79.08406521034335
c 0 33.46861374897556 -8.189128896025933 9.613325225769575 -17.802454121795506 9.613325225769575
S 184.26042599745776 112.55267895931891 184.26042599745776 79.08406521034335
s 8.189128896025933 -9.613325225769575 17.802454121795506 -9.613325225769575
S 219.86533424104877 45.6154514613678 219.86533424104877 79.08406521034335
z" fill="none" stroke="none"></path>
<circle cx="0" cy="0" r="5.1991320979727025" fill="#fcddc9">
  <animateMotion begin="-7.770086236237368s" dur="10s" repeatCount="indefinite">
    <mpath xlink:href="#path20"></mpath>
  </animateMotion>
</circle><path id="path21" d="M 492.65204619421024 458.6407418413994
c 0 30.750546492440474 -7.5240698864482 8.832603779743541 -16.356673666191742 8.832603779743541
S 459.93869886182677 489.3912883338399 459.93869886182677 458.6407418413994
s 7.5240698864482 -8.832603779743541 16.356673666191742 -8.832603779743541
S 492.65204619421024 427.8901953489589 492.65204619421024 458.6407418413994
z" fill="none" stroke="none"></path>
<circle cx="0" cy="0" r="3.9141342703852398" fill="#826b88">
  <animateMotion begin="-5.155817363660018s" dur="10s" repeatCount="indefinite">
    <mpath xlink:href="#path21"></mpath>
  </animateMotion>
</circle><path id="path22" d="M 543.704336213636 224.27284710595387
c 0 25.111560067781664 -6.1443178889253 7.212894913086222 -13.357212802011523 7.212894913086222
S 516.9899106096129 249.38440717373553 516.9899106096129 224.27284710595387
s 6.1443178889253 -7.212894913086222 13.357212802011523 -7.212894913086222
S 543.704336213636 199.16128703817222 543.704336213636 224.27284710595387
z" fill="none" stroke="none"></path>
<circle cx="0" cy="0" r="4.443298265892324" fill="#826b88">
  <animateMotion begin="-0.6850458366407919s" dur="10s" repeatCount="indefinite">
    <mpath xlink:href="#path22"></mpath>
  </animateMotion>
</circle><path id="path23" d="M 611.9378421652043 176.958079053643
c 0 32.90624806960842 -8.051528782989292 9.45179465829178 -17.503323441281072 9.45179465829178
S 576.9311952826422 209.8643271232514 576.9311952826422 176.958079053643
s 8.051528782989292 -9.45179465829178 17.503323441281072 -9.45179465829178
S 611.9378421652043 144.05183098403458 611.9378421652043 176.958079053643
z" fill="none" stroke="none"></path>
<circle cx="0" cy="0" r="4.676246836105127" fill="#f8b976">
  <animateMotion begin="-9.493617757713292s" dur="10s" repeatCount="indefinite">
    <mpath xlink:href="#path23"></mpath>
  </animateMotion>
</circle><path id="path24" d="M 642.8978152189218 541.7382231184197
c 0 25.915606778685643 -6.341052722444358 7.44384450026077 -13.784897222705128 7.44384450026077
S 615.3280207735115 567.6538298971053 615.3280207735115 541.7382231184197
s 6.341052722444358 -7.44384450026077 13.784897222705128 -7.44384450026077
S 642.8978152189218 515.822616339734 642.8978152189218 541.7382231184197
z" fill="none" stroke="none"></path>
<circle cx="0" cy="0" r="6.621823228024512" fill="#8cd0e5">
  <animateMotion begin="-5.81301096766537s" dur="10s" repeatCount="indefinite">
    <mpath xlink:href="#path24"></mpath>
  </animateMotion>
</circle><path id="path25" d="M 724.8193453251397 351.6614367344529
c 0 19.898799268618465 -4.8688551401938795 5.715612555879773 -10.584467696073652 5.715612555879773
S 703.6504099329925 371.56023600307134 703.6504099329925 351.6614367344529
s 4.8688551401938795 -5.715612555879773 10.584467696073652 -5.715612555879773
S 724.8193453251397 331.7626374658344 724.8193453251397 351.6614367344529
z" fill="none" stroke="none"></path>
<circle cx="0" cy="0" r="5.127198608836562" fill="#376888">
  <animateMotion begin="-2.1122397538718474s" dur="10s" repeatCount="indefinite">
    <mpath xlink:href="#path25"></mpath>
  </animateMotion>
</circle><path id="path26" d="M 1143.2550501340547 371.8626331743504
c 0 33.041376949656346 -8.084592232362722 9.490608272773633 -17.575200505136355 9.490608272773633
S 1108.104649123782 404.90401012400673 1108.104649123782 371.8626331743504
s 8.084592232362722 -9.490608272773633 17.575200505136355 -9.490608272773633
S 1143.2550501340547 338.821256224694 1143.2550501340547 371.8626331743504
z" fill="none" stroke="none"></path>
<circle cx="0" cy="0" r="5.565512305839642" fill="#8cd0e5">
  <animateMotion begin="-0.9803752330818094s" dur="10s" repeatCount="indefinite">
    <mpath xlink:href="#path26"></mpath>
  </animateMotion>
</circle><path id="path27" d="M 794.8780791134643 161.98272192493775
c 0 29.651300133321868 -7.2551053517702435 8.516862804252026 -15.771968156022268 8.516862804252026
S 763.3341428014198 191.63402205825963 763.3341428014198 161.98272192493775
s 7.2551053517702435 -8.516862804252026 15.771968156022268 -8.516862804252026
S 794.8780791134643 132.33142179161587 794.8780791134643 161.98272192493775
z" fill="none" stroke="none"></path>
<circle cx="0" cy="0" r="6.2868553965344" fill="#8cd0e5">
  <animateMotion begin="-3.7489253585812787s" dur="10s" repeatCount="indefinite">
    <mpath xlink:href="#path27"></mpath>
  </animateMotion>
</circle><path id="path28" d="M 90.69301046470486 449.23649333329723
c 0 36.65361906434454 -8.968438707233236 10.52816717805641 -19.496605885289647 10.52816717805641
S 51.69979869412557 485.89011239764176 51.69979869412557 449.23649333329723
s 8.968438707233236 -10.52816717805641 19.496605885289647 -10.52816717805641
S 90.69301046470486 412.5828742689527 90.69301046470486 449.23649333329723
z" fill="none" stroke="none"></path>
<circle cx="0" cy="0" r="6.172227037985297" fill="#826b88">
  <animateMotion begin="-9.83926677908335s" dur="10s" repeatCount="indefinite">
    <mpath xlink:href="#path28"></mpath>
  </animateMotion>
</circle><path id="path29" d="M 42.31739624948362 437.48063929223355
c 0 30.30752271069141 -7.415670450488322 8.705352267964553 -16.121022718452874 8.705352267964553
S 10.07535081257787 467.78816200292493 10.07535081257787 437.48063929223355
s 7.415670450488322 -8.705352267964553 16.121022718452874 -8.705352267964553
S 42.31739624948362 407.17311658154216 42.31739624948362 437.48063929223355
z" fill="none" stroke="none"></path>
<circle cx="0" cy="0" r="3.9882367150539224" fill="#826b88">
  <animateMotion begin="-7.9521768552389265s" dur="10s" repeatCount="indefinite">
    <mpath xlink:href="#path29"></mpath>
  </animateMotion>
</circle><path id="path30" d="M 749.3312689436971 455.2443664564816
c 0 19.648611165814433 -4.807638902273744 5.643750015712656 -10.4513889179864 5.643750015712656
S 728.4284911077243 474.89297762229603 728.4284911077243 455.2443664564816
s 4.807638902273744 -5.643750015712656 10.4513889179864 -5.643750015712656
S 749.3312689436971 435.59575529066717 749.3312689436971 455.2443664564816
z" fill="none" stroke="none"></path>
<circle cx="0" cy="0" r="7.45441946051637" fill="#fcddc9">
  <animateMotion begin="-6.4412927279659975s" dur="10s" repeatCount="indefinite">
    <mpath xlink:href="#path30"></mpath>
  </animateMotion>
</circle><path id="path31" d="M 623.9116541506012 528.2373115667514
c 0 24.556264955472777 -6.008447808253977 7.053395253167713 -13.06184306142169 7.053395253167713
S 597.7879680277579 552.7935765222242 597.7879680277579 528.2373115667514
s 6.008447808253977 -7.053395253167713 13.06184306142169 -7.053395253167713
S 623.9116541506012 503.6810466112786 623.9116541506012 528.2373115667514
z" fill="none" stroke="none"></path>
<circle cx="0" cy="0" r="4.348746368611372" fill="#de786a">
  <animateMotion begin="-7.932349847869606s" dur="10s" repeatCount="indefinite">
    <mpath xlink:href="#path31"></mpath>
  </animateMotion>
</circle><path id="path32" d="M 308.3248265512084 239.16172156526528
c 0 24.064842653780204 -5.888206181244092 6.912242038851761 -12.800448220095852 6.912242038851761
S 282.72393011101667 263.2265642190455 282.72393011101667 239.16172156526528
s 5.888206181244092 -6.912242038851761 12.800448220095852 -6.912242038851761
S 308.3248265512084 215.09687891148508 308.3248265512084 239.16172156526528
z" fill="none" stroke="none"></path>
<circle cx="0" cy="0" r="5.0573066842006185" fill="#fcddc9">
  <animateMotion begin="-5.237625667218515s" dur="10s" repeatCount="indefinite">
    <mpath xlink:href="#path32"></mpath>
  </animateMotion>
</circle><path id="path33" d="M 911.9503951353472 336.4875500955358
c 0 26.207461442966487 -6.412463970087544 7.527675095320162 -13.940139065407706 7.527675095320162
S 884.0701170045318 362.6950115385023 884.0701170045318 336.4875500955358
s 6.412463970087544 -7.527675095320162 13.940139065407706 -7.527675095320162
S 911.9503951353472 310.28008865256936 911.9503951353472 336.4875500955358
z" fill="none" stroke="none"></path>
<circle cx="0" cy="0" r="3.7885132792286984" fill="#826b88">
  <animateMotion begin="-2.044011453496719s" dur="10s" repeatCount="indefinite">
    <mpath xlink:href="#path33"></mpath>
  </animateMotion>
</circle><path id="path34" d="M 1109.3978668684872 462.56102243316843
c 0 35.48017077129616 -8.681318380210762 10.191112881116982 -18.872431261327744 10.191112881116982
S 1071.6530043458315 498.0411932044646 1071.6530043458315 462.56102243316843
s 8.681318380210762 -10.191112881116982 18.872431261327744 -10.191112881116982
S 1109.3978668684872 427.08085166187226 1109.3978668684872 462.56102243316843
z" fill="none" stroke="none"></path>
<circle cx="0" cy="0" r="5.268076837348986" fill="#de786a">
  <animateMotion begin="-7.423673494530534s" dur="10s" repeatCount="indefinite">
    <mpath xlink:href="#path34"></mpath>
  </animateMotion>
</circle><path id="path35" d="M 424.64500935773856 405.7138546515029
c 0 35.27708275637989 -8.631626631880184 10.132779089598479 -18.764405721478663 10.132779089598479
S 387.1161979147812 440.9909374078828 387.1161979147812 405.7138546515029
s 8.631626631880184 -10.132779089598479 18.764405721478663 -10.132779089598479
S 424.64500935773856 370.436771895123 424.64500935773856 405.7138546515029
z" fill="none" stroke="none"></path>
<circle cx="0" cy="0" r="4.653761517089505" fill="#fcddc9">
  <animateMotion begin="-3.4689637721933253s" dur="10s" repeatCount="indefinite">
    <mpath xlink:href="#path35"></mpath>
  </animateMotion>
</circle><path id="path36" d="M 348.4681230196519 468.1464363906829
c 0 27.74528985558325 -6.7887411348767515 7.969391767029231 -14.758132901905983 7.969391767029231
S 318.95185721583994 495.8917262462661 318.95185721583994 468.1464363906829
s 6.7887411348767515 -7.969391767029231 14.758132901905983 -7.969391767029231
S 348.4681230196519 440.40114653509966 348.4681230196519 468.1464363906829
z" fill="none" stroke="none"></path>
<circle cx="0" cy="0" r="6.213066094424596" fill="#fcddc9">
  <animateMotion begin="-5.415632749640025s" dur="10s" repeatCount="indefinite">
    <mpath xlink:href="#path36"></mpath>
  </animateMotion>
</circle><path id="path37" d="M 1160.539896940864 141.47340938444933
c 0 37.40756089319195 -9.152913835568242 10.744724937406199 -19.897638772974442 10.744724937406199
S 1120.7446193949152 178.88097027764127 1120.7446193949152 141.47340938444933
s 9.152913835568242 -10.744724937406199 19.897638772974442 -10.744724937406199
S 1160.539896940864 104.06584849125738 1160.539896940864 141.47340938444933
z" fill="none" stroke="none"></path>
<circle cx="0" cy="0" r="5.5305227061038185" fill="#376888">
  <animateMotion begin="-6.176531647548893s" dur="10s" repeatCount="indefinite">
    <mpath xlink:href="#path37"></mpath>
  </animateMotion>
</circle><path id="path38" d="M 1135.0026679804514 109.48339737314623
c 0 21.88150559129547 -5.353985410636125 6.285113308138061 -11.639098718774186 6.285113308138061
S 1111.724470542903 131.3649029644417 1111.724470542903 109.48339737314623
s 5.353985410636125 -6.285113308138061 11.639098718774186 -6.285113308138061
S 1135.0026679804514 87.60189178185077 1135.0026679804514 109.48339737314623
z" fill="none" stroke="none"></path>
<circle cx="0" cy="0" r="5.0120763023799295" fill="#de786a">
  <animateMotion begin="-0.08702135207937944s" dur="10s" repeatCount="indefinite">
    <mpath xlink:href="#path38"></mpath>
  </animateMotion>
</circle><path id="path39" d="M 934.0602817364617 567.6637878655031
c 0 34.14950088713836 -8.355728940470023 9.80889919098655 -18.164628131456574 9.80889919098655
S 897.7310254735486 601.8132887526415 897.7310254735486 567.6637878655031
s 8.355728940470023 -9.80889919098655 18.164628131456574 -9.80889919098655
S 934.0602817364617 533.5142869783647 934.0602817364617 567.6637878655031
z" fill="none" stroke="none"></path>
<circle cx="0" cy="0" r="4.530926326295634" fill="#376888">
  <animateMotion begin="-6.201073901553206s" dur="10s" repeatCount="indefinite">
    <mpath xlink:href="#path39"></mpath>
  </animateMotion>
</circle><path id="path40" d="M 971.0235776241209 351.55128248816646
c 0 34.78934626471449 -8.512286852004609 9.992684565396715 -18.504971417401322 9.992684565396715
S 934.0136347893183 386.34062875288095 934.0136347893183 351.55128248816646
s 8.512286852004609 -9.992684565396715 18.504971417401322 -9.992684565396715
S 971.0235776241209 316.761936223452 971.0235776241209 351.55128248816646
z" fill="none" stroke="none"></path>
<circle cx="0" cy="0" r="3.99083194782311" fill="#f8b976">
  <animateMotion begin="-1.5701303211633455s" dur="10s" repeatCount="indefinite">
    <mpath xlink:href="#path40"></mpath>
  </animateMotion>
</circle><path id="path41" d="M 111.31356883288424 375.3730514923448
c 0 23.675052337498805 -5.79283195491992 6.800280990558167 -12.593112945478087 6.800280990558167
S 86.12734294192808 399.0481038298436 86.12734294192808 375.3730514923448
s 5.79283195491992 -6.800280990558167 12.593112945478087 -6.800280990558167
S 111.31356883288424 351.697999154846 111.31356883288424 375.3730514923448
z" fill="none" stroke="none"></path>
<circle cx="0" cy="0" r="5.512335795708926" fill="#f8b976">
  <animateMotion begin="-2.6335441589872066s" dur="10s" repeatCount="indefinite">
    <mpath xlink:href="#path41"></mpath>
  </animateMotion>
</circle><path id="path42" d="M 1003.5409636775736 108.67568196573477
c 0 28.367771876637423 -6.94105056556022 8.148189794353303 -15.089240359913523 8.148189794353303
S 973.3624829577465 137.0434538423722 973.3624829577465 108.67568196573477
s 6.94105056556022 -8.148189794353303 15.089240359913523 -8.148189794353303
S 1003.5409636775736 80.30791008909735 1003.5409636775736 108.67568196573477
z" fill="none" stroke="none"></path>
<circle cx="0" cy="0" r="6.740768669752907" fill="#de786a">
  <animateMotion begin="-1.862587650547074s" dur="10s" repeatCount="indefinite">
    <mpath xlink:href="#path42"></mpath>
  </animateMotion>
</circle><path id="path43" d="M 1265.0817411210433 214.20222759955763
c 0 25.131156987571718 -6.149112879937761 7.218523815579111 -13.367636695516872 7.218523815579111
S 1238.3464677300094 239.33338458712936 1238.3464677300094 214.20222759955763
s 6.149112879937761 -7.218523815579111 13.367636695516872 -7.218523815579111
S 1265.0817411210433 189.0710706119859 1265.0817411210433 214.20222759955763
z" fill="none" stroke="none"></path>
<circle cx="0" cy="0" r="3.801692903716688" fill="#826b88">
  <animateMotion begin="-2.7052842203819405s" dur="10s" repeatCount="indefinite">
    <mpath xlink:href="#path43"></mpath>
  </animateMotion>
</circle><path id="path44" d="M 28.86602939866656 363.07545552640823
c 0 24.336390986506487 -5.954648858400523 6.99023996420931 -12.944888822609833 6.99023996420931
S 2.976251753446892 387.41184651291474 2.976251753446892 363.07545552640823
s 5.954648858400523 -6.99023996420931 12.944888822609833 -6.99023996420931
S 28.86602939866656 338.73906453990173 28.86602939866656 363.07545552640823
z" fill="none" stroke="none"></path>
<circle cx="0" cy="0" r="6.263173756824295" fill="#de786a">
  <animateMotion begin="-0.6609780252976671s" dur="10s" repeatCount="indefinite">
    <mpath xlink:href="#path44"></mpath>
  </animateMotion>
</circle><path id="path45" d="M 1251.9030563174151 264.31892423733206
c 0 32.21571789873531 -7.88256927309481 9.253450885806952 -17.13602015890176 9.253450885806952
S 1217.6310159996115 296.53464213606736 1217.6310159996115 264.31892423733206
s 7.88256927309481 -9.253450885806952 17.13602015890176 -9.253450885806952
S 1251.9030563174151 232.10320633859675 1251.9030563174151 264.31892423733206
z" fill="none" stroke="none"></path>
<circle cx="0" cy="0" r="4.468327723684991" fill="#fcddc9">
  <animateMotion begin="-7.782073337025857s" dur="10s" repeatCount="indefinite">
    <mpath xlink:href="#path45"></mpath>
  </animateMotion>
</circle><path id="path46" d="M 145.74330878343238 320.95818392301584
c 0 24.109590238341674 -5.899155058317643 6.925095068459843 -12.824250126777486 6.925095068459843
S 120.09480852987741 345.06777416135753 120.09480852987741 320.95818392301584
s 5.899155058317643 -6.925095068459843 12.824250126777486 -6.925095068459843
S 145.74330878343238 296.84859368467414 145.74330878343238 320.95818392301584
z" fill="none" stroke="none"></path>
<circle cx="0" cy="0" r="6.401983156972809" fill="#de786a">
  <animateMotion begin="-4.51690661756226s" dur="10s" repeatCount="indefinite">
    <mpath xlink:href="#path46"></mpath>
  </animateMotion>
</circle><path id="path47" d="M 64.52946676573949 23.470052626391
c 0 33.54125226081879 -8.206902148923746 9.634189479171354 -17.8410916280951 9.634189479171354
S 28.847283509549285 57.01130488720979 28.847283509549285 23.470052626391
s 8.206902148923746 -9.634189479171354 17.8410916280951 -9.634189479171354
S 64.52946676573949 -10.071199634427789 64.52946676573949 23.470052626391
z" fill="none" stroke="none"></path>
<circle cx="0" cy="0" r="7.104064905767612" fill="#f8b976">
  <animateMotion begin="-0.8912731404597452s" dur="10s" repeatCount="indefinite">
    <mpath xlink:href="#path47"></mpath>
  </animateMotion>
</circle><path id="path48" d="M 296.6942994075419 491.49759692917496
c 0 33.07267784325113 -8.09225096164655 9.499598954976388 -17.59184991662294 9.499598954976388
S 261.510599574296 524.570274772426 261.510599574296 491.49759692917496
s 8.09225096164655 -9.499598954976388 17.59184991662294 -9.499598954976388
S 296.6942994075419 458.4249190859238 296.6942994075419 491.49759692917496
z" fill="none" stroke="none"></path>
<circle cx="0" cy="0" r="5.498760500025574" fill="#fcddc9">
  <animateMotion begin="-3.169504040516886s" dur="10s" repeatCount="indefinite">
    <mpath xlink:href="#path48"></mpath>
  </animateMotion>
</circle><path id="path49" d="M 266.35124826169226 473.5482529912674
c 0 28.178292563643495 -6.894688605997876 8.093764885301855 -14.988453491299731 8.093764885301855
S 236.3743412790928 501.7265455549109 236.3743412790928 473.5482529912674
s 6.894688605997876 -8.093764885301855 14.988453491299731 -8.093764885301855
S 266.35124826169226 445.36996042762394 266.35124826169226 473.5482529912674
z" fill="none" stroke="none"></path>
<circle cx="0" cy="0" r="6.362306918129381" fill="#f8b976">
  <animateMotion begin="-6.3143554358119065s" dur="10s" repeatCount="indefinite">
    <mpath xlink:href="#path49"></mpath>
  </animateMotion>
</circle><path id="path50" d="M 333.83808843778263 338.03200298699204
c 0 36.45923962573908 -8.920877780765943 10.472334786116544 -19.393212566882486 10.472334786116544
S 295.05166330401767 374.4912426127311 295.05166330401767 338.03200298699204
s 8.920877780765943 -10.472334786116544 19.393212566882486 -10.472334786116544
S 333.83808843778263 301.57276336125295 333.83808843778263 338.03200298699204
z" fill="none" stroke="none"></path>
<circle cx="0" cy="0" r="5.760808398653862" fill="#826b88">
  <animateMotion begin="-3.720996318202825s" dur="10s" repeatCount="indefinite">
    <mpath xlink:href="#path50"></mpath>
  </animateMotion>
</circle><path id="path51" d="M 1008.2078371260653 28.45761255927263
c 0 25.553941281713865 -6.252560100844882 7.339961857513558 -13.59252195835844 7.339961857513558
S 981.0227932093484 54.011553840986494 981.0227932093484 28.45761255927263
s 6.252560100844882 -7.339961857513558 13.59252195835844 -7.339961857513558
S 1008.2078371260653 2.9036712775587645 1008.2078371260653 28.45761255927263
z" fill="none" stroke="none"></path>
<circle cx="0" cy="0" r="4.511474703582706" fill="#826b88">
  <animateMotion begin="-8.975815960175911s" dur="10s" repeatCount="indefinite">
    <mpath xlink:href="#path51"></mpath>
  </animateMotion>
</circle><path id="path52" d="M 1226.0229331296052 248.21143320565383
c 0 29.18841970850429 -7.141847375485092 8.383907788612936 -15.525755164098028 8.383907788612936
S 1194.9714228014093 277.39985291415815 1194.9714228014093 248.21143320565383
s 7.141847375485092 -8.383907788612936 15.525755164098028 -8.383907788612936
S 1226.0229331296052 219.02301349714955 1226.0229331296052 248.21143320565383
z" fill="none" stroke="none"></path>
<circle cx="0" cy="0" r="6.606182007536344" fill="#376888">
  <animateMotion begin="-6.4547482027555425s" dur="10s" repeatCount="indefinite">
    <mpath xlink:href="#path52"></mpath>
  </animateMotion>
</circle><path id="path53" d="M 991.5904787021308 457.7394122939449
c 0 24.799917474824728 -6.068064914052858 7.123380551279443 -13.1914454653323 7.123380551279443
S 965.2075877714661 482.5393297687696 965.2075877714661 457.7394122939449
s 6.068064914052858 -7.123380551279443 13.1914454653323 -7.123380551279443
S 991.5904787021308 432.93949481912017 991.5904787021308 457.7394122939449
z" fill="none" stroke="none"></path>
<circle cx="0" cy="0" r="6.23043153263408" fill="#826b88">
  <animateMotion begin="-2.523635988708619s" dur="10s" repeatCount="indefinite">
    <mpath xlink:href="#path53"></mpath>
  </animateMotion>
</circle><path id="path54" d="M 789.6836386582052 420.3645030305163
c 0 20.383153644406825 -4.987367381078265 5.85473562126579 -10.842103002344054 5.85473562126579
S 767.999432653517 440.7476566749231 767.999432653517 420.3645030305163
s 4.987367381078265 -5.85473562126579 10.842103002344054 -5.85473562126579
S 789.6836386582052 399.98134938610946 789.6836386582052 420.3645030305163
z" fill="none" stroke="none"></path>
<circle cx="0" cy="0" r="5.331564693041074" fill="#376888">
  <animateMotion begin="-3.9961138464689805s" dur="10s" repeatCount="indefinite">
    <mpath xlink:href="#path54"></mpath>
  </animateMotion>
</circle></g>
</svg>