<?xml version="1.0" encoding="utf-8"?>
<svg xmlns="http://www.w3.org/2000/svg" xmlns:xlink="http://www.w3.org/1999/xlink" style="margin: auto; background: rgb(33, 33, 33); display: block; z-index: 1; position: relative; shape-rendering: auto;" width="1280" height="587" preserveAspectRatio="xMidYMid" viewBox="0 0 1280 587">
<g transform="translate(640,293.5) scale(1,1) translate(-640,-293.5)"><path id="path0" d="M 826.4226464307786 59.02927877391842
c 0 31.479169998799406 -7.702350106089216 9.041889254974297 -16.744239361063514 9.041889254974297
S 792.9341677086517 90.50844877271783 792.9341677086517 59.02927877391842
s 7.702350106089216 -9.041889254974297 16.744239361063514 -9.041889254974297
S 826.4226464307786 27.550108775119014 826.4226464307786 59.02927877391842
z" fill="none" stroke="none"></path>
<circle cx="0" cy="0" r="11.915794429829402" fill="#3c0f0f">
  <animateMotion begin="-5.421711491456092s" dur="10s" repeatCount="indefinite">
    <mpath xlink:href="#path0"></mpath>
  </animateMotion>
</circle><path id="path1" d="M 809.7392334360094 566.2819019150328
c 0 36.60019849219478 -8.955367716175317 10.51282297116233 -19.468190687337646 10.51282297116233
S 770.8028520613342 602.8821004072275 770.8028520613342 566.2819019150328
s 8.955367716175317 -10.51282297116233 19.468190687337646 -10.51282297116233
S 809.7392334360094 529.681703422838 809.7392334360094 566.2819019150328
z" fill="none" stroke="none"></path>
<circle cx="0" cy="0" r="11.157569871383508" fill="#2aa7c9">
  <animateMotion begin="-3.2433381221874225s" dur="10s" repeatCount="indefinite">
    <mpath xlink:href="#path1"></mpath>
  </animateMotion>
</circle><path id="path2" d="M 1148.1727978323427 388.0230011414477
c 0 23.85800525346073 -5.837597030102093 6.852831296206805 -12.690428326308897 6.852831296206805
S 1122.791941179725 411.8810063949084 1122.791941179725 388.0230011414477
s 5.837597030102093 -6.852831296206805 12.690428326308897 -6.852831296206805
S 1148.1727978323427 364.164995887987 1148.1727978323427 388.0230011414477
z" fill="none" stroke="none"></path>
<circle cx="0" cy="0" r="7.775895672321479" fill="#06628d">
  <animateMotion begin="-3.0891466192737194s" dur="10s" repeatCount="indefinite">
    <mpath xlink:href="#path2"></mpath>
  </animateMotion>
</circle><path id="path3" d="M 326.81284743413596 440.0417142705613
c 0 29.012117821144525 -7.098709679641745 8.333267884796832 -15.431977564438577 8.333267884796832
S 295.9488923052588 469.0538320917058 295.9488923052588 440.0417142705613
s 7.098709679641745 -8.333267884796832 15.431977564438577 -8.333267884796832
S 326.81284743413596 411.0295964494168 326.81284743413596 440.0417142705613
z" fill="none" stroke="none"></path>
<circle cx="0" cy="0" r="11.479604594714974" fill="#edb195">
  <animateMotion begin="-0.6796391428522686s" dur="10s" repeatCount="indefinite">
    <mpath xlink:href="#path3"></mpath>
  </animateMotion>
</circle><path id="path4" d="M 393.2167626078976 158.43233555837054
c 0 21.872777702340986 -5.351849863338751 6.28260636131071 -11.634456224649462 6.28260636131071
S 369.94785015859867 180.30511326071152 369.94785015859867 158.43233555837054
s 5.351849863338751 -6.28260636131071 11.634456224649462 -6.28260636131071
S 393.2167626078976 136.55955785602956 393.2167626078976 158.43233555837054
z" fill="none" stroke="none"></path>
<circle cx="0" cy="0" r="9.927999071997505" fill="#06628d">
  <animateMotion begin="-6.946919827597404s" dur="10s" repeatCount="indefinite">
    <mpath xlink:href="#path4"></mpath>
  </animateMotion>
</circle><path id="path5" d="M 597.6537221144337 562.8927465682015
c 0 21.939233236781128 -5.3681102600634665 6.301694653117983 -11.66980491318145 6.301694653117983
S 574.3141122880708 584.8319798049826 574.3141122880708 562.8927465682015
s 5.3681102600634665 -6.301694653117983 11.66980491318145 -6.301694653117983
S 597.6537221144337 540.9535133314204 597.6537221144337 562.8927465682015
z" fill="none" stroke="none"></path>
<circle cx="0" cy="0" r="6.7841933850589555" fill="#06628d">
  <animateMotion begin="-4.99287599001994s" dur="10s" repeatCount="indefinite">
    <mpath xlink:href="#path5"></mpath>
  </animateMotion>
</circle><path id="path6" d="M 1220.7258291680935 538.9602721252163
c 0 20.388571530838213 -4.9886930341412645 5.856291822687572 -10.844984856828837 5.856291822687572
S 1199.0358594544357 559.3488436560546 1199.0358594544357 538.9602721252163
s 4.9886930341412645 -5.856291822687572 10.844984856828837 -5.856291822687572
S 1220.7258291680935 518.5717005943781 1220.7258291680935 538.9602721252163
z" fill="none" stroke="none"></path>
<circle cx="0" cy="0" r="9.816345869466861" fill="#04284d">
  <animateMotion begin="-3.4853223162983027s" dur="10s" repeatCount="indefinite">
    <mpath xlink:href="#path6"></mpath>
  </animateMotion>
</circle><path id="path7" d="M 671.5637698364036 562.961843140707
c 0 36.745658413164435 -8.99095897343385 10.554604012291913 -19.545562985725763 10.554604012291913
S 632.4726438649521 599.7075015538713 632.4726438649521 562.961843140707
s 8.99095897343385 -10.554604012291913 19.545562985725763 -10.554604012291913
S 671.5637698364036 526.2161847275426 671.5637698364036 562.961843140707
z" fill="none" stroke="none"></path>
<circle cx="0" cy="0" r="9.988369969702457" fill="#04284d">
  <animateMotion begin="-5.9235142752981895s" dur="10s" repeatCount="indefinite">
    <mpath xlink:href="#path7"></mpath>
  </animateMotion>
</circle><path id="path8" d="M 465.25762033739716 243.79390603164217
c 0 36.268395231837104 -8.874181812045249 10.417517779357468 -19.291699591402715 10.417517779357468
S 426.6742211545917 280.0623012634793 426.6742211545917 243.79390603164217
s 8.874181812045249 -10.417517779357468 19.291699591402715 -10.417517779357468
S 465.25762033739716 207.52551079980506 465.25762033739716 243.79390603164217
z" fill="none" stroke="none"></path>
<circle cx="0" cy="0" r="6.50991804190256" fill="#2aa7c9">
  <animateMotion begin="-7.601147832047152s" dur="10s" repeatCount="indefinite">
    <mpath xlink:href="#path8"></mpath>
  </animateMotion>
</circle><path id="path9" d="M 1091.5769832823405 130.78366760905027
c 0 33.14292451250291 -8.109438976463476 9.519776189761474 -17.62921516622495 9.519776189761474
S 1056.3185529498908 163.92659212155317 1056.3185529498908 130.78366760905027
s 8.109438976463476 -9.519776189761474 17.62921516622495 -9.519776189761474
S 1091.5769832823405 97.64074309654737 1091.5769832823405 130.78366760905027
z" fill="none" stroke="none"></path>
<circle cx="0" cy="0" r="7.988446073271672" fill="#f91a10">
  <animateMotion begin="-3.8077706172268777s" dur="10s" repeatCount="indefinite">
    <mpath xlink:href="#path9"></mpath>
  </animateMotion>
</circle><path id="path10" d="M 912.3650079291302 138.41659724659715
c 0 29.586579015188633 -7.239269333503601 8.498272695852055 -15.737542029355655 8.498272695852055
S 880.889923870419 168.00317626178577 880.889923870419 138.41659724659715
s 7.239269333503601 -8.498272695852055 15.737542029355655 -8.498272695852055
S 912.3650079291302 108.83001823140852 912.3650079291302 138.41659724659715
z" fill="none" stroke="none"></path>
<circle cx="0" cy="0" r="10.51624643176316" fill="#edb195">
  <animateMotion begin="-9.636611320434124s" dur="10s" repeatCount="indefinite">
    <mpath xlink:href="#path10"></mpath>
  </animateMotion>
</circle><path id="path11" d="M 1179.1194902230172 243.14774065581756
c 0 33.27443143420154 -8.141616201985483 9.557549454504699 -17.69916565649018 9.557549454504699
S 1143.721158910037 276.4221720900191 1143.721158910037 243.14774065581756
s 8.141616201985483 -9.557549454504699 17.69916565649018 -9.557549454504699
S 1179.1194902230172 209.873309221616 1179.1194902230172 243.14774065581756
z" fill="none" stroke="none"></path>
<circle cx="0" cy="0" r="7.0101412090331685" fill="#e46b43">
  <animateMotion begin="-7.966525903932009s" dur="10s" repeatCount="indefinite">
    <mpath xlink:href="#path11"></mpath>
  </animateMotion>
</circle><path id="path12" d="M 1087.5097427171625 459.0495615917751
c 0 31.43957051114241 -7.69266086974761 9.030514934051544 -16.72317580379915 9.030514934051544
S 1054.063391109564 490.4891321029175 1054.063391109564 459.0495615917751
s 7.69266086974761 -9.030514934051544 16.72317580379915 -9.030514934051544
S 1087.5097427171625 427.6099910806327 1087.5097427171625 459.0495615917751
z" fill="none" stroke="none"></path>
<circle cx="0" cy="0" r="6.4053251269406015" fill="#06628d">
  <animateMotion begin="-6.884535173711588s" dur="10s" repeatCount="indefinite">
    <mpath xlink:href="#path12"></mpath>
  </animateMotion>
</circle><path id="path13" d="M 704.2544346271989 286.88094453336674
c 0 24.60812533783378 -6.021137050746563 7.0682913204416185 -13.08942837118818 7.0682913204416185
S 678.0755778848225 311.4890698712005 678.0755778848225 286.88094453336674
s 6.021137050746563 -7.0682913204416185 13.08942837118818 -7.0682913204416185
S 704.2544346271989 262.272819195533 704.2544346271989 286.88094453336674
z" fill="none" stroke="none"></path>
<circle cx="0" cy="0" r="7.927359760215641" fill="#edb195">
  <animateMotion begin="-3.791830047387579s" dur="10s" repeatCount="indefinite">
    <mpath xlink:href="#path13"></mpath>
  </animateMotion>
</circle><path id="path14" d="M 587.8671023796861 280.5945949394713
c 0 24.53938318948182 -6.00431716338385 7.048546235276694 -13.052863398660543 7.048546235276694
S 561.7613755823651 305.1339781289531 561.7613755823651 280.5945949394713
s 6.00431716338385 -7.048546235276694 13.052863398660543 -7.048546235276694
S 587.8671023796861 256.05521174998944 587.8671023796861 280.5945949394713
z" fill="none" stroke="none"></path>
<circle cx="0" cy="0" r="6.6147972343119505" fill="#04284d">
  <animateMotion begin="-8.450373191045184s" dur="10s" repeatCount="indefinite">
    <mpath xlink:href="#path14"></mpath>
  </animateMotion>
</circle><path id="path15" d="M 390.0390197993654 219.65738212180204
c 0 26.261677252406567 -6.4257295404824575 7.54324772143593 -13.968977261918386 7.54324772143593
S 362.10106527552864 245.91905937420862 362.10106527552864 219.65738212180204
s 6.4257295404824575 -7.54324772143593 13.968977261918386 -7.54324772143593
S 390.0390197993654 193.39570486939547 390.0390197993654 219.65738212180204
z" fill="none" stroke="none"></path>
<circle cx="0" cy="0" r="7.169609448086427" fill="#e46b43">
  <animateMotion begin="-4.624774912445755s" dur="10s" repeatCount="indefinite">
    <mpath xlink:href="#path15"></mpath>
  </animateMotion>
</circle><path id="path16" d="M 621.2162599295216 359.88190429386924
c 0 20.870698428182823 -5.106660253704307 5.994775080435493 -11.1014353341398 5.994775080435493
S 599.0133892612421 380.7526027220521 599.0133892612421 359.88190429386924
s 5.106660253704307 -5.994775080435493 11.1014353341398 -5.994775080435493
S 621.2162599295216 339.0112058656864 621.2162599295216 359.88190429386924
z" fill="none" stroke="none"></path>
<circle cx="0" cy="0" r="9.851073243043931" fill="#04284d">
  <animateMotion begin="-0.675162027211953s" dur="10s" repeatCount="indefinite">
    <mpath xlink:href="#path16"></mpath>
  </animateMotion>
</circle><path id="path17" d="M 347.28746811905495 562.0027339480285
c 0 19.379274868866023 -4.741737467914026 5.566387462333858 -10.308124930247883 5.566387462333858
S 326.67121825855924 581.3820088168945 326.67121825855924 562.0027339480285
s 4.741737467914026 -5.566387462333858 10.308124930247883 -5.566387462333858
S 347.28746811905495 542.6234590791626 347.28746811905495 562.0027339480285
z" fill="none" stroke="none"></path>
<circle cx="0" cy="0" r="8.693138522974326" fill="#3c0f0f">
  <animateMotion begin="-8.871902642952726s" dur="10s" repeatCount="indefinite">
    <mpath xlink:href="#path17"></mpath>
  </animateMotion>
</circle><path id="path18" d="M 96.07292851715685 445.134272451979
c 0 23.27951878989717 -5.696052469868457 6.686670290715146 -12.382722760583603 6.686670290715146
S 71.30748299598964 468.41379124187614 71.30748299598964 445.134272451979
s 5.696052469868457 -6.686670290715146 12.382722760583603 -6.686670290715146
S 96.07292851715685 421.8547536620818 96.07292851715685 445.134272451979
z" fill="none" stroke="none"></path>
<circle cx="0" cy="0" r="11.598765048407461" fill="#06628d">
  <animateMotion begin="-3.092097665045479s" dur="10s" repeatCount="indefinite">
    <mpath xlink:href="#path18"></mpath>
  </animateMotion>
</circle><path id="path19" d="M 641.4673256735933 437.13216858011435
c 0 24.824528988516594 -6.074086880168953 7.130449815850511 -13.204536696019463 7.130449815850511
S 615.0582522815545 461.95669756863094 615.0582522815545 437.13216858011435
s 6.074086880168953 -7.130449815850511 13.204536696019463 -7.130449815850511
S 641.4673256735933 412.30763959159776 641.4673256735933 437.13216858011435
z" fill="none" stroke="none"></path>
<circle cx="0" cy="0" r="10.608292722643494" fill="#3c0f0f">
  <animateMotion begin="-4.9679586398917035s" dur="10s" repeatCount="indefinite">
    <mpath xlink:href="#path19"></mpath>
  </animateMotion>
</circle><path id="path20" d="M 854.3177613444152 141.59247313997764
c 0 22.38629767967648 -5.477498368431478 6.430106780332606 -11.907605148764084 6.430106780332606
S 830.502551046887 163.97877081965413 830.502551046887 141.59247313997764
s 5.477498368431478 -6.430106780332606 11.907605148764084 -6.430106780332606
S 854.3177613444152 119.20617546030115 854.3177613444152 141.59247313997764
z" fill="none" stroke="none"></path>
<circle cx="0" cy="0" r="8.709160018191115" fill="#e46b43">
  <animateMotion begin="-2.8675816760258632s" dur="10s" repeatCount="indefinite">
    <mpath xlink:href="#path20"></mpath>
  </animateMotion>
</circle><path id="path21" d="M 887.3586281091367 28.190096554072184
c 0 19.55934198615115 -4.785796443419962 5.618108868362564 -10.403905311782527 5.618108868362564
S 866.5508174855717 47.74943854022334 866.5508174855717 28.190096554072184
s 4.785796443419962 -5.618108868362564 10.403905311782527 -5.618108868362564
S 887.3586281091367 8.630754567921034 887.3586281091367 28.190096554072184
z" fill="none" stroke="none"></path>
<circle cx="0" cy="0" r="7.8948063025711095" fill="#f91a10">
  <animateMotion begin="-1.0578116679825533s" dur="10s" repeatCount="indefinite">
    <mpath xlink:href="#path21"></mpath>
  </animateMotion>
</circle><path id="path22" d="M 671.5788478272315 255.79245758166414
c 0 27.546250159085286 -6.740039932542143 7.912220790375561 -14.652260722917704 7.912220790375561
S 642.274326381396 283.33870774074944 642.274326381396 255.79245758166414
s 6.740039932542143 -7.912220790375561 14.652260722917704 -7.912220790375561
S 671.5788478272315 228.24620742257886 671.5788478272315 255.79245758166414
z" fill="none" stroke="none"></path>
<circle cx="0" cy="0" r="10.113326226346011" fill="#06628d">
  <animateMotion begin="-5.947006296943654s" dur="10s" repeatCount="indefinite">
    <mpath xlink:href="#path22"></mpath>
  </animateMotion>
</circle><path id="path23" d="M 730.2954499368955 374.2616513605524
c 0 31.11900702119466 -7.614225122207203 8.93843818693889 -16.552663309146094 8.93843818693889
S 697.1901233186034 405.380658381747 697.1901233186034 374.2616513605524
s 7.614225122207203 -8.93843818693889 16.552663309146094 -8.93843818693889
S 730.2954499368955 343.14264433935773 730.2954499368955 374.2616513605524
z" fill="none" stroke="none"></path>
<circle cx="0" cy="0" r="9.430468922684227" fill="#3c0f0f">
  <animateMotion begin="-7.669572750078764s" dur="10s" repeatCount="indefinite">
    <mpath xlink:href="#path23"></mpath>
  </animateMotion>
</circle><path id="path24" d="M 452.6503884335707 113.50800400652157
c 0 31.038423835332576 -7.594507959709034 8.91529195270191 -16.509799912410944 8.91529195270191
S 419.63078860874884 144.54642784185415 419.63078860874884 113.50800400652157
s 7.594507959709034 -8.91529195270191 16.509799912410944 -8.91529195270191
S 452.6503884335707 82.469580171189 452.6503884335707 113.50800400652157
z" fill="none" stroke="none"></path>
<circle cx="0" cy="0" r="6.763216156030139" fill="#04284d">
  <animateMotion begin="-4.431167878728795s" dur="10s" repeatCount="indefinite">
    <mpath xlink:href="#path24"></mpath>
  </animateMotion>
</circle><path id="path25" d="M 883.0466866856117 262.523170642013
c 0 21.09964255702583 -5.162678497995682 6.060535628081888 -11.22321412607757 6.060535628081888
S 860.6002584334566 283.62281319903883 860.6002584334566 262.523170642013
s 5.162678497995682 -6.060535628081888 11.22321412607757 -6.060535628081888
S 883.0466866856117 241.42352808498714 883.0466866856117 262.523170642013
z" fill="none" stroke="none"></path>
<circle cx="0" cy="0" r="11.749188915989588" fill="#04284d">
  <animateMotion begin="-6.13876135991833s" dur="10s" repeatCount="indefinite">
    <mpath xlink:href="#path25"></mpath>
  </animateMotion>
</circle><path id="path26" d="M 445.1432693838241 270.89572368212276
c 0 21.79416889829444 -5.332615794263533 6.260027236744148 -11.59264303100768 6.260027236744148
S 421.9579833218087 292.6898925804172 421.9579833218087 270.89572368212276
s 5.332615794263533 -6.260027236744148 11.59264303100768 -6.260027236744148
S 445.1432693838241 249.10155478382833 445.1432693838241 270.89572368212276
z" fill="none" stroke="none"></path>
<circle cx="0" cy="0" r="6.209673611555519" fill="#04284d">
  <animateMotion begin="-0.7208278115995959s" dur="10s" repeatCount="indefinite">
    <mpath xlink:href="#path26"></mpath>
  </animateMotion>
</circle><path id="path27" d="M 237.71120423524835 350.0701759108043
c 0 25.4738071292247 -6.232952808214553 7.31694460094752 -13.549897409162073 7.31694460094752
S 210.6114094169242 375.54398304002905 210.6114094169242 350.0701759108043
s 6.232952808214553 -7.31694460094752 13.549897409162073 -7.31694460094752
S 237.71120423524835 324.5963687815796 237.71120423524835 350.0701759108043
z" fill="none" stroke="none"></path>
<circle cx="0" cy="0" r="6.863381602525032" fill="#edb195">
  <animateMotion begin="-8.779595282046891s" dur="10s" repeatCount="indefinite">
    <mpath xlink:href="#path27"></mpath>
  </animateMotion>
</circle><path id="path28" d="M 371.6253661881363 62.14277652895098
c 0 31.769435223520254 -7.773372448308146 9.125263308883477 -16.898635757191624 9.125263308883477
S 337.828094673753 93.91221175247124 337.828094673753 62.14277652895098
s 7.773372448308146 -9.125263308883477 16.898635757191624 -9.125263308883477
S 371.6253661881363 30.373341305430728 371.6253661881363 62.14277652895098
z" fill="none" stroke="none"></path>
<circle cx="0" cy="0" r="11.554032895476306" fill="#f91a10">
  <animateMotion begin="-5.741681763584592s" dur="10s" repeatCount="indefinite">
    <mpath xlink:href="#path28"></mpath>
  </animateMotion>
</circle><path id="path29" d="M 1227.95264979542 477.8256148816721
c 0 37.19620631972333 -9.101199418655709 10.684016708856703 -19.78521612751241 10.684016708856703
S 1188.382217540395 515.0218212013954 1188.382217540395 477.8256148816721
s 9.101199418655709 -10.684016708856703 19.78521612751241 -10.684016708856703
S 1227.95264979542 440.62940856194876 1227.95264979542 477.8256148816721
z" fill="none" stroke="none"></path>
<circle cx="0" cy="0" r="11.780002691774978" fill="#2aa7c9">
  <animateMotion begin="-3.343653035788643s" dur="10s" repeatCount="indefinite">
    <mpath xlink:href="#path29"></mpath>
  </animateMotion>
</circle><path id="path30" d="M 905.4347464725666 276.05452122548047
c 0 22.54595404167898 -5.516563222964005 6.47596552260992 -11.992528745573924 6.47596552260992
S 881.4496889814187 298.6004752671594 881.4496889814187 276.05452122548047
s 5.516563222964005 -6.47596552260992 11.992528745573924 -6.47596552260992
S 905.4347464725666 253.5085671838015 905.4347464725666 276.05452122548047
z" fill="none" stroke="none"></path>
<circle cx="0" cy="0" r="6.860455009298851" fill="#3c0f0f">
  <animateMotion begin="-4.229650084425445s" dur="10s" repeatCount="indefinite">
    <mpath xlink:href="#path30"></mpath>
  </animateMotion>
</circle><path id="path31" d="M 1057.8383679085873 307.82124078799563
c 0 22.6042079273961 -5.5308168332990455 6.49269802169888 -12.023514854997925 6.49269802169888
S 1033.7913381985913 330.4254487153917 1033.7913381985913 307.82124078799563
s 5.5308168332990455 -6.49269802169888 12.023514854997925 -6.49269802169888
S 1057.8383679085873 285.21703286059955 1057.8383679085873 307.82124078799563
z" fill="none" stroke="none"></path>
<circle cx="0" cy="0" r="7.359295663427718" fill="#06628d">
  <animateMotion begin="-6.65120243193247s" dur="10s" repeatCount="indefinite">
    <mpath xlink:href="#path31"></mpath>
  </animateMotion>
</circle><path id="path32" d="M 1225.3549441520854 527.1726714290105
c 0 31.979511827141796 -7.824774170470864 9.185604460987538 -17.0103786314584 9.185604460987538
S 1191.3341868891684 559.1521832561523 1191.3341868891684 527.1726714290105
s 7.824774170470864 -9.185604460987538 17.0103786314584 -9.185604460987538
S 1225.3549441520854 495.19315960186873 1225.3549441520854 527.1726714290105
z" fill="none" stroke="none"></path>
<circle cx="0" cy="0" r="8.904458004752868" fill="#06628d">
  <animateMotion begin="-6.980669092910428s" dur="10s" repeatCount="indefinite">
    <mpath xlink:href="#path32"></mpath>
  </animateMotion>
</circle><path id="path33" d="M 739.1568183869364 341.7712765882916
c 0 27.041986419663846 -6.616656251619877 7.7673790779885525 -14.384035329608428 7.7673790779885525
S 710.3887477277195 368.8132630079554 710.3887477277195 341.7712765882916
s 6.616656251619877 -7.7673790779885525 14.384035329608428 -7.7673790779885525
S 739.1568183869364 314.72929016862776 739.1568183869364 341.7712765882916
z" fill="none" stroke="none"></path>
<circle cx="0" cy="0" r="11.86798639783077" fill="#06628d">
  <animateMotion begin="-7.622983192919131s" dur="10s" repeatCount="indefinite">
    <mpath xlink:href="#path33"></mpath>
  </animateMotion>
</circle><path id="path34" d="M 555.8478093364083 340.43379996564295
c 0 20.913533968770864 -5.117141290231168 6.007078905923547 -11.124220196154715 6.007078905923547
S 533.5993689440988 361.3473339344138 533.5993689440988 340.43379996564295
s 5.117141290231168 -6.007078905923547 11.124220196154715 -6.007078905923547
S 555.8478093364083 319.52026599687207 555.8478093364083 340.43379996564295
z" fill="none" stroke="none"></path>
<circle cx="0" cy="0" r="7.684311319318567" fill="#e46b43">
  <animateMotion begin="-0.4312157012505802s" dur="10s" repeatCount="indefinite">
    <mpath xlink:href="#path34"></mpath>
  </animateMotion>
</circle><path id="path35" d="M 656.3039386094115 246.7309754791446
c 0 37.36004571455503 -9.14128778122091 10.731076960563678 -19.87236474178459 10.731076960563678
S 616.5592091258422 284.09102119369965 616.5592091258422 246.7309754791446
s 9.14128778122091 -10.731076960563678 19.87236474178459 -10.731076960563678
S 656.3039386094115 209.37092976458956 656.3039386094115 246.7309754791446
z" fill="none" stroke="none"></path>
<circle cx="0" cy="0" r="10.130666959979592" fill="#2aa7c9">
  <animateMotion begin="-5.062449088947236s" dur="10s" repeatCount="indefinite">
    <mpath xlink:href="#path35"></mpath>
  </animateMotion>
</circle><path id="path36" d="M 613.9844532681503 544.7339856741393
c 0 33.96696675819668 -8.311066334452379 9.756469175226707 -18.067535509679086 9.756469175226707
S 577.8493822487923 578.700952432336 577.8493822487923 544.7339856741393
s 8.311066334452379 -9.756469175226707 18.067535509679086 -9.756469175226707
S 613.9844532681503 510.7670189159426 613.9844532681503 544.7339856741393
z" fill="none" stroke="none"></path>
<circle cx="0" cy="0" r="7.144210674668599" fill="#04284d">
  <animateMotion begin="-4.200560957270221s" dur="10s" repeatCount="indefinite">
    <mpath xlink:href="#path36"></mpath>
  </animateMotion>
</circle><path id="path37" d="M 522.5643546207042 402.8455263834554
c 0 27.494049903908806 -6.727267529679814 7.897227100058913 -14.624494629738727 7.897227100058913
S 493.3153653612267 430.33957628736425 493.3153653612267 402.8455263834554
s 6.727267529679814 -7.897227100058913 14.624494629738727 -7.897227100058913
S 522.5643546207042 375.3514764795466 522.5643546207042 402.8455263834554
z" fill="none" stroke="none"></path>
<circle cx="0" cy="0" r="10.716221742618943" fill="#04284d">
  <animateMotion begin="-9.313137802365256s" dur="10s" repeatCount="indefinite">
    <mpath xlink:href="#path37"></mpath>
  </animateMotion>
</circle><path id="path38" d="M 767.3824369450035 90.94790286851602
c 0 19.573040341436162 -4.789148168649272 5.622043502327408 -10.411191670976681 5.622043502327408
S 746.5600536030502 110.52094320995218 746.5600536030502 90.94790286851602
s 4.789148168649272 -5.622043502327408 10.411191670976681 -5.622043502327408
S 767.3824369450035 71.37486252707987 767.3824369450035 90.94790286851602
z" fill="none" stroke="none"></path>
<circle cx="0" cy="0" r="8.971627826025932" fill="#edb195">
  <animateMotion begin="-8.834791562714743s" dur="10s" repeatCount="indefinite">
    <mpath xlink:href="#path38"></mpath>
  </animateMotion>
</circle><path id="path39" d="M 288.34316908635816 175.54067600233532
c 0 24.037261365770135 -5.881457568220352 6.904319753997806 -12.785777322218157 6.904319753997806
S 262.7716144419218 199.57793736810544 262.7716144419218 175.54067600233532
s 5.881457568220352 -6.904319753997806 12.785777322218157 -6.904319753997806
S 288.34316908635816 151.5034146365652 288.34316908635816 175.54067600233532
z" fill="none" stroke="none"></path>
<circle cx="0" cy="0" r="6.267171967030553" fill="#3c0f0f">
  <animateMotion begin="-1.9065944001376445s" dur="10s" repeatCount="indefinite">
    <mpath xlink:href="#path39"></mpath>
  </animateMotion>
</circle><path id="path40" d="M 981.6192303933211 51.88026695131961
c 0 25.93473671925185 -6.3457334525828974 7.449339270423403 -13.795072723006301 7.449339270423403
S 954.0290849473084 77.81500367057146 954.0290849473084 51.88026695131961
s 6.3457334525828974 -7.449339270423403 13.795072723006301 -7.449339270423403
S 981.6192303933211 25.945530232067764 981.6192303933211 51.88026695131961
z" fill="none" stroke="none"></path>
<circle cx="0" cy="0" r="6.974349612303573" fill="#f91a10">
  <animateMotion begin="-6.004581823687765s" dur="10s" repeatCount="indefinite">
    <mpath xlink:href="#path40"></mpath>
  </animateMotion>
</circle><path id="path41" d="M 736.9070101497255 563.7674883388712
c 0 21.830217398360233 -5.341436171939206 6.270381593146025 -11.611817765085231 6.270381593146025
S 713.683374619555 585.5977057372314 713.683374619555 563.7674883388712
s 5.341436171939206 -6.270381593146025 11.611817765085231 -6.270381593146025
S 736.9070101497255 541.937270940511 736.9070101497255 563.7674883388712
z" fill="none" stroke="none"></path>
<circle cx="0" cy="0" r="7.675287285906483" fill="#2aa7c9">
  <animateMotion begin="-0.5996255906559522s" dur="10s" repeatCount="indefinite">
    <mpath xlink:href="#path41"></mpath>
  </animateMotion>
</circle><path id="path42" d="M 362.79868447643406 336.6069915051842
c 0 26.188486202171415 -6.407821092020665 7.522224760198172 -13.930045852218838 7.522224760198172
S 334.9385927719964 362.79547770735564 334.9385927719964 336.6069915051842
s 6.407821092020665 -7.522224760198172 13.930045852218838 -7.522224760198172
S 362.79868447643406 310.4185053030128 362.79868447643406 336.6069915051842
z" fill="none" stroke="none"></path>
<circle cx="0" cy="0" r="11.387742764739986" fill="#06628d">
  <animateMotion begin="-7.168664190432141s" dur="10s" repeatCount="indefinite">
    <mpath xlink:href="#path42"></mpath>
  </animateMotion>
</circle><path id="path43" d="M 344.40329012545465 136.11345186364994
c 0 33.67731704739991 -8.240194596704233 9.673271917870188 -17.91346651457442 9.673271917870188
S 308.57635709630586 169.79076891104984 308.57635709630586 136.11345186364994
s 8.240194596704233 -9.673271917870188 17.91346651457442 -9.673271917870188
S 344.40329012545465 102.43613481625003 344.40329012545465 136.11345186364994
z" fill="none" stroke="none"></path>
<circle cx="0" cy="0" r="9.679880805859025" fill="#2aa7c9">
  <animateMotion begin="-5.527570195584839s" dur="10s" repeatCount="indefinite">
    <mpath xlink:href="#path43"></mpath>
  </animateMotion>
</circle><path id="path44" d="M 509.5223883183636 437.3180796183682
c 0 33.05269914156641 -8.087362555915183 9.493860391726521 -17.581222947641702 9.493860391726521
S 474.35994242308016 470.3707787599346 474.35994242308016 437.3180796183682
s 8.087362555915183 -9.493860391726521 17.581222947641702 -9.493860391726521
S 509.5223883183636 404.2653804768018 509.5223883183636 437.3180796183682
z" fill="none" stroke="none"></path>
<circle cx="0" cy="0" r="9.822726464326566" fill="#04284d">
  <animateMotion begin="-5.447951753130762s" dur="10s" repeatCount="indefinite">
    <mpath xlink:href="#path44"></mpath>
  </animateMotion>
</circle><path id="path45" d="M 823.6520803656917 31.62500955829883
c 0 31.979080901903117 -7.824668731316719 9.185480684589194 -17.010149415905914 9.185480684589194
S 789.6317815338798 63.604090460201945 789.6317815338798 31.62500955829883
s 7.824668731316719 -9.185480684589194 17.010149415905914 -9.185480684589194
S 823.6520803656917 -0.3540713436042857 823.6520803656917 31.62500955829883
z" fill="none" stroke="none"></path>
<circle cx="0" cy="0" r="6.965456568066493" fill="#edb195">
  <animateMotion begin="-7.40847121512167s" dur="10s" repeatCount="indefinite">
    <mpath xlink:href="#path45"></mpath>
  </animateMotion>
</circle><path id="path46" d="M 823.7384800544 342.838226802667
c 0 21.452286013007477 -5.248963598927361 6.161826833523425 -11.410790432450785 6.161826833523425
S 800.9168991894985 364.2905128156745 800.9168991894985 342.838226802667
s 5.248963598927361 -6.161826833523425 11.410790432450785 -6.161826833523425
S 823.7384800544 321.3859407896595 823.7384800544 342.838226802667
z" fill="none" stroke="none"></path>
<circle cx="0" cy="0" r="10.607504975283256" fill="#edb195">
  <animateMotion begin="-5.9950657753558545s" dur="10s" repeatCount="indefinite">
    <mpath xlink:href="#path46"></mpath>
  </animateMotion>
</circle><path id="path47" d="M 608.4477484701783 362.11412041882903
c 0 30.34696482719446 -7.425321181122047 8.716681386534578 -16.142002567656625 8.716681386534578
S 576.1637433348651 392.4610852460235 576.1637433348651 362.11412041882903
s 7.425321181122047 -8.716681386534578 16.142002567656625 -8.716681386534578
S 608.4477484701783 331.76715559163455 608.4477484701783 362.11412041882903
z" fill="none" stroke="none"></path>
<circle cx="0" cy="0" r="8.626797535751507" fill="#edb195">
  <animateMotion begin="-8.648132336762833s" dur="10s" repeatCount="indefinite">
    <mpath xlink:href="#path47"></mpath>
  </animateMotion>
</circle><path id="path48" d="M 961.1743376445082 57.40414847131706
c 0 32.34310703076541 -7.913738954336217 9.2900413811773 -17.203780335513517 9.2900413811773
S 926.7667769734811 89.74725550208247 926.7667769734811 57.40414847131706
s 7.913738954336217 -9.2900413811773 17.203780335513517 -9.2900413811773
S 961.1743376445082 25.061041440551648 961.1743376445082 57.40414847131706
z" fill="none" stroke="none"></path>
<circle cx="0" cy="0" r="7.811505049973127" fill="#f91a10">
  <animateMotion begin="-4.700672421125731s" dur="10s" repeatCount="indefinite">
    <mpath xlink:href="#path48"></mpath>
  </animateMotion>
</circle><path id="path49" d="M 427.2998070331731 407.74619410939454
c 0 20.577724986727503 -5.03497526270992 5.91062313448556 -10.945598397195479 5.91062313448556
S 405.4086102387822 428.32391909612204 405.4086102387822 407.74619410939454
s 5.03497526270992 -5.91062313448556 10.945598397195479 -5.91062313448556
S 427.2998070331731 387.16846912266703 427.2998070331731 407.74619410939454
z" fill="none" stroke="none"></path>
<circle cx="0" cy="0" r="8.635670831332666" fill="#edb195">
  <animateMotion begin="-9.955374147513039s" dur="10s" repeatCount="indefinite">
    <mpath xlink:href="#path49"></mpath>
  </animateMotion>
</circle><path id="path50" d="M 465.36238069157764 442.59531958330905
c 0 32.22009535698469 -7.883640353304766 9.25470824083603 -17.138348594140794 9.25470824083603
S 431.0856835032961 474.81541494029375 431.0856835032961 442.59531958330905
s 7.883640353304766 -9.25470824083603 17.138348594140794 -9.25470824083603
S 465.36238069157764 410.37522422632435 465.36238069157764 442.59531958330905
z" fill="none" stroke="none"></path>
<circle cx="0" cy="0" r="8.816120567116563" fill="#06628d">
  <animateMotion begin="-7.24679605843326s" dur="10s" repeatCount="indefinite">
    <mpath xlink:href="#path50"></mpath>
  </animateMotion>
</circle><path id="path51" d="M 1060.6459691640264 173.81163539498934
c 0 34.34863850323794 -8.404454101856091 9.866098293483239 -18.27055239533933 9.866098293483239
S 1024.1048643733477 208.16027389822727 1024.1048643733477 173.81163539498934
s 8.404454101856091 -9.866098293483239 18.27055239533933 -9.866098293483239
S 1060.6459691640264 139.4629968917514 1060.6459691640264 173.81163539498934
z" fill="none" stroke="none"></path>
<circle cx="0" cy="0" r="10.481985416133785" fill="#f91a10">
  <animateMotion begin="-6.618775359789703s" dur="10s" repeatCount="indefinite">
    <mpath xlink:href="#path51"></mpath>
  </animateMotion>
</circle><path id="path52" d="M 145.8783305516915 134.07997650847204
c 0 28.91150020706261 -7.07409047619617 8.304367080752026 -15.378457556948195 8.304367080752026
S 115.12141543779511 162.99147671553465 115.12141543779511 134.07997650847204
s 7.07409047619617 -8.304367080752026 15.378457556948195 -8.304367080752026
S 145.8783305516915 105.16847630140944 145.8783305516915 134.07997650847204
z" fill="none" stroke="none"></path>
<circle cx="0" cy="0" r="9.051497769499418" fill="#3c0f0f">
  <animateMotion begin="-7.374690306216576s" dur="10s" repeatCount="indefinite">
    <mpath xlink:href="#path52"></mpath>
  </animateMotion>
</circle><path id="path53" d="M 35.193639582331286 420.8424458909177
c 0 35.98470524074731 -8.804768303587107 10.336032356384866 -19.140800659971973 10.336032356384866
S -3.0879617376126554 456.827151131665 -3.0879617376126554 420.8424458909177
s 8.804768303587107 -10.336032356384866 19.140800659971973 -10.336032356384866
S 35.193639582331286 384.8577406501704 35.193639582331286 420.8424458909177
z" fill="none" stroke="none"></path>
<circle cx="0" cy="0" r="8.55236069953191" fill="#edb195">
  <animateMotion begin="-7.85840564222418s" dur="10s" repeatCount="indefinite">
    <mpath xlink:href="#path53"></mpath>
  </animateMotion>
</circle><path id="path54" d="M 1173.0709461395538 413.8807595098736
c 0 19.81823303875011 -4.849142126502686 5.692471191981416 -10.541613318484103 5.692471191981416
S 1151.9877195025858 433.6989925486237 1151.9877195025858 413.8807595098736
s 4.849142126502686 -5.692471191981416 10.541613318484103 -5.692471191981416
S 1173.0709461395538 394.0625264711235 1173.0709461395538 413.8807595098736
z" fill="none" stroke="none"></path>
<circle cx="0" cy="0" r="9.834992543534405" fill="#edb195">
  <animateMotion begin="-3.552144796658796s" dur="10s" repeatCount="indefinite">
    <mpath xlink:href="#path54"></mpath>
  </animateMotion>
</circle><path id="path55" d="M 162.56707921944843 387.8722093759677
c 0 31.094744431952538 -7.608288531222429 8.93146914534807 -16.5397576765705 8.93146914534807
S 129.48756386630743 418.9669538079203 129.48756386630743 387.8722093759677
s 7.608288531222429 -8.93146914534807 16.5397576765705 -8.93146914534807
S 162.56707921944843 356.77746494401515 162.56707921944843 387.8722093759677
z" fill="none" stroke="none"></path>
<circle cx="0" cy="0" r="7.470749824254241" fill="#f91a10">
  <animateMotion begin="-7.893527132142459s" dur="10s" repeatCount="indefinite">
    <mpath xlink:href="#path55"></mpath>
  </animateMotion>
</circle><path id="path56" d="M 464.6832419762085 428.87491144826305
c 0 37.261791696009425 -9.11724690434273 10.70285506161973 -19.82010196596246 10.70285506161973
S 425.04303804428355 466.1367031442725 425.04303804428355 428.87491144826305
s 9.11724690434273 -10.70285506161973 19.82010196596246 -10.70285506161973
S 464.6832419762085 391.6131197522536 464.6832419762085 428.87491144826305
z" fill="none" stroke="none"></path>
<circle cx="0" cy="0" r="10.186441282881654" fill="#04284d">
  <animateMotion begin="-9.88202583751875s" dur="10s" repeatCount="indefinite">
    <mpath xlink:href="#path56"></mpath>
  </animateMotion>
</circle><path id="path57" d="M 954.1558460176128 434.9267737798482
c 0 31.24305190524008 -7.64457653000555 8.9740681004413 -16.618644630446852 8.9740681004413
S 920.9185567567191 466.16982568508826 920.9185567567191 434.9267737798482
s 7.64457653000555 -8.9740681004413 16.618644630446852 -8.9740681004413
S 954.1558460176128 403.6837218746081 954.1558460176128 434.9267737798482
z" fill="none" stroke="none"></path>
<circle cx="0" cy="0" r="8.311445796739122" fill="#04284d">
  <animateMotion begin="-8.208434363210174s" dur="10s" repeatCount="indefinite">
    <mpath xlink:href="#path57"></mpath>
  </animateMotion>
</circle><path id="path58" d="M 474.5426650490771 420.4441945086875
c 0 20.286128393058803 -4.963627160003749 5.826866666091358 -10.790493826095107 5.826866666091358
S 452.9616773968869 440.73032290174626 452.9616773968869 420.4441945086875
s 4.963627160003749 -5.826866666091358 10.790493826095107 -5.826866666091358
S 474.5426650490771 400.1580661156287 474.5426650490771 420.4441945086875
z" fill="none" stroke="none"></path>
<circle cx="0" cy="0" r="10.013750550233501" fill="#06628d">
  <animateMotion begin="-5.545475969982789s" dur="10s" repeatCount="indefinite">
    <mpath xlink:href="#path58"></mpath>
  </animateMotion>
</circle><path id="path59" d="M 1109.741118012909 313.7201702621389
c 0 36.5278590951153 -8.937667650932466 10.492044633703332 -19.429712284635798 10.492044633703332
S 1070.8816934436375 350.24802935725415 1070.8816934436375 313.7201702621389
s 8.937667650932466 -10.492044633703332 19.429712284635798 -10.492044633703332
S 1109.741118012909 277.1923111670236 1109.741118012909 313.7201702621389
z" fill="none" stroke="none"></path>
<circle cx="0" cy="0" r="8.896740493096413" fill="#f91a10">
  <animateMotion begin="-1.6449552416576396s" dur="10s" repeatCount="indefinite">
    <mpath xlink:href="#path59"></mpath>
  </animateMotion>
</circle><path id="path60" d="M 365.49936246719676 507.9914961431056
c 0 30.741791520973347 -7.5219277125785835 8.8300890538966 -16.352016766475185 8.8300890538966
S 332.7953289342464 538.733287664079 332.7953289342464 507.9914961431056
s 7.5219277125785835 -8.8300890538966 16.352016766475185 -8.8300890538966
S 365.49936246719676 477.2497046221323 365.49936246719676 507.9914961431056
z" fill="none" stroke="none"></path>
<circle cx="0" cy="0" r="8.230375910032592" fill="#f91a10">
  <animateMotion begin="-3.0239569036025205s" dur="10s" repeatCount="indefinite">
    <mpath xlink:href="#path60"></mpath>
  </animateMotion>
</circle><path id="path61" d="M 1102.8945180873402 561.4099113078595
c 0 37.12482392393896 -9.083733513304212 10.663513254748425 -19.747246768052637 10.663513254748425
S 1063.4000245512348 598.5347352317984 1063.4000245512348 561.4099113078595
s 9.083733513304212 -10.663513254748425 19.747246768052637 -10.663513254748425
S 1102.8945180873402 524.2850873839205 1102.8945180873402 561.4099113078595
z" fill="none" stroke="none"></path>
<circle cx="0" cy="0" r="11.170164798046061" fill="#edb195">
  <animateMotion begin="-7.063077201942747s" dur="10s" repeatCount="indefinite">
    <mpath xlink:href="#path61"></mpath>
  </animateMotion>
</circle><path id="path62" d="M 811.5462442180198 192.99243369491938
c 0 19.68140159502873 -4.815662092400647 5.653168543252934 -10.468830635653582 5.653168543252934
S 790.6085829467125 212.6738352899481 790.6085829467125 192.99243369491938
s 4.815662092400647 -5.653168543252934 10.468830635653582 -5.653168543252934
S 811.5462442180198 173.31103209989067 811.5462442180198 192.99243369491938
z" fill="none" stroke="none"></path>
<circle cx="0" cy="0" r="10.133229185469862" fill="#06628d">
  <animateMotion begin="-4.77206651137573s" dur="10s" repeatCount="indefinite">
    <mpath xlink:href="#path62"></mpath>
  </animateMotion>
</circle><path id="path63" d="M 658.3491511152804 503.81416441991917
c 0 28.298045525368565 -6.92398986259018 8.128162012605864 -15.052151875196046 8.128162012605864
S 628.2448473648883 532.1122099452878 628.2448473648883 503.81416441991917
s 6.92398986259018 -8.128162012605864 15.052151875196046 -8.128162012605864
S 658.3491511152804 475.5161188945506 658.3491511152804 503.81416441991917
z" fill="none" stroke="none"></path>
<circle cx="0" cy="0" r="7.334419656368835" fill="#3c0f0f">
  <animateMotion begin="-7.1665297905205065s" dur="10s" repeatCount="indefinite">
    <mpath xlink:href="#path63"></mpath>
  </animateMotion>
</circle><path id="path64" d="M 910.7887060042974 493.97823878997156
c 0 27.765280759870397 -6.793632526351267 7.975133835281923 -14.76876636163319 7.975133835281923
S 881.251173281031 521.743519549842 881.251173281031 493.97823878997156
s 6.793632526351267 -7.975133835281923 14.76876636163319 -7.975133835281923
S 910.7887060042974 466.21295803010116 910.7887060042974 493.97823878997156
z" fill="none" stroke="none"></path>
<circle cx="0" cy="0" r="11.127546978251644" fill="#3c0f0f">
  <animateMotion begin="-3.381063008904699s" dur="10s" repeatCount="indefinite">
    <mpath xlink:href="#path64"></mpath>
  </animateMotion>
</circle><path id="path65" d="M 725.0413207353516 469.4882796035737
c 0 34.06096345034436 -8.334065525084258 9.783468225098913 -18.11753375018317 9.783468225098913
S 688.8062532349853 503.5492430539181 688.8062532349853 469.4882796035737
s 8.334065525084258 -9.783468225098913 18.11753375018317 -9.783468225098913
S 725.0413207353516 435.4273161532293 725.0413207353516 469.4882796035737
z" fill="none" stroke="none"></path>
<circle cx="0" cy="0" r="8.709250016081588" fill="#f91a10">
  <animateMotion begin="-2.2442108205631617s" dur="10s" repeatCount="indefinite">
    <mpath xlink:href="#path65"></mpath>
  </animateMotion>
</circle><path id="path66" d="M 966.1941976482067 472.57543556635085
c 0 19.59130025143258 -4.793616018967545 5.627288370092336 -10.420904389059881 5.627288370092336
S 945.352388870087 492.16673581778343 945.352388870087 472.57543556635085
s 4.793616018967545 -5.627288370092336 10.420904389059881 -5.627288370092336
S 966.1941976482067 452.98413531491826 966.1941976482067 472.57543556635085
z" fill="none" stroke="none"></path>
<circle cx="0" cy="0" r="10.207136621670927" fill="#3c0f0f">
  <animateMotion begin="-2.3447706399473267s" dur="10s" repeatCount="indefinite">
    <mpath xlink:href="#path66"></mpath>
  </animateMotion>
</circle><path id="path67" d="M 1273.8432931377874 407.78115173709205
c 0 21.709824213388565 -5.311978264978053 6.235800571930758 -11.547778836908812 6.235800571930758
S 1250.74773546397 429.4909759504806 1250.74773546397 407.78115173709205
s 5.311978264978053 -6.235800571930758 11.547778836908812 -6.235800571930758
S 1273.8432931377874 386.0713275237035 1273.8432931377874 407.78115173709205
z" fill="none" stroke="none"></path>
<circle cx="0" cy="0" r="11.327548692003267" fill="#04284d">
  <animateMotion begin="-1.9586374058594158s" dur="10s" repeatCount="indefinite">
    <mpath xlink:href="#path67"></mpath>
  </animateMotion>
</circle><path id="path68" d="M 394.10459415850175 311.1657380378842
c 0 27.67145536163404 -6.770675248059392 7.948183986852331 -14.718859234911722 7.948183986852331
S 364.66687568867826 338.83719339951824 364.66687568867826 311.1657380378842
s 6.770675248059392 -7.948183986852331 14.718859234911722 -7.948183986852331
S 394.10459415850175 283.4942826762501 394.10459415850175 311.1657380378842
z" fill="none" stroke="none"></path>
<circle cx="0" cy="0" r="10.851476676552114" fill="#edb195">
  <animateMotion begin="-1.2189803915445707s" dur="10s" repeatCount="indefinite">
    <mpath xlink:href="#path68"></mpath>
  </animateMotion>
</circle><path id="path69" d="M 885.9398977163349 114.05759651418695
c 0 32.40121186574186 -7.9279560948091765 9.30673106781947 -17.234687162628646 9.30673106781947
S 851.4705233910776 146.45880837992883 851.4705233910776 114.05759651418695
s 7.9279560948091765 -9.30673106781947 17.234687162628646 -9.30673106781947
S 885.9398977163349 81.6563846484451 885.9398977163349 114.05759651418695
z" fill="none" stroke="none"></path>
<circle cx="0" cy="0" r="9.728735827696251" fill="#edb195">
  <animateMotion begin="-2.8403065064638278s" dur="10s" repeatCount="indefinite">
    <mpath xlink:href="#path69"></mpath>
  </animateMotion>
</circle><path id="path70" d="M 904.3175462785564 18.28018273547294
c 0 36.41165368070091 -8.909234411235326 10.458666482754516 -19.36790089398984 10.458666482754516
S 865.5817444905767 54.69183641617385 865.5817444905767 18.28018273547294
s 8.909234411235326 -10.458666482754516 19.36790089398984 -10.458666482754516
S 904.3175462785564 -18.131470945227967 904.3175462785564 18.28018273547294
z" fill="none" stroke="none"></path>
<circle cx="0" cy="0" r="10.240489154159091" fill="#f91a10">
  <animateMotion begin="-0.8440645408818903s" dur="10s" repeatCount="indefinite">
    <mpath xlink:href="#path70"></mpath>
  </animateMotion>
</circle><path id="path71" d="M 1254.4332766211362 561.0782592244022
c 0 34.679307909886006 -8.485362573695513 9.961077803903429 -18.44644037759894 9.961077803903429
S 1217.5403958659383 595.7575671342883 1217.5403958659383 561.0782592244022
s 8.485362573695513 -9.961077803903429 18.44644037759894 -9.961077803903429
S 1254.4332766211362 526.3989513145162 1254.4332766211362 561.0782592244022
z" fill="none" stroke="none"></path>
<circle cx="0" cy="0" r="10.51714325989447" fill="#2aa7c9">
  <animateMotion begin="-8.074483641186102s" dur="10s" repeatCount="indefinite">
    <mpath xlink:href="#path71"></mpath>
  </animateMotion>
</circle><path id="path72" d="M 88.65085484361896 175.6711315389627
c 0 21.988792353473478 -5.380236426913722 6.315929718550892 -11.696166145464614 6.315929718550892
S 65.25852255268973 197.65992389243618 65.25852255268973 175.6711315389627
s 5.380236426913722 -6.315929718550892 11.696166145464614 -6.315929718550892
S 88.65085484361896 153.6823391854892 88.65085484361896 175.6711315389627
z" fill="none" stroke="none"></path>
<circle cx="0" cy="0" r="7.63973249559366" fill="#edb195">
  <animateMotion begin="-1.213580789842943s" dur="10s" repeatCount="indefinite">
    <mpath xlink:href="#path72"></mpath>
  </animateMotion>
</circle><path id="path73" d="M 1268.4783086332307 39.40064364065932
c 0 29.834275377229 -7.299875890173053 8.569419523246628 -15.869295413419682 8.569419523246628
S 1236.7397178063914 69.23491901788832 1236.7397178063914 39.40064364065932
s 7.299875890173053 -8.569419523246628 15.869295413419682 -8.569419523246628
S 1268.4783086332307 9.566368263430316 1268.4783086332307 39.40064364065932
z" fill="none" stroke="none"></path>
<circle cx="0" cy="0" r="8.976123455219778" fill="#f91a10">
  <animateMotion begin="-4.916878399443165s" dur="10s" repeatCount="indefinite">
    <mpath xlink:href="#path73"></mpath>
  </animateMotion>
</circle><path id="path74" d="M 951.2723016529045 142.07530394296484
c 0 28.698574687276974 -7.021991678801812 8.24320762294126 -15.26519930174307 8.24320762294126
S 920.7419030494183 170.77387863024182 920.7419030494183 142.07530394296484
s 7.021991678801812 -8.24320762294126 15.26519930174307 -8.24320762294126
S 951.2723016529045 113.37672925568786 951.2723016529045 142.07530394296484
z" fill="none" stroke="none"></path>
<circle cx="0" cy="0" r="11.94450427110583" fill="#3c0f0f">
  <animateMotion begin="-7.802501026400421s" dur="10s" repeatCount="indefinite">
    <mpath xlink:href="#path74"></mpath>
  </animateMotion>
</circle><path id="path75" d="M 79.86818595019415 386.0308153882945
c 0 23.072898275268713 -5.645496386501918 6.627321845023992 -12.27281823152591 6.627321845023992
S 55.32254948714233 409.1037136635632 55.32254948714233 386.0308153882945
s 5.645496386501918 -6.627321845023992 12.27281823152591 -6.627321845023992
S 79.86818595019415 362.9579171130258 79.86818595019415 386.0308153882945
z" fill="none" stroke="none"></path>
<circle cx="0" cy="0" r="9.771648050887118" fill="#04284d">
  <animateMotion begin="-7.966001527049942s" dur="10s" repeatCount="indefinite">
    <mpath xlink:href="#path75"></mpath>
  </animateMotion>
</circle><path id="path76" d="M 375.67020858829056 320.23265677215994
c 0 21.587669806041685 -5.282089420627219 6.200713667692824 -11.482803088320043 6.200713667692824
S 352.70460241165046 341.8203265782016 352.70460241165046 320.23265677215994
s 5.282089420627219 -6.200713667692824 11.482803088320043 -6.200713667692824
S 375.67020858829056 298.64498696611827 375.67020858829056 320.23265677215994
z" fill="none" stroke="none"></path>
<circle cx="0" cy="0" r="7.512726248689944" fill="#2aa7c9">
  <animateMotion begin="-9.49262641768348s" dur="10s" repeatCount="indefinite">
    <mpath xlink:href="#path76"></mpath>
  </animateMotion>
</circle><path id="path77" d="M 683.8791910963308 287.01739195131097
c 0 28.67992638591079 -7.01742879655264 8.2378511959531 -15.25527999250574 8.2378511959531
S 653.3686311113194 315.69731833722176 653.3686311113194 287.01739195131097
s 7.01742879655264 -8.2378511959531 15.25527999250574 -8.2378511959531
S 683.8791910963308 258.3374655654002 683.8791910963308 287.01739195131097
z" fill="none" stroke="none"></path>
<circle cx="0" cy="0" r="8.281131463696614" fill="#e46b43">
  <animateMotion begin="-6.7171529828566445s" dur="10s" repeatCount="indefinite">
    <mpath xlink:href="#path77"></mpath>
  </animateMotion>
</circle><path id="path78" d="M 1043.8750428255316 255.3667904891141
c 0 22.327546795739863 -5.463123152149115 6.413231526435918 -11.876354678585033 6.413231526435918
S 1020.1223334683615 277.694337284854 1020.1223334683615 255.3667904891141
s 5.463123152149115 -6.413231526435918 11.876354678585033 -6.413231526435918
S 1043.8750428255316 233.03924369337423 1043.8750428255316 255.3667904891141
z" fill="none" stroke="none"></path>
<circle cx="0" cy="0" r="9.604227460462567" fill="#f91a10">
  <animateMotion begin="-4.091475950176482s" dur="10s" repeatCount="indefinite">
    <mpath xlink:href="#path78"></mpath>
  </animateMotion>
</circle><path id="path79" d="M 793.0492648329015 389.6842344486385
c 0 35.54227577596786 -8.696514285609156 10.20895155267162 -18.905465838280776 10.20895155267162
S 755.23833315634 425.2265102246064 755.23833315634 389.6842344486385
s 8.696514285609156 -10.20895155267162 18.905465838280776 -10.20895155267162
S 793.0492648329015 354.1419586726706 793.0492648329015 389.6842344486385
z" fill="none" stroke="none"></path>
<circle cx="0" cy="0" r="8.973116010602446" fill="#e46b43">
  <animateMotion begin="-7.008143081774003s" dur="10s" repeatCount="indefinite">
    <mpath xlink:href="#path79"></mpath>
  </animateMotion>
</circle><path id="path80" d="M 64.64971057310836 505.0413913530593
c 0 32.76409441864918 -8.016746506690755 9.410963290463062 -17.427709797153817 9.410963290463062
S 29.79429097880074 537.8054857717085 29.79429097880074 505.0413913530593
s 8.016746506690755 -9.410963290463062 17.427709797153817 -9.410963290463062
S 64.64971057310836 472.2772969344101 64.64971057310836 505.0413913530593
z" fill="none" stroke="none"></path>
<circle cx="0" cy="0" r="7.3240983903616765" fill="#06628d">
  <animateMotion begin="-8.849702123579233s" dur="10s" repeatCount="indefinite">
    <mpath xlink:href="#path80"></mpath>
  </animateMotion>
</circle><path id="path81" d="M 1111.5869324064424 273.4999946460111
c 0 34.97402082961325 -8.557473181713881 10.04572938722934 -18.60320256894322 10.04572938722934
S 1074.3805272685559 308.47401547562436 1074.3805272685559 273.4999946460111
s 8.557473181713881 -10.04572938722934 18.60320256894322 -10.04572938722934
S 1111.5869324064424 238.52597381639782 1111.5869324064424 273.4999946460111
z" fill="none" stroke="none"></path>
<circle cx="0" cy="0" r="10.9814955977886" fill="#04284d">
  <animateMotion begin="-2.719995898595984s" dur="10s" repeatCount="indefinite">
    <mpath xlink:href="#path81"></mpath>
  </animateMotion>
</circle><path id="path82" d="M 974.9263581395909 229.11995282896652
c 0 29.12996986761749 -7.127545818672364 8.367119004528428 -15.494664823200793 8.367119004528428
S 943.9370284931894 258.249922696584 943.9370284931894 229.11995282896652
s 7.127545818672364 -8.367119004528428 15.494664823200793 -8.367119004528428
S 974.9263581395909 199.98998296134903 974.9263581395909 229.11995282896652
z" fill="none" stroke="none"></path>
<circle cx="0" cy="0" r="11.167151197149263" fill="#04284d">
  <animateMotion begin="-5.942366401815273s" dur="10s" repeatCount="indefinite">
    <mpath xlink:href="#path82"></mpath>
  </animateMotion>
</circle><path id="path83" d="M 498.093856951612 504.9153270795564
c 0 20.40457777061927 -4.992609454513225 5.86088935964596 -10.853498814159186 5.86088935964596
S 476.3868593232936 525.3199048501757 476.3868593232936 504.9153270795564
s 4.992609454513225 -5.86088935964596 10.853498814159186 -5.86088935964596
S 498.093856951612 484.51074930893714 498.093856951612 504.9153270795564
z" fill="none" stroke="none"></path>
<circle cx="0" cy="0" r="7.9383953714666955" fill="#2aa7c9">
  <animateMotion begin="-0.21120277574979918s" dur="10s" repeatCount="indefinite">
    <mpath xlink:href="#path83"></mpath>
  </animateMotion>
</circle><path id="path84" d="M 142.49729757209818 214.10407965154158
c 0 33.752028245369374 -8.258474996207399 9.694731517286948 -17.953206513494347 9.694731517286948
S 106.59088454510947 247.85610789691094 106.59088454510947 214.10407965154158
s 8.258474996207399 -9.694731517286948 17.953206513494347 -9.694731517286948
S 142.49729757209818 180.35205140617222 142.49729757209818 214.10407965154158
z" fill="none" stroke="none"></path>
<circle cx="0" cy="0" r="11.992638075135158" fill="#06628d">
  <animateMotion begin="-2.1184462084386935s" dur="10s" repeatCount="indefinite">
    <mpath xlink:href="#path84"></mpath>
  </animateMotion>
</circle><path id="path85" d="M 1271.9224774081385 231.59416116415187
c 0 22.108303510491748 -5.409478518524576 6.35025739131146 -11.759735909836035 6.35025739131146
S 1248.4030055884664 253.7024646746436 1248.4030055884664 231.59416116415187
s 5.409478518524576 -6.35025739131146 11.759735909836035 -6.35025739131146
S 1271.9224774081385 209.48585765366013 1271.9224774081385 231.59416116415187
z" fill="none" stroke="none"></path>
<circle cx="0" cy="0" r="10.880971524283236" fill="#edb195">
  <animateMotion begin="-8.16029703821181s" dur="10s" repeatCount="indefinite">
    <mpath xlink:href="#path85"></mpath>
  </animateMotion>
</circle><path id="path86" d="M 1229.6916207376507 484.1928277368587
c 0 34.591798899037435 -8.46395079444533 9.935942236957562 -18.399893031402893 9.935942236957562
S 1192.891834674845 518.7846266358962 1192.891834674845 484.1928277368587
s 8.46395079444533 -9.935942236957562 18.399893031402893 -9.935942236957562
S 1229.6916207376507 449.6010288378213 1229.6916207376507 484.1928277368587
z" fill="none" stroke="none"></path>
<circle cx="0" cy="0" r="10.28760418028206" fill="#2aa7c9">
  <animateMotion begin="-5.521928888848429s" dur="10s" repeatCount="indefinite">
    <mpath xlink:href="#path86"></mpath>
  </animateMotion>
</circle><path id="path87" d="M 433.315208755966 293.00710887638076
c 0 22.899609538856037 -5.603095950996689 6.577547420735245 -12.180643371731934 6.577547420735245
S 408.9539220125021 315.9067184152368 408.9539220125021 293.00710887638076
s 5.603095950996689 -6.577547420735245 12.180643371731934 -6.577547420735245
S 433.315208755966 270.1074993375247 433.315208755966 293.00710887638076
z" fill="none" stroke="none"></path>
<circle cx="0" cy="0" r="7.399559704841654" fill="#e46b43">
  <animateMotion begin="-3.444091623453829s" dur="10s" repeatCount="indefinite">
    <mpath xlink:href="#path87"></mpath>
  </animateMotion>
</circle><path id="path88" d="M 621.1487165462072 306.03445487064846
c 0 32.98259629874999 -8.07020973267287 9.473724468789891 -17.54393420146276 9.473724468789891
S 586.0608481432816 339.0170511693984 586.0608481432816 306.03445487064846
s 8.07020973267287 -9.473724468789891 17.54393420146276 -9.473724468789891
S 621.1487165462072 273.0518585718985 621.1487165462072 306.03445487064846
z" fill="none" stroke="none"></path>
<circle cx="0" cy="0" r="9.766788322959746" fill="#06628d">
  <animateMotion begin="-6.478254017049878s" dur="10s" repeatCount="indefinite">
    <mpath xlink:href="#path88"></mpath>
  </animateMotion>
</circle><path id="path89" d="M 709.8412853209676 575.6687590515855
c 0 36.16971457302532 -8.85003654446364 10.389173334805143 -19.239209879268785 10.389173334805143
S 671.3628655624301 611.8384736246109 671.3628655624301 575.6687590515855
s 8.85003654446364 -10.389173334805143 19.239209879268785 -10.389173334805143
S 709.8412853209676 539.4990444785602 709.8412853209676 575.6687590515855
z" fill="none" stroke="none"></path>
<circle cx="0" cy="0" r="10.640577700085132" fill="#f91a10">
  <animateMotion begin="-2.4110797436905873s" dur="10s" repeatCount="indefinite">
    <mpath xlink:href="#path89"></mpath>
  </animateMotion>
</circle><path id="path90" d="M 1251.4307406076957 173.58788719971787
c 0 19.55478176973219 -4.784680645785536 5.616799018965629 -10.401479664751164 5.616799018965629
S 1230.6277812781934 193.14266896945006 1230.6277812781934 173.58788719971787
s 4.784680645785536 -5.616799018965629 10.401479664751164 -5.616799018965629
S 1251.4307406076957 154.03310542998568 1251.4307406076957 173.58788719971787
z" fill="none" stroke="none"></path>
<circle cx="0" cy="0" r="11.789323722427087" fill="#e46b43">
  <animateMotion begin="-8.906495980698283s" dur="10s" repeatCount="indefinite">
    <mpath xlink:href="#path90"></mpath>
  </animateMotion>
</circle><path id="path91" d="M 1266.5200525097725 53.96162042103981
c 0 33.97615676486146 -8.313314953104397 9.759108857992121 -18.07242381109652 9.759108857992121
S 1230.3752048875795 87.93777718590127 1230.3752048875795 53.96162042103981
s 8.313314953104397 -9.759108857992121 18.07242381109652 -9.759108857992121
S 1266.5200525097725 19.985463656178354 1266.5200525097725 53.96162042103981
z" fill="none" stroke="none"></path>
<circle cx="0" cy="0" r="9.565637071531297" fill="#edb195">
  <animateMotion begin="-6.488238915691042s" dur="10s" repeatCount="indefinite">
    <mpath xlink:href="#path91"></mpath>
  </animateMotion>
</circle><path id="path92" d="M 600.4268272422313 32.42831177926625
c 0 20.292053541303982 -4.965076930319059 5.828568570374548 -10.793645500693607 5.828568570374548
S 578.839536240844 52.72036532057024 578.839536240844 32.42831177926625
s 4.965076930319059 -5.828568570374548 10.793645500693607 -5.828568570374548
S 600.4268272422313 12.13625823796227 600.4268272422313 32.42831177926625
z" fill="none" stroke="none"></path>
<circle cx="0" cy="0" r="8.751496704591077" fill="#e46b43">
  <animateMotion begin="-3.717136533327936s" dur="10s" repeatCount="indefinite">
    <mpath xlink:href="#path92"></mpath>
  </animateMotion>
</circle><path id="path93" d="M 1228.2829785525528 458.40331802432604
c 0 28.404275500429566 -6.949982303296595 8.15867487778296 -15.108657181079558 8.15867487778296
S 1198.0656641903938 486.8075935247556 1198.0656641903938 458.40331802432604
s 6.949982303296595 -8.15867487778296 15.108657181079558 -8.15867487778296
S 1228.2829785525528 429.9990425238965 1228.2829785525528 458.40331802432604
z" fill="none" stroke="none"></path>
<circle cx="0" cy="0" r="10.189704147404164" fill="#06628d">
  <animateMotion begin="-4.8385051131484484s" dur="10s" repeatCount="indefinite">
    <mpath xlink:href="#path93"></mpath>
  </animateMotion>
</circle><path id="path94" d="M 834.5217312542925 230.04581950942364
c 0 26.396946209535844 -6.4588272640353654 7.582101570824126 -14.040928834859493 7.582101570824126
S 806.4398735845734 256.4427657189595 806.4398735845734 230.04581950942364
s 6.4588272640353654 -7.582101570824126 14.040928834859493 -7.582101570824126
S 834.5217312542925 203.64887329988778 834.5217312542925 230.04581950942364
z" fill="none" stroke="none"></path>
<circle cx="0" cy="0" r="9.996841858957287" fill="#3c0f0f">
  <animateMotion begin="-6.527237151357559s" dur="10s" repeatCount="indefinite">
    <mpath xlink:href="#path94"></mpath>
  </animateMotion>
</circle><path id="path95" d="M 130.89967958952928 392.4694167192463
c 0 27.225023451145713 -6.661441908259056 7.8199535444780235 -14.48139545273708 7.8199535444780235
S 101.93688868405512 419.694440170392 101.93688868405512 392.4694167192463
s 6.661441908259056 -7.8199535444780235 14.48139545273708 -7.8199535444780235
S 130.89967958952928 365.24439326810057 130.89967958952928 392.4694167192463
z" fill="none" stroke="none"></path>
<circle cx="0" cy="0" r="9.353412787003617" fill="#f91a10">
  <animateMotion begin="-6.794574357892245s" dur="10s" repeatCount="indefinite">
    <mpath xlink:href="#path95"></mpath>
  </animateMotion>
</circle><path id="path96" d="M 699.5762782622755 484.4190721534366
c 0 20.33781197201497 -4.976273142088769 5.841711949408555 -10.817985091497324 5.841711949408555
S 677.9403080792808 504.75688412545156 677.9403080792808 484.4190721534366
s 4.976273142088769 -5.841711949408555 10.817985091497324 -5.841711949408555
S 699.5762782622755 464.08126018142167 699.5762782622755 484.4190721534366
z" fill="none" stroke="none"></path>
<circle cx="0" cy="0" r="8.56862084127992" fill="#04284d">
  <animateMotion begin="-3.716588034351489s" dur="10s" repeatCount="indefinite">
    <mpath xlink:href="#path96"></mpath>
  </animateMotion>
</circle><path id="path97" d="M 659.2285786565268 21.067703608800656
c 0 26.513478598688746 -6.487340508189799 7.615573640048895 -14.102914148238694 7.615573640048895
S 631.0227503600494 47.581182207489405 631.0227503600494 21.067703608800656
s 6.487340508189799 -7.615573640048895 14.102914148238694 -7.615573640048895
S 659.2285786565268 -5.44577498988809 659.2285786565268 21.067703608800656
z" fill="none" stroke="none"></path>
<circle cx="0" cy="0" r="11.907932292354976" fill="#2aa7c9">
  <animateMotion begin="-0.06527843203014916s" dur="10s" repeatCount="indefinite">
    <mpath xlink:href="#path97"></mpath>
  </animateMotion>
</circle><path id="path98" d="M 1140.8400141236448 444.9449513440875
c 0 28.902943836805356 -7.071996896239607 8.301909399933454 -15.373906296173061 8.301909399933454
S 1110.0922015312985 473.84789518089286 1110.0922015312985 444.9449513440875
s 7.071996896239607 -8.301909399933454 15.373906296173061 -8.301909399933454
S 1140.8400141236448 416.0420075072821 1140.8400141236448 444.9449513440875
z" fill="none" stroke="none"></path>
<circle cx="0" cy="0" r="10.459627679991943" fill="#2aa7c9">
  <animateMotion begin="-4.555888559711764s" dur="10s" repeatCount="indefinite">
    <mpath xlink:href="#path98"></mpath>
  </animateMotion>
</circle><path id="path99" d="M 828.0846429051179 345.1500847128536
c 0 19.51705596481704 -4.775449863731828 5.605962883511277 -10.381412747243106 5.605962883511277
S 807.3218174106318 364.6671406776706 807.3218174106318 345.1500847128536
s 4.775449863731828 -5.605962883511277 10.381412747243106 -5.605962883511277
S 828.0846429051179 325.63302874803657 828.0846429051179 345.1500847128536
z" fill="none" stroke="none"></path>
<circle cx="0" cy="0" r="6.327101594472101" fill="#04284d">
  <animateMotion begin="-8.19887521817925s" dur="10s" repeatCount="indefinite">
    <mpath xlink:href="#path99"></mpath>
  </animateMotion>
</circle></g>
</svg>