<?xml version="1.0" encoding="utf-8"?>
<svg xmlns="http://www.w3.org/2000/svg" xmlns:xlink="http://www.w3.org/1999/xlink" style="margin: auto; background: rgb(243, 240, 215); display: block; z-index: 1; position: relative; shape-rendering: auto;" width="1280" height="587" preserveAspectRatio="xMidYMid" viewBox="0 0 1280 587">
<g transform="translate(640,293.5) scale(1,1) translate(-640,-293.5)"><path id="path0" d="M 946.9248464500704 365.18114112778903
c 0 21.20133579142855 -5.187560885136772 6.08974538689969 -11.277306272036462 6.08974538689969
S 924.3702339059976 386.3824769192176 924.3702339059976 365.18114112778903
s 5.187560885136772 -6.08974538689969 11.277306272036462 -6.08974538689969
S 946.9248464500704 343.97980533636047 946.9248464500704 365.18114112778903
z" fill="none" stroke="none"></path>
<circle cx="0" cy="0" r="9.694350506346975" fill="#8cd0e5">
  <animateMotion begin="-0.903458648779123s" dur="10s" repeatCount="indefinite">
    <mpath xlink:href="#path0"></mpath>
  </animateMotion>
</circle><path id="path1" d="M 794.8371496185174 265.10326372915176
c 0 20.95797460718488 -5.12801506346013 6.019843770148849 -11.147858833608979 6.019843770148849
S 772.5414319512994 286.06123833633666 772.5414319512994 265.10326372915176
s 5.12801506346013 -6.019843770148849 11.147858833608979 -6.019843770148849
S 794.8371496185174 244.14528912196687 794.8371496185174 265.10326372915176
z" fill="none" stroke="none"></path>
<circle cx="0" cy="0" r="6.390407454591456" fill="#f8b976">
  <animateMotion begin="-0.8724307642455909s" dur="10s" repeatCount="indefinite">
    <mpath xlink:href="#path1"></mpath>
  </animateMotion>
</circle><path id="path2" d="M 184.77205432649367 331.7465278743853
c 0 33.01794605321391 -8.078859140679997 9.483878121667825 -17.562737262347824 9.483878121667825
S 149.64657980179805 364.7644739275992 149.64657980179805 331.7465278743853
s 8.078859140679997 -9.483878121667825 17.562737262347824 -9.483878121667825
S 184.77205432649367 298.7285818211714 184.77205432649367 331.7465278743853
z" fill="none" stroke="none"></path>
<circle cx="0" cy="0" r="6.280330075404898" fill="#f8b976">
  <animateMotion begin="-6.583169815375795s" dur="10s" repeatCount="indefinite">
    <mpath xlink:href="#path2"></mpath>
  </animateMotion>
</circle><path id="path3" d="M 701.4237551705247 320.98935975760855
c 0 29.4575761474315 -7.2077048020311105 8.461218680645219 -15.668923482676329 8.461218680645219
S 670.0859082051721 350.44693590504005 670.0859082051721 320.98935975760855
s 7.2077048020311105 -8.461218680645219 15.668923482676329 -8.461218680645219
S 701.4237551705247 291.53178361017706 701.4237551705247 320.98935975760855
z" fill="none" stroke="none"></path>
<circle cx="0" cy="0" r="8.240392069042493" fill="#f8b976">
  <animateMotion begin="-9.176766873179126s" dur="10s" repeatCount="indefinite">
    <mpath xlink:href="#path3"></mpath>
  </animateMotion>
</circle><path id="path4" d="M 267.20308636871295 457.57396760788413
c 0 21.18011420237559 -5.182368368666367 6.083649824086606 -11.266018192752973 6.083649824086606
S 244.671049983207 478.7540818102597 244.671049983207 457.57396760788413
s 5.182368368666367 -6.083649824086606 11.266018192752973 -6.083649824086606
S 267.20308636871295 436.39385340550854 267.20308636871295 457.57396760788413
z" fill="none" stroke="none"></path>
<circle cx="0" cy="0" r="9.638009374272437" fill="#376888">
  <animateMotion begin="-4.351802564211504s" dur="10s" repeatCount="indefinite">
    <mpath xlink:href="#path4"></mpath>
  </animateMotion>
</circle><path id="path5" d="M 511.44839702752665 9.212261829571872
c 0 34.91666816052099 -8.543440081829603 10.029255748234753 -18.572695830064355 10.029255748234753
S 474.303005367398 44.128929990092864 474.303005367398 9.212261829571872
s 8.543440081829603 -10.029255748234753 18.572695830064355 -10.029255748234753
S 511.44839702752665 -25.70440633094912 511.44839702752665 9.212261829571872
z" fill="none" stroke="none"></path>
<circle cx="0" cy="0" r="6.348317678176025" fill="#de786a">
  <animateMotion begin="-2.4668912410221444s" dur="10s" repeatCount="indefinite">
    <mpath xlink:href="#path5"></mpath>
  </animateMotion>
</circle><path id="path6" d="M 589.9674692549044 474.15424171624966
c 0 35.30359823039126 -8.638114460627648 10.140395236388978 -18.778509697016624 10.140395236388978
S 552.4104498608712 509.4578399466409 552.4104498608712 474.15424171624966
s 8.638114460627648 -10.140395236388978 18.778509697016624 -10.140395236388978
S 589.9674692549044 438.8506434858584 589.9674692549044 474.15424171624966
z" fill="none" stroke="none"></path>
<circle cx="0" cy="0" r="9.51641666028749" fill="#f8b976">
  <animateMotion begin="-5.018454953428049s" dur="10s" repeatCount="indefinite">
    <mpath xlink:href="#path6"></mpath>
  </animateMotion>
</circle><path id="path7" d="M 574.3857870675913 282.1683239887631
c 0 22.753664452139276 -5.567385982970248 6.535627023486814 -12.103013006457061 6.535627023486814
S 550.1797610546771 304.9219884409024 550.1797610546771 282.1683239887631
s 5.567385982970248 -6.535627023486814 12.103013006457061 -6.535627023486814
S 574.3857870675913 259.41465953662384 574.3857870675913 282.1683239887631
z" fill="none" stroke="none"></path>
<circle cx="0" cy="0" r="8.400724625514936" fill="#de786a">
  <animateMotion begin="-5.298468533190668s" dur="10s" repeatCount="indefinite">
    <mpath xlink:href="#path7"></mpath>
  </animateMotion>
</circle><path id="path8" d="M 1127.6094151604605 95.20889577231284
c 0 37.356944597352715 -9.1405289972246 10.730186214133226 -19.870715211357826 10.730186214133226
S 1087.867984737745 132.56584036966555 1087.867984737745 95.20889577231284
s 9.1405289972246 -10.730186214133226 19.870715211357826 -10.730186214133226
S 1127.6094151604605 57.85195117496013 1127.6094151604605 95.20889577231284
z" fill="none" stroke="none"></path>
<circle cx="0" cy="0" r="6.312243212214277" fill="#de786a">
  <animateMotion begin="-3.3294435444713244s" dur="10s" repeatCount="indefinite">
    <mpath xlink:href="#path8"></mpath>
  </animateMotion>
</circle><path id="path9" d="M 1036.8742299395237 544.5294445518012
c 0 35.869384931519896 -8.776551632180398 10.302908437776992 -19.079460069957392 10.302908437776992
S 998.715309799609 580.3988294833212 998.715309799609 544.5294445518012
s 8.776551632180398 -10.302908437776992 19.079460069957392 -10.302908437776992
S 1036.8742299395237 508.66005962028134 1036.8742299395237 544.5294445518012
z" fill="none" stroke="none"></path>
<circle cx="0" cy="0" r="6.694788894377982" fill="#de786a">
  <animateMotion begin="-3.064612681759862s" dur="10s" repeatCount="indefinite">
    <mpath xlink:href="#path9"></mpath>
  </animateMotion>
</circle><path id="path10" d="M 1207.5666969496956 240.23407451479295
c 0 22.17616131446449 -5.42608202375195 6.369748462665333 -11.795830486417282 6.369748462665333
S 1183.975035976861 262.41023582925743 1183.975035976861 240.23407451479295
s 5.42608202375195 -6.369748462665333 11.795830486417282 -6.369748462665333
S 1207.5666969496956 218.05791320032847 1207.5666969496956 240.23407451479295
z" fill="none" stroke="none"></path>
<circle cx="0" cy="0" r="10.279696839827826" fill="#de786a">
  <animateMotion begin="-4.287433600267255s" dur="10s" repeatCount="indefinite">
    <mpath xlink:href="#path10"></mpath>
  </animateMotion>
</circle><path id="path11" d="M 1078.9013541279837 60.52357015704602
c 0 36.62428850856848 -8.961262081883778 10.519742443950523 -19.4810045258343 10.519742443950523
S 1039.939345076315 97.1478586656145 1039.939345076315 60.52357015704602
s 8.961262081883778 -10.519742443950523 19.4810045258343 -10.519742443950523
S 1078.9013541279837 23.899281648477533 1078.9013541279837 60.52357015704602
z" fill="none" stroke="none"></path>
<circle cx="0" cy="0" r="9.050960640002105" fill="#8cd0e5">
  <animateMotion begin="-9.64665318278982s" dur="10s" repeatCount="indefinite">
    <mpath xlink:href="#path11"></mpath>
  </animateMotion>
</circle><path id="path12" d="M 812.473471076044 295.345590250985
c 0 23.952723456383975 -5.860772760604589 6.880037588535823 -12.740810349140412 6.880037588535823
S 786.9918503777633 319.298313707369 786.9918503777633 295.345590250985
s 5.860772760604589 -6.880037588535823 12.740810349140412 -6.880037588535823
S 812.473471076044 271.39286679460105 812.473471076044 295.345590250985
z" fill="none" stroke="none"></path>
<circle cx="0" cy="0" r="10.38997956137865" fill="#f8b976">
  <animateMotion begin="-7.874926222536178s" dur="10s" repeatCount="indefinite">
    <mpath xlink:href="#path12"></mpath>
  </animateMotion>
</circle><path id="path13" d="M 682.7219815687572 287.1927768458647
c 0 20.65807753048284 -5.05463599150112 5.933703120457836 -10.988339111958956 5.933703120457836
S 660.7453033448394 307.85085437634757 660.7453033448394 287.1927768458647
s 5.05463599150112 -5.933703120457836 10.988339111958956 -5.933703120457836
S 682.7219815687572 266.5346993153819 682.7219815687572 287.1927768458647
z" fill="none" stroke="none"></path>
<circle cx="0" cy="0" r="10.279464583081305" fill="#f8b976">
  <animateMotion begin="-1.8405542722610169s" dur="10s" repeatCount="indefinite">
    <mpath xlink:href="#path13"></mpath>
  </animateMotion>
</circle><path id="path14" d="M 1173.1710795533309 355.44375226982555
c 0 36.08278043100091 -8.828765424606605 10.364202889755582 -19.192968314362187 10.364202889755582
S 1134.7851429246066 391.52653270082646 1134.7851429246066 355.44375226982555
s 8.828765424606605 -10.364202889755582 19.192968314362187 -10.364202889755582
S 1173.1710795533309 319.36097183882464 1173.1710795533309 355.44375226982555
z" fill="none" stroke="none"></path>
<circle cx="0" cy="0" r="6.291201810265561" fill="#f8b976">
  <animateMotion begin="-9.088967539839384s" dur="10s" repeatCount="indefinite">
    <mpath xlink:href="#path14"></mpath>
  </animateMotion>
</circle><path id="path15" d="M 1087.4966932357904 258.80884684752965
c 0 25.777250258911888 -6.307199531435887 7.404103797772564 -13.711303329208452 7.404103797772564
S 1060.0740865773735 284.5860971064415 1060.0740865773735 258.80884684752965
s 6.307199531435887 -7.404103797772564 13.711303329208452 -7.404103797772564
S 1087.4966932357904 233.03159658861776 1087.4966932357904 258.80884684752965
z" fill="none" stroke="none"></path>
<circle cx="0" cy="0" r="7.774902379808687" fill="#de786a">
  <animateMotion begin="-1.8705207494619391s" dur="10s" repeatCount="indefinite">
    <mpath xlink:href="#path15"></mpath>
  </animateMotion>
</circle><path id="path16" d="M 511.54075952593985 508.3298585016695
c 0 23.597792397815024 -5.7739279271249515 6.778089305755379 -12.552017232880331 6.778089305755379
S 486.43672506017924 531.9276508994845 486.43672506017924 508.3298585016695
s 5.7739279271249515 -6.778089305755379 12.552017232880331 -6.778089305755379
S 511.54075952593985 484.7320661038545 511.54075952593985 508.3298585016695
z" fill="none" stroke="none"></path>
<circle cx="0" cy="0" r="11.521006211535795" fill="#826b88">
  <animateMotion begin="-0.5266887681661969s" dur="10s" repeatCount="indefinite">
    <mpath xlink:href="#path16"></mpath>
  </animateMotion>
</circle><path id="path17" d="M 284.8119995324012 356.4660863213701
c 0 31.451968073090985 -7.695694315756304 9.034075935887836 -16.72977025164414 9.034075935887836
S 251.35245902911294 387.9180543944611 251.35245902911294 356.4660863213701
s 7.695694315756304 -9.034075935887836 16.72977025164414 -9.034075935887836
S 284.8119995324012 325.0141182482791 284.8119995324012 356.4660863213701
z" fill="none" stroke="none"></path>
<circle cx="0" cy="0" r="6.989841031710372" fill="#8cd0e5">
  <animateMotion begin="-7.904828054446337s" dur="10s" repeatCount="indefinite">
    <mpath xlink:href="#path17"></mpath>
  </animateMotion>
</circle><path id="path18" d="M 82.14963866787848 129.97722364371398
c 0 36.74097249852995 -8.98981241985307 10.553258058088389 -19.54307047794146 10.553258058088389
S 43.063497711995566 166.71819614224393 43.063497711995566 129.97722364371398
s 8.98981241985307 -10.553258058088389 19.54307047794146 -10.553258058088389
S 82.14963866787848 93.23625114518404 82.14963866787848 129.97722364371398
z" fill="none" stroke="none"></path>
<circle cx="0" cy="0" r="6.651599151778754" fill="#f8b976">
  <animateMotion begin="-8.88153656896752s" dur="10s" repeatCount="indefinite">
    <mpath xlink:href="#path18"></mpath>
  </animateMotion>
</circle><path id="path19" d="M 431.08076319876403 99.7880703524605
c 0 19.099243951750292 -4.673219264789965 5.485953049970829 -10.159172314760793 5.485953049970829
S 410.76241856924247 118.88731430421079 410.76241856924247 99.7880703524605
s 4.673219264789965 -5.485953049970829 10.159172314760793 -5.485953049970829
S 431.08076319876403 80.6888264007102 431.08076319876403 99.7880703524605
z" fill="none" stroke="none"></path>
<circle cx="0" cy="0" r="11.05844488207284" fill="#376888">
  <animateMotion begin="-1.5955237463552918s" dur="10s" repeatCount="indefinite">
    <mpath xlink:href="#path19"></mpath>
  </animateMotion>
</circle><path id="path20" d="M 456.17982843617585 299.50462565977386
c 0 25.807057670950215 -6.314492834381435 7.41266550123038 -13.727158335611815 7.41266550123038
S 428.7255117649522 325.31168333072407 428.7255117649522 299.50462565977386
s 6.314492834381435 -7.41266550123038 13.727158335611815 -7.41266550123038
S 456.17982843617585 273.69756798882366 456.17982843617585 299.50462565977386
z" fill="none" stroke="none"></path>
<circle cx="0" cy="0" r="8.269209719306502" fill="#826b88">
  <animateMotion begin="-1.9065974910248151s" dur="10s" repeatCount="indefinite">
    <mpath xlink:href="#path20"></mpath>
  </animateMotion>
</circle><path id="path21" d="M 186.62048968103278 565.9336710702893
c 0 30.427777231184578 -7.445094428906864 8.739893460021102 -16.184987888927967 8.739893460021102
S 154.25051390317685 596.3614483014738 154.25051390317685 565.9336710702893
s 7.445094428906864 -8.739893460021102 16.184987888927967 -8.739893460021102
S 186.62048968103278 535.5058938391047 186.62048968103278 565.9336710702893
z" fill="none" stroke="none"></path>
<circle cx="0" cy="0" r="8.728530589364015" fill="#de786a">
  <animateMotion begin="-8.550374509620735s" dur="10s" repeatCount="indefinite">
    <mpath xlink:href="#path21"></mpath>
  </animateMotion>
</circle><path id="path22" d="M 791.9159533725859 41.48491685179188
c 0 35.440034296465825 -8.671497753390573 10.179584319197632 -18.851082072588206 10.179584319197632
S 754.2137892274096 76.9249511482577 754.2137892274096 41.48491685179188
s 8.671497753390573 -10.179584319197632 18.851082072588206 -10.179584319197632
S 791.9159533725859 6.044882555326055 791.9159533725859 41.48491685179188
z" fill="none" stroke="none"></path>
<circle cx="0" cy="0" r="8.704053849306291" fill="#376888">
  <animateMotion begin="-4.02748817279039s" dur="10s" repeatCount="indefinite">
    <mpath xlink:href="#path22"></mpath>
  </animateMotion>
</circle><path id="path23" d="M 341.64400815600516 556.0654294068391
c 0 37.34046029215536 -9.136495603399714 10.72545136051271 -19.861946963912423 10.72545136051271
S 301.9201142281803 593.4058896989945 301.9201142281803 556.0654294068391
s 9.136495603399714 -10.72545136051271 19.861946963912423 -10.72545136051271
S 341.64400815600516 518.7249691146837 341.64400815600516 556.0654294068391
z" fill="none" stroke="none"></path>
<circle cx="0" cy="0" r="7.412797145274212" fill="#f8b976">
  <animateMotion begin="-5.91385527282738s" dur="10s" repeatCount="indefinite">
    <mpath xlink:href="#path23"></mpath>
  </animateMotion>
</circle><path id="path24" d="M 595.4491767285924 107.22487570858034
c 0 22.46802007346143 -5.4974942732937535 6.453580233866582 -11.951074507160335 6.453580233866582
S 571.5470277142717 129.69289578204177 571.5470277142717 107.22487570858034
s 5.4974942732937535 -6.453580233866582 11.951074507160335 -6.453580233866582
S 595.4491767285924 84.75685563511891 595.4491767285924 107.22487570858034
z" fill="none" stroke="none"></path>
<circle cx="0" cy="0" r="7.149755085823175" fill="#826b88">
  <animateMotion begin="-4.0068915427079155s" dur="10s" repeatCount="indefinite">
    <mpath xlink:href="#path24"></mpath>
  </animateMotion>
</circle><path id="path25" d="M 1166.950805428349 241.63109450500576
c 0 24.926175183889583 -6.098957757760216 7.159646063457647 -13.258603821217863 7.159646063457647
S 1140.4335977859134 266.55726968889536 1140.4335977859134 241.63109450500576
s 6.098957757760216 -7.159646063457647 13.258603821217863 -7.159646063457647
S 1166.950805428349 216.70491932111617 1166.950805428349 241.63109450500576
z" fill="none" stroke="none"></path>
<circle cx="0" cy="0" r="6.466170398377607" fill="#826b88">
  <animateMotion begin="-2.279741416189458s" dur="10s" repeatCount="indefinite">
    <mpath xlink:href="#path25"></mpath>
  </animateMotion>
</circle><path id="path26" d="M 723.2951925503058 382.55460742787085
c 0 28.32765685606884 -6.931235188187056 8.136667394828285 -15.06790258301534 8.136667394828285
S 693.1593873842752 410.88226428393966 693.1593873842752 382.55460742787085
s 6.931235188187056 -8.136667394828285 15.06790258301534 -8.136667394828285
S 723.2951925503058 354.22695057180204 723.2951925503058 382.55460742787085
z" fill="none" stroke="none"></path>
<circle cx="0" cy="0" r="9.709319579140288" fill="#fcddc9">
  <animateMotion begin="-7.34420371218889s" dur="10s" repeatCount="indefinite">
    <mpath xlink:href="#path26"></mpath>
  </animateMotion>
</circle><path id="path27" d="M 73.4475215378324 54.5399220525281
c 0 35.980808105831514 -8.8038147492992 10.334912966568627 -19.138727715867827 10.334912966568627
S 35.17006610609674 90.52073015835961 35.17006610609674 54.5399220525281
s 8.8038147492992 -10.334912966568627 19.138727715867827 -10.334912966568627
S 73.4475215378324 18.559113946696584 73.4475215378324 54.5399220525281
z" fill="none" stroke="none"></path>
<circle cx="0" cy="0" r="10.420946225627098" fill="#376888">
  <animateMotion begin="-8.333132035537233s" dur="10s" repeatCount="indefinite">
    <mpath xlink:href="#path27"></mpath>
  </animateMotion>
</circle><path id="path28" d="M 790.7066395788437 456.21234488962136
c 0 21.809167624853327 -5.336285695442835 6.2643353816068075 -11.600621077049642 6.2643353816068075
S 767.5053974247445 478.0215125144747 767.5053974247445 456.21234488962136
s 5.336285695442835 -6.2643353816068075 11.600621077049642 -6.2643353816068075
S 790.7066395788437 434.40317726476803 790.7066395788437 456.21234488962136
z" fill="none" stroke="none"></path>
<circle cx="0" cy="0" r="11.129871722873553" fill="#8cd0e5">
  <animateMotion begin="-3.8250615656153863s" dur="10s" repeatCount="indefinite">
    <mpath xlink:href="#path28"></mpath>
  </animateMotion>
</circle><path id="path29" d="M 92.78931713346174 323.8209821258897
c 0 35.67881036303237 -8.72992168457175 10.24816893406249 -18.978090618634237 10.24816893406249
S 54.833135896193255 359.4997924889221 54.833135896193255 323.8209821258897
s 8.72992168457175 -10.24816893406249 18.978090618634237 -10.24816893406249
S 92.78931713346174 288.14217176285734 92.78931713346174 323.8209821258897
z" fill="none" stroke="none"></path>
<circle cx="0" cy="0" r="11.51548204283565" fill="#8cd0e5">
  <animateMotion begin="-5.392286830577701s" dur="10s" repeatCount="indefinite">
    <mpath xlink:href="#path29"></mpath>
  </animateMotion>
</circle><path id="path30" d="M 560.5749312553896 190.68397442430137
c 0 28.282467959663546 -6.920178330555974 8.123687605435274 -15.043865935991247 8.123687605435274
S 530.4871993834072 218.9664423839649 530.4871993834072 190.68397442430137
s 6.920178330555974 -8.123687605435274 15.043865935991247 -8.123687605435274
S 560.5749312553896 162.40150646463783 560.5749312553896 190.68397442430137
z" fill="none" stroke="none"></path>
<circle cx="0" cy="0" r="6.006849862061149" fill="#fcddc9">
  <animateMotion begin="-0.23600843208927635s" dur="10s" repeatCount="indefinite">
    <mpath xlink:href="#path30"></mpath>
  </animateMotion>
</circle><path id="path31" d="M 396.90250886330233 118.17755996827661
c 0 33.82275184572132 -8.27577970693181 9.715045742919953 -17.990825449851762 9.715045742919953
S 360.92085796359885 152.00031181399794 360.92085796359885 118.17755996827661
s 8.27577970693181 -9.715045742919953 17.990825449851762 -9.715045742919953
S 396.90250886330233 84.35480812255528 396.90250886330233 118.17755996827661
z" fill="none" stroke="none"></path>
<circle cx="0" cy="0" r="9.204726142873495" fill="#826b88">
  <animateMotion begin="-5.571025556620237s" dur="10s" repeatCount="indefinite">
    <mpath xlink:href="#path31"></mpath>
  </animateMotion>
</circle><path id="path32" d="M 121.16891126843204 99.57130560784451
c 0 23.95774802246067 -5.8620021757084615 6.881480814962108 -12.74348299067057 6.881480814962108
S 95.6819452870909 123.52905363030519 95.6819452870909 99.57130560784451
s 5.8620021757084615 -6.881480814962108 12.74348299067057 -6.881480814962108
S 121.16891126843204 75.61355758538383 121.16891126843204 99.57130560784451
z" fill="none" stroke="none"></path>
<circle cx="0" cy="0" r="11.325624233297956" fill="#de786a">
  <animateMotion begin="-7.1617419113602825s" dur="10s" repeatCount="indefinite">
    <mpath xlink:href="#path32"></mpath>
  </animateMotion>
</circle><path id="path33" d="M 151.48908815358539 399.23577384742396
c 0 30.42522619417448 -7.444470239000138 8.739160715347989 -16.18363095434813 8.739160715347989
S 119.12182624488912 429.6610000415984 119.12182624488912 399.23577384742396
s 7.444470239000138 -8.739160715347989 16.18363095434813 -8.739160715347989
S 151.48908815358539 368.8105476532495 151.48908815358539 399.23577384742396
z" fill="none" stroke="none"></path>
<circle cx="0" cy="0" r="11.310502063067776" fill="#376888">
  <animateMotion begin="-1.6718871706032434s" dur="10s" repeatCount="indefinite">
    <mpath xlink:href="#path33"></mpath>
  </animateMotion>
</circle><path id="path34" d="M 443.1479306889775 332.0648504365178
c 0 28.560954717661446 -6.9883187075129065 8.203678482732544 -15.19199719024545 8.203678482732544
S 412.7639363084866 360.62580515417926 412.7639363084866 332.0648504365178
s 6.9883187075129065 -8.203678482732544 15.19199719024545 -8.203678482732544
S 443.1479306889775 303.50389571885637 443.1479306889775 332.0648504365178
z" fill="none" stroke="none"></path>
<circle cx="0" cy="0" r="7.686784718566053" fill="#8cd0e5">
  <animateMotion begin="-4.867549803123223s" dur="10s" repeatCount="indefinite">
    <mpath xlink:href="#path34"></mpath>
  </animateMotion>
</circle><path id="path35" d="M 1238.2893554836846 577.8330123784118
c 0 25.95493625899983 -6.350675893159532 7.45514126588293 -13.805817159042462 7.45514126588293
S 1210.6777211656 603.7879486374117 1210.6777211656 577.8330123784118
s 6.350675893159532 -7.45514126588293 13.805817159042462 -7.45514126588293
S 1238.2893554836846 551.878076119412 1238.2893554836846 577.8330123784118
z" fill="none" stroke="none"></path>
<circle cx="0" cy="0" r="8.10163150612251" fill="#826b88">
  <animateMotion begin="-9.19359971423684s" dur="10s" repeatCount="indefinite">
    <mpath xlink:href="#path35"></mpath>
  </animateMotion>
</circle><path id="path36" d="M 1061.6899470765102 116.32688556281391
c 0 24.87112168031237 -6.085487219650899 7.143832823068447 -13.229320042719346 7.143832823068447
S 1035.2313069910715 141.19800724312628 1035.2313069910715 116.32688556281391
s 6.085487219650899 -7.143832823068447 13.229320042719346 -7.143832823068447
S 1061.6899470765102 91.45576388250154 1061.6899470765102 116.32688556281391
z" fill="none" stroke="none"></path>
<circle cx="0" cy="0" r="6.8495300620010955" fill="#376888">
  <animateMotion begin="-6.069523659836973s" dur="10s" repeatCount="indefinite">
    <mpath xlink:href="#path36"></mpath>
  </animateMotion>
</circle><path id="path37" d="M 44.352452174413784 45.63839771628993
c 0 28.657541192971387 -7.011951568492997 8.231421406491782 -15.24337297498478 8.231421406491782
S 13.865706224444224 74.29593890926131 13.865706224444224 45.63839771628993
s 7.011951568492997 -8.231421406491782 15.24337297498478 -8.231421406491782
S 44.352452174413784 16.980856523318543 44.352452174413784 45.63839771628993
z" fill="none" stroke="none"></path>
<circle cx="0" cy="0" r="8.62112691851423" fill="#de786a">
  <animateMotion begin="-1.1000490593129664s" dur="10s" repeatCount="indefinite">
    <mpath xlink:href="#path37"></mpath>
  </animateMotion>
</circle><path id="path38" d="M 1225.8639238014557 142.62943106592806
c 0 34.84738870180036 -8.5264887249086 10.00935632924053 -18.535845054149128 10.00935632924053
S 1188.7922336931574 177.47681976772841 1188.7922336931574 142.62943106592806
s 8.5264887249086 -10.00935632924053 18.535845054149128 -10.00935632924053
S 1225.8639238014557 107.7820423641277 1225.8639238014557 142.62943106592806
z" fill="none" stroke="none"></path>
<circle cx="0" cy="0" r="8.6636655681647" fill="#f8b976">
  <animateMotion begin="-6.452351110494177s" dur="10s" repeatCount="indefinite">
    <mpath xlink:href="#path38"></mpath>
  </animateMotion>
</circle><path id="path39" d="M 439.94883839368146 79.99874109819797
c 0 23.927396626537547 -5.854575770323017 6.872762860813976 -12.727338631136993 6.872762860813976
S 414.49416113140745 103.92613772473551 414.49416113140745 79.99874109819797
s 5.854575770323017 -6.872762860813976 12.727338631136993 -6.872762860813976
S 439.94883839368146 56.071344471660424 439.94883839368146 79.99874109819797
z" fill="none" stroke="none"></path>
<circle cx="0" cy="0" r="11.253863483426969" fill="#826b88">
  <animateMotion begin="-2.957485915205942s" dur="10s" repeatCount="indefinite">
    <mpath xlink:href="#path39"></mpath>
  </animateMotion>
</circle><path id="path40" d="M 751.8118200912397 561.4904118528106
c 0 25.373761595236235 -6.208473581813121 7.288208117780621 -13.496681699593742 7.288208117780621
S 724.8184566920522 586.8641734480468 724.8184566920522 561.4904118528106
s 6.208473581813121 -7.288208117780621 13.496681699593742 -7.288208117780621
S 751.8118200912397 536.1166502575743 751.8118200912397 561.4904118528106
z" fill="none" stroke="none"></path>
<circle cx="0" cy="0" r="8.830629777804987" fill="#f8b976">
  <animateMotion begin="-8.388582159813005s" dur="10s" repeatCount="indefinite">
    <mpath xlink:href="#path40"></mpath>
  </animateMotion>
</circle><path id="path41" d="M 31.810634845943433 478.72046930306095
c 0 29.198345043466933 -7.144275914890844 8.386758682697948 -15.531034597588793 8.386758682697948
S 0.7485656507658476 507.9188143465279 0.7485656507658476 478.72046930306095
s 7.144275914890844 -8.386758682697948 15.531034597588793 -8.386758682697948
S 31.810634845943433 449.522124259594 31.810634845943433 478.72046930306095
z" fill="none" stroke="none"></path>
<circle cx="0" cy="0" r="9.398545823621067" fill="#f8b976">
  <animateMotion begin="-3.5020441361155874s" dur="10s" repeatCount="indefinite">
    <mpath xlink:href="#path41"></mpath>
  </animateMotion>
</circle><path id="path42" d="M 627.2781632433827 537.7292156260179
c 0 22.188073657155673 -5.428996745899791 6.373170093012799 -11.80216683891259 6.373170093012799
S 603.6738295655574 559.9172892831735 603.6738295655574 537.7292156260179
s 5.428996745899791 -6.373170093012799 11.80216683891259 -6.373170093012799
S 627.2781632433827 515.5411419688622 627.2781632433827 537.7292156260179
z" fill="none" stroke="none"></path>
<circle cx="0" cy="0" r="9.045111009511022" fill="#826b88">
  <animateMotion begin="-3.372493687597855s" dur="10s" repeatCount="indefinite">
    <mpath xlink:href="#path42"></mpath>
  </animateMotion>
</circle><path id="path43" d="M 1217.5890064816274 27.671006891323962
c 0 33.02042697507696 -8.079466174752872 9.484590726883807 -17.56405690163668 9.484590726883807
S 1182.4608926783542 60.69143386640092 1182.4608926783542 27.671006891323962
s 8.079466174752872 -9.484590726883807 17.56405690163668 -9.484590726883807
S 1217.5890064816274 -5.349420083752996 1217.5890064816274 27.671006891323962
z" fill="none" stroke="none"></path>
<circle cx="0" cy="0" r="7.5591266408529085" fill="#826b88">
  <animateMotion begin="-3.9197166080523504s" dur="10s" repeatCount="indefinite">
    <mpath xlink:href="#path43"></mpath>
  </animateMotion>
</circle><path id="path44" d="M 333.4301204832169 417.70272931934045
c 0 20.040809796582266 -4.903602397036086 5.756402813911928 -10.660005210948015 5.756402813911928
S 312.1101100613208 437.7435391159227 312.1101100613208 417.70272931934045
s 4.903602397036086 -5.756402813911928 10.660005210948015 -5.756402813911928
S 333.4301204832169 397.6619195227582 333.4301204832169 417.70272931934045
z" fill="none" stroke="none"></path>
<circle cx="0" cy="0" r="7.806045758680357" fill="#8cd0e5">
  <animateMotion begin="-4.916305494187945s" dur="10s" repeatCount="indefinite">
    <mpath xlink:href="#path44"></mpath>
  </animateMotion>
</circle><path id="path45" d="M 445.3678022623389 98.1777468767312
c 0 29.0428963599626 -7.106240598714252 8.342108528925428 -15.44834912763968 8.342108528925428
S 414.4711040070595 127.2206432366938 414.4711040070595 98.1777468767312
s 7.106240598714252 -8.342108528925428 15.44834912763968 -8.342108528925428
S 445.3678022623389 69.13485051676861 445.3678022623389 98.1777468767312
z" fill="none" stroke="none"></path>
<circle cx="0" cy="0" r="7.9770686653582565" fill="#8cd0e5">
  <animateMotion begin="-0.6057625385086896s" dur="10s" repeatCount="indefinite">
    <mpath xlink:href="#path45"></mpath>
  </animateMotion>
</circle><path id="path46" d="M 139.13897381943752 506.0008880901582
c 0 19.29982072142742 -4.722296559498198 5.543565526367451 -10.265862085865649 5.543565526367451
S 118.60724964770623 525.3007088115857 118.60724964770623 506.0008880901582
s 4.722296559498198 -5.543565526367451 10.265862085865649 -5.543565526367451
S 139.13897381943752 486.7010673687308 139.13897381943752 506.0008880901582
z" fill="none" stroke="none"></path>
<circle cx="0" cy="0" r="7.34581008565427" fill="#fcddc9">
  <animateMotion begin="-7.462549771032001s" dur="10s" repeatCount="indefinite">
    <mpath xlink:href="#path46"></mpath>
  </animateMotion>
</circle><path id="path47" d="M 1274.8414794883186 183.1427817862813
c 0 24.2161483457017 -5.925227786714245 6.9557021844036795 -12.880929971117926 6.9557021844036795
S 1249.0796195460828 207.358930131983 1249.0796195460828 183.1427817862813
s 5.925227786714245 -6.9557021844036795 12.880929971117926 -6.9557021844036795
S 1274.8414794883186 158.9266334405796 1274.8414794883186 183.1427817862813
z" fill="none" stroke="none"></path>
<circle cx="0" cy="0" r="9.605701756473689" fill="#de786a">
  <animateMotion begin="-9.681402778659859s" dur="10s" repeatCount="indefinite">
    <mpath xlink:href="#path47"></mpath>
  </animateMotion>
</circle><path id="path48" d="M 80.01575979433632 567.426781251549
c 0 27.960882406250334 -6.841492503656996 8.031317286901691 -14.872809790558687 8.031317286901691
S 50.27014021321894 595.3876636577993 50.27014021321894 567.426781251549
s 6.841492503656996 -8.031317286901691 14.872809790558687 -8.031317286901691
S 80.01575979433632 539.4658988452986 80.01575979433632 567.426781251549
z" fill="none" stroke="none"></path>
<circle cx="0" cy="0" r="6.5801180661503516" fill="#de786a">
  <animateMotion begin="-9.915555772447938s" dur="10s" repeatCount="indefinite">
    <mpath xlink:href="#path48"></mpath>
  </animateMotion>
</circle><path id="path49" d="M 836.9939176122953 237.40871221428685
c 0 31.19405048072809 -7.632586819752617 8.959993223187857 -16.592580042940472 8.959993223187857
S 803.8087575264144 268.6027626950149 803.8087575264144 237.40871221428685
s 7.632586819752617 -8.959993223187857 16.592580042940472 -8.959993223187857
S 836.9939176122953 206.21466173355876 836.9939176122953 237.40871221428685
z" fill="none" stroke="none"></path>
<circle cx="0" cy="0" r="7.007187929982841" fill="#376888">
  <animateMotion begin="-0.8098421534248779s" dur="10s" repeatCount="indefinite">
    <mpath xlink:href="#path49"></mpath>
  </animateMotion>
</circle><path id="path50" d="M 902.1255873246315 295.98365740840063
c 0 20.925257326738755 -5.120009771436078 6.010446253424962 -11.13045602486104 6.010446253424962
S 879.8646752749095 316.9089147351394 879.8646752749095 295.98365740840063
s 5.120009771436078 -6.010446253424962 11.13045602486104 -6.010446253424962
S 902.1255873246315 275.0584000816619 902.1255873246315 295.98365740840063
z" fill="none" stroke="none"></path>
<circle cx="0" cy="0" r="7.748285757771525" fill="#de786a">
  <animateMotion begin="-7.260738062093317s" dur="10s" repeatCount="indefinite">
    <mpath xlink:href="#path50"></mpath>
  </animateMotion>
</circle><path id="path51" d="M 266.361919342943 79.64775813913127
c 0 29.93645660219046 -7.324877679259367 8.598769449565346 -15.923647128824712 8.598769449565346
S 234.5146250852936 109.58421474132173 234.5146250852936 79.64775813913127
s 7.324877679259367 -8.598769449565346 15.923647128824712 -8.598769449565346
S 266.361919342943 49.71130153694081 266.361919342943 79.64775813913127
z" fill="none" stroke="none"></path>
<circle cx="0" cy="0" r="10.197502758631693" fill="#8cd0e5">
  <animateMotion begin="-9.269081069984988s" dur="10s" repeatCount="indefinite">
    <mpath xlink:href="#path51"></mpath>
  </animateMotion>
</circle><path id="path52" d="M 777.2219922628284 352.18863066334563
c 0 30.3118509074991 -7.4167294773668 8.706595473430593 -16.123324950797393 8.706595473430593
S 744.9753423612336 382.5004815708447 744.9753423612336 352.18863066334563
s 7.4167294773668 -8.706595473430593 16.123324950797393 -8.706595473430593
S 777.2219922628284 321.87677975584654 777.2219922628284 352.18863066334563
z" fill="none" stroke="none"></path>
<circle cx="0" cy="0" r="9.975062443669952" fill="#8cd0e5">
  <animateMotion begin="-7.585880462254606s" dur="10s" repeatCount="indefinite">
    <mpath xlink:href="#path52"></mpath>
  </animateMotion>
</circle><path id="path53" d="M 671.112431472353 411.4712513111616
c 0 24.290946686529686 -5.943529508406199 6.977186814215973 -12.920716322622173 6.977186814215973
S 645.2709988271087 435.7621979976913 645.2709988271087 411.4712513111616
s 5.943529508406199 -6.977186814215973 12.920716322622173 -6.977186814215973
S 671.112431472353 387.1803046246319 671.112431472353 411.4712513111616
z" fill="none" stroke="none"></path>
<circle cx="0" cy="0" r="10.036803363905618" fill="#826b88">
  <animateMotion begin="-3.563030277175858s" dur="10s" repeatCount="indefinite">
    <mpath xlink:href="#path53"></mpath>
  </animateMotion>
</circle><path id="path54" d="M 641.4920146802261 101.98463802885219
c 0 34.13645544104792 -8.352536969618107 9.805152094769085 -18.157689064387192 9.805152094769085
S 605.1766365514517 136.1210934699001 605.1766365514517 101.98463802885219
s 8.352536969618107 -9.805152094769085 18.157689064387192 -9.805152094769085
S 641.4920146802261 67.84818258780427 641.4920146802261 101.98463802885219
z" fill="none" stroke="none"></path>
<circle cx="0" cy="0" r="8.918698517285994" fill="#fcddc9">
  <animateMotion begin="-7.1730373934360365s" dur="10s" repeatCount="indefinite">
    <mpath xlink:href="#path54"></mpath>
  </animateMotion>
</circle><path id="path55" d="M 599.5149884330801 140.08629752347528
c 0 22.05782149567531 -5.397126536175874 6.335757238119504 -11.732883774295377 6.335757238119504
S 576.0492208844894 162.1441190191506 576.0492208844894 140.08629752347528
s 5.397126536175874 -6.335757238119504 11.732883774295377 -6.335757238119504
S 599.5149884330801 118.02847602779997 599.5149884330801 140.08629752347528
z" fill="none" stroke="none"></path>
<circle cx="0" cy="0" r="9.990488690285865" fill="#f8b976">
  <animateMotion begin="-7.626648605334989s" dur="10s" repeatCount="indefinite">
    <mpath xlink:href="#path55"></mpath>
  </animateMotion>
</circle><path id="path56" d="M 942.1003931942366 408.3751466283513
c 0 33.475652111614515 -8.190851048586529 9.615346883123317 -17.806197931709846 9.615346883123317
S 906.4879973308168 441.8507987399658 906.4879973308168 408.3751466283513
s 8.190851048586529 -9.615346883123317 17.806197931709846 -9.615346883123317
S 942.1003931942366 374.89949451673675 942.1003931942366 408.3751466283513
z" fill="none" stroke="none"></path>
<circle cx="0" cy="0" r="6.103737483883156" fill="#376888">
  <animateMotion begin="-4.906740746762555s" dur="10s" repeatCount="indefinite">
    <mpath xlink:href="#path56"></mpath>
  </animateMotion>
</circle><path id="path57" d="M 888.1654384137844 364.228352751163
c 0 26.41074222338751 -6.462202884445879 7.5860642556538584 -14.048267140099737 7.5860642556538584
S 860.068904133585 390.6390949745505 860.068904133585 364.228352751163
s 6.462202884445879 -7.5860642556538584 14.048267140099737 -7.5860642556538584
S 888.1654384137844 337.8176105277755 888.1654384137844 364.228352751163
z" fill="none" stroke="none"></path>
<circle cx="0" cy="0" r="9.874827388044636" fill="#f8b976">
  <animateMotion begin="-1.8693138647256968s" dur="10s" repeatCount="indefinite">
    <mpath xlink:href="#path57"></mpath>
  </animateMotion>
</circle><path id="path58" d="M 445.5853136796411 15.958935583458977
c 0 35.93163766259179 -8.791783683400118 10.32078954138275 -19.112573224782867 10.32078954138275
S 407.3601672300754 51.890573246050764 407.3601672300754 15.958935583458977
s 8.791783683400118 -10.32078954138275 19.112573224782867 -10.32078954138275
S 445.5853136796411 -19.972702079132812 445.5853136796411 15.958935583458977
z" fill="none" stroke="none"></path>
<circle cx="0" cy="0" r="9.483658902045931" fill="#8cd0e5">
  <animateMotion begin="-5.26789047097582s" dur="10s" repeatCount="indefinite">
    <mpath xlink:href="#path58"></mpath>
  </animateMotion>
</circle><path id="path59" d="M 595.1857298537054 76.71805501634951
c 0 30.748604916602826 -7.52359482001984 8.832046093066769 -16.35564091308661 8.832046093066769
S 562.4744480275322 107.46665993295234 562.4744480275322 76.71805501634951
s 7.52359482001984 -8.832046093066769 16.35564091308661 -8.832046093066769
S 595.1857298537054 45.96945009974668 595.1857298537054 76.71805501634951
z" fill="none" stroke="none"></path>
<circle cx="0" cy="0" r="9.652733384120086" fill="#376888">
  <animateMotion begin="-5.371855367825655s" dur="10s" repeatCount="indefinite">
    <mpath xlink:href="#path59"></mpath>
  </animateMotion>
</circle><path id="path60" d="M 994.8971405901407 481.24016882598136
c 0 32.30686435400152 -7.904871065340795 9.279631250617458 -17.18450231595825 9.279631250617458
S 960.5281359582241 513.5470331799829 960.5281359582241 481.24016882598136
s 7.904871065340795 -9.279631250617458 17.18450231595825 -9.279631250617458
S 994.8971405901407 448.93330447197985 994.8971405901407 481.24016882598136
z" fill="none" stroke="none"></path>
<circle cx="0" cy="0" r="10.086723901022884" fill="#826b88">
  <animateMotion begin="-5.084740605649061s" dur="10s" repeatCount="indefinite">
    <mpath xlink:href="#path60"></mpath>
  </animateMotion>
</circle><path id="path61" d="M 502.3643181318769 198.76846359965052
c 0 24.04923750309087 -5.884387899692446 6.907759708334612 -12.792147608027058 6.907759708334612
S 476.7800229158228 222.81770110274138 476.7800229158228 198.76846359965052
s 5.884387899692446 -6.907759708334612 12.792147608027058 -6.907759708334612
S 502.3643181318769 174.71922609655965 502.3643181318769 198.76846359965052
z" fill="none" stroke="none"></path>
<circle cx="0" cy="0" r="11.89760910102056" fill="#de786a">
  <animateMotion begin="-9.2598388746706s" dur="10s" repeatCount="indefinite">
    <mpath xlink:href="#path61"></mpath>
  </animateMotion>
</circle><path id="path62" d="M 332.007242195558 174.52472380239894
c 0 24.08197338000661 -5.89239774191651 6.917162566597644 -12.809560308514154 6.917162566597644
S 306.38812157852965 198.60669718240555 306.38812157852965 174.52472380239894
s 5.89239774191651 -6.917162566597644 12.809560308514154 -6.917162566597644
S 332.007242195558 150.44275042239232 332.007242195558 174.52472380239894
z" fill="none" stroke="none"></path>
<circle cx="0" cy="0" r="9.380957589498959" fill="#826b88">
  <animateMotion begin="-1.72360699906015s" dur="10s" repeatCount="indefinite">
    <mpath xlink:href="#path62"></mpath>
  </animateMotion>
</circle><path id="path63" d="M 298.7823347507801 275.05059376445575
c 0 36.22154851495226 -8.862719317488319 10.404061807486288 -19.266781124974607 10.404061807486288
S 260.24877250083085 311.272142279408 260.24877250083085 275.05059376445575
s 8.862719317488319 -10.404061807486288 19.266781124974607 -10.404061807486288
S 298.7823347507801 238.8290452495035 298.7823347507801 275.05059376445575
z" fill="none" stroke="none"></path>
<circle cx="0" cy="0" r="7.201236329916037" fill="#8cd0e5">
  <animateMotion begin="-6.627391471923385s" dur="10s" repeatCount="indefinite">
    <mpath xlink:href="#path63"></mpath>
  </animateMotion>
</circle><path id="path64" d="M 260.1391565442273 299.8850711253892
c 0 31.27932345259685 -7.653451483082207 8.984486523618244 -16.637938006700452 8.984486523618244
S 226.8632805308264 331.164394577986 226.8632805308264 299.8850711253892
s 7.653451483082207 -8.984486523618244 16.637938006700452 -8.984486523618244
S 260.1391565442273 268.60574767279235 260.1391565442273 299.8850711253892
z" fill="none" stroke="none"></path>
<circle cx="0" cy="0" r="6.673213610266316" fill="#376888">
  <animateMotion begin="-4.372422410731785s" dur="10s" repeatCount="indefinite">
    <mpath xlink:href="#path64"></mpath>
  </animateMotion>
</circle><path id="path65" d="M 105.69794744852163 235.89108065887285
c 0 19.46054794603092 -4.76162343360331 5.589731856838669 -10.35135529044198 5.589731856838669
S 84.99523686763769 255.35162860490377 84.99523686763769 235.89108065887285
s 4.76162343360331 -5.589731856838669 10.35135529044198 -5.589731856838669
S 105.69794744852163 216.43053271284194 105.69794744852163 235.89108065887285
z" fill="none" stroke="none"></path>
<circle cx="0" cy="0" r="7.481702093760102" fill="#de786a">
  <animateMotion begin="-7.485657671098231s" dur="10s" repeatCount="indefinite">
    <mpath xlink:href="#path65"></mpath>
  </animateMotion>
</circle><path id="path66" d="M 1038.1882569415425 526.7692938265897
c 0 23.79453915183489 -5.8220680903425786 6.834601671271725 -12.656669761614303 6.834601671271725
S 1012.8749174183139 550.5638329784246 1012.8749174183139 526.7692938265897
s 5.8220680903425786 -6.834601671271725 12.656669761614303 -6.834601671271725
S 1038.1882569415425 502.97475467475476 1038.1882569415425 526.7692938265897
z" fill="none" stroke="none"></path>
<circle cx="0" cy="0" r="11.124409885325402" fill="#826b88">
  <animateMotion begin="-0.2917517756202659s" dur="10s" repeatCount="indefinite">
    <mpath xlink:href="#path66"></mpath>
  </animateMotion>
</circle><path id="path67" d="M 968.3250444959713 515.1711533628185
c 0 21.663521765175428 -5.3006489425429235 6.222500932550389 -11.523149875093313 6.222500932550389
S 945.2787447457847 536.8346751279939 945.2787447457847 515.1711533628185
s 5.3006489425429235 -6.222500932550389 11.523149875093313 -6.222500932550389
S 968.3250444959713 493.50763159764307 968.3250444959713 515.1711533628185
z" fill="none" stroke="none"></path>
<circle cx="0" cy="0" r="6.5951328305812975" fill="#f8b976">
  <animateMotion begin="-3.307192442729716s" dur="10s" repeatCount="indefinite">
    <mpath xlink:href="#path67"></mpath>
  </animateMotion>
</circle><path id="path68" d="M 1121.539403057291 19.83740247215048
c 0 27.608599266403907 -6.755295565183934 7.9301295765202715 -14.685425141704204 7.9301295765202715
S 1092.1685527738828 47.446001738554386 1092.1685527738828 19.83740247215048
s 6.755295565183934 -7.9301295765202715 14.685425141704204 -7.9301295765202715
S 1121.539403057291 -7.771196794253427 1121.539403057291 19.83740247215048
z" fill="none" stroke="none"></path>
<circle cx="0" cy="0" r="7.6058061081141375" fill="#826b88">
  <animateMotion begin="-4.2007299538456255s" dur="10s" repeatCount="indefinite">
    <mpath xlink:href="#path68"></mpath>
  </animateMotion>
</circle><path id="path69" d="M 798.5875920045215 287.9703748053798
c 0 19.802775351982802 -4.845359926548983 5.6880312181227195 -10.533391144671702 5.6880312181227195
S 777.5208097151782 307.7731501573626 777.5208097151782 287.9703748053798
s 4.845359926548983 -5.6880312181227195 10.533391144671702 -5.6880312181227195
S 798.5875920045215 268.167599453397 798.5875920045215 287.9703748053798
z" fill="none" stroke="none"></path>
<circle cx="0" cy="0" r="11.477807504044378" fill="#826b88">
  <animateMotion begin="-5.03653811153181s" dur="10s" repeatCount="indefinite">
    <mpath xlink:href="#path69"></mpath>
  </animateMotion>
</circle><path id="path70" d="M 856.386361054257 482.7599014526905
c 0 30.13485080316772 -7.373420941200611 8.655755017931154 -16.029175959131766 8.655755017931154
S 824.3280091359935 512.8947522558582 824.3280091359935 482.7599014526905
s 7.373420941200611 -8.655755017931154 16.029175959131766 -8.655755017931154
S 856.386361054257 452.6250506495228 856.386361054257 482.7599014526905
z" fill="none" stroke="none"></path>
<circle cx="0" cy="0" r="10.398856287916423" fill="#826b88">
  <animateMotion begin="-7.203402245677395s" dur="10s" repeatCount="indefinite">
    <mpath xlink:href="#path70"></mpath>
  </animateMotion>
</circle><path id="path71" d="M 762.2225590079636 44.8175473274399
c 0 32.87471338410622 -8.043812849302585 9.44273682309434 -17.486549672396926 9.44273682309434
S 727.2494596631698 77.69226071154611 727.2494596631698 44.8175473274399
s 8.043812849302585 -9.44273682309434 17.486549672396926 -9.44273682309434
S 762.2225590079636 11.942833943333675 762.2225590079636 44.8175473274399
z" fill="none" stroke="none"></path>
<circle cx="0" cy="0" r="9.275834390853822" fill="#8cd0e5">
  <animateMotion begin="-5.904891576697335s" dur="10s" repeatCount="indefinite">
    <mpath xlink:href="#path71"></mpath>
  </animateMotion>
</circle><path id="path72" d="M 470.06810475853064 248.79631333936115
c 0 36.846034275672565 -9.015519024898605 10.583435377054887 -19.598954401953492 10.583435377054887
S 430.8701959546236 285.6423476150337 430.8701959546236 248.79631333936115
s 9.015519024898605 -10.583435377054887 19.598954401953492 -10.583435377054887
S 470.06810475853064 211.95027906368858 470.06810475853064 248.79631333936115
z" fill="none" stroke="none"></path>
<circle cx="0" cy="0" r="9.299828118927401" fill="#826b88">
  <animateMotion begin="-1.1851205491175243s" dur="10s" repeatCount="indefinite">
    <mpath xlink:href="#path72"></mpath>
  </animateMotion>
</circle><path id="path73" d="M 483.6512131711642 454.19442817531166
c 0 26.726245027390895 -6.539400379042452 7.676687401484619 -14.216087780527072 7.676687401484619
S 455.2190376101101 480.9206732027026 455.2190376101101 454.19442817531166
s 6.539400379042452 -7.676687401484619 14.216087780527072 -7.676687401484619
S 483.6512131711642 427.46818314792074 483.6512131711642 454.19442817531166
z" fill="none" stroke="none"></path>
<circle cx="0" cy="0" r="6.171136760618876" fill="#376888">
  <animateMotion begin="-6.203109048453492s" dur="10s" repeatCount="indefinite">
    <mpath xlink:href="#path73"></mpath>
  </animateMotion>
</circle><path id="path74" d="M 746.6405624918541 451.9202216036528
c 0 25.039962068022263 -6.126799229409702 7.1923295301766075 -13.31912875958631 7.1923295301766075
S 720.0023049726815 476.96018367167505 720.0023049726815 451.9202216036528
s 6.126799229409702 -7.1923295301766075 13.31912875958631 -7.1923295301766075
S 746.6405624918541 426.88025953563056 746.6405624918541 451.9202216036528
z" fill="none" stroke="none"></path>
<circle cx="0" cy="0" r="8.791434414949213" fill="#826b88">
  <animateMotion begin="-2.3798768651868807s" dur="10s" repeatCount="indefinite">
    <mpath xlink:href="#path74"></mpath>
  </animateMotion>
</circle><path id="path75" d="M 1235.510110866474 523.1518888471044
c 0 26.934839689787733 -6.5904394985650825 7.73660288961988 -14.327042388184964 7.73660288961988
S 1206.856026090104 550.0867285368921 1206.856026090104 523.1518888471044
s 6.5904394985650825 -7.73660288961988 14.327042388184964 -7.73660288961988
S 1235.510110866474 496.21704915731664 1235.510110866474 523.1518888471044
z" fill="none" stroke="none"></path>
<circle cx="0" cy="0" r="11.578023301633415" fill="#de786a">
  <animateMotion begin="-9.665323390126126s" dur="10s" repeatCount="indefinite">
    <mpath xlink:href="#path75"></mpath>
  </animateMotion>
</circle><path id="path76" d="M 401.9137014690918 314.8472282407154
c 0 24.405209162972092 -5.971487348386788 7.010006887236664 -12.981494235623451 7.010006887236664
S 375.95071299784485 339.2524374036875 375.95071299784485 314.8472282407154
s 5.971487348386788 -7.010006887236664 12.981494235623451 -7.010006887236664
S 401.9137014690918 290.44201907774334 401.9137014690918 314.8472282407154
z" fill="none" stroke="none"></path>
<circle cx="0" cy="0" r="11.188651149941428" fill="#f8b976">
  <animateMotion begin="-3.4771282798196834s" dur="10s" repeatCount="indefinite">
    <mpath xlink:href="#path76"></mpath>
  </animateMotion>
</circle><path id="path77" d="M 1039.5463151195538 137.88848216742534
c 0 28.346986861303876 -6.935964870319032 8.142219630374518 -15.078184500693549 8.142219630374518
S 1009.3899461181667 166.2354690287292 1009.3899461181667 137.88848216742534
s 6.935964870319032 -8.142219630374518 15.078184500693549 -8.142219630374518
S 1039.5463151195538 109.54149530612146 1039.5463151195538 137.88848216742534
z" fill="none" stroke="none"></path>
<circle cx="0" cy="0" r="10.16545579062161" fill="#de786a">
  <animateMotion begin="-9.972746413481078s" dur="10s" repeatCount="indefinite">
    <mpath xlink:href="#path77"></mpath>
  </animateMotion>
</circle><path id="path78" d="M 500.421177217948 531.6437322913076
c 0 27.009037955729706 -6.608594393423226 7.757915157496831 -14.366509550920057 7.757915157496831
S 471.6881581161079 558.6527702470373 471.6881581161079 531.6437322913076
s 6.608594393423226 -7.757915157496831 14.366509550920057 -7.757915157496831
S 500.421177217948 504.63469433557793 500.421177217948 531.6437322913076
z" fill="none" stroke="none"></path>
<circle cx="0" cy="0" r="7.651665606276726" fill="#826b88">
  <animateMotion begin="-5.3738713446277036s" dur="10s" repeatCount="indefinite">
    <mpath xlink:href="#path78"></mpath>
  </animateMotion>
</circle><path id="path79" d="M 959.8607267108712 435.33224115552247
c 0 20.179902748831648 -4.937635778969445 5.796355044877175 -10.73399082384662 5.796355044877175
S 938.3927450631779 455.5121439043541 938.3927450631779 435.33224115552247
s 4.937635778969445 -5.796355044877175 10.73399082384662 -5.796355044877175
S 959.8607267108712 415.15233840669083 959.8607267108712 435.33224115552247
z" fill="none" stroke="none"></path>
<circle cx="0" cy="0" r="6.832373935384669" fill="#fcddc9">
  <animateMotion begin="-8.622654516205062s" dur="10s" repeatCount="indefinite">
    <mpath xlink:href="#path79"></mpath>
  </animateMotion>
</circle><path id="path80" d="M 722.9338993620689 25.173098270065665
c 0 33.2234895425513 -8.1291516965817 9.542917209030692 -17.67206890561239 9.542917209030692
S 687.5897615508442 58.396587812616964 687.5897615508442 25.173098270065665
s 8.1291516965817 -9.542917209030692 17.67206890561239 -9.542917209030692
S 722.9338993620689 -8.050391272485633 722.9338993620689 25.173098270065665
z" fill="none" stroke="none"></path>
<circle cx="0" cy="0" r="9.875871668054877" fill="#f8b976">
  <animateMotion begin="-6.64864555732988s" dur="10s" repeatCount="indefinite">
    <mpath xlink:href="#path80"></mpath>
  </animateMotion>
</circle><path id="path81" d="M 170.58986888892 320.52291379300937
c 0 36.28127147220944 -8.877332381498054 10.4212162739325 -19.298548655430555 10.4212162739325
S 131.9927715780589 356.8041852652188 131.9927715780589 320.52291379300937
s 8.877332381498054 -10.4212162739325 19.298548655430555 -10.4212162739325
S 170.58986888892 284.24164232079994 170.58986888892 320.52291379300937
z" fill="none" stroke="none"></path>
<circle cx="0" cy="0" r="7.513723049520882" fill="#de786a">
  <animateMotion begin="-7.242101618994807s" dur="10s" repeatCount="indefinite">
    <mpath xlink:href="#path81"></mpath>
  </animateMotion>
</circle><path id="path82" d="M 742.8487948577069 422.30453892412135
c 0 33.47375365512434 -8.190386532636806 9.614801581791033 -17.80518811442784 9.614801581791033
S 707.2384186288512 455.77829257924566 707.2384186288512 422.30453892412135
s 8.190386532636806 -9.614801581791033 17.80518811442784 -9.614801581791033
S 742.8487948577069 388.83078526899703 742.8487948577069 422.30453892412135
z" fill="none" stroke="none"></path>
<circle cx="0" cy="0" r="6.001338466120175" fill="#de786a">
  <animateMotion begin="-2.1611525077711136s" dur="10s" repeatCount="indefinite">
    <mpath xlink:href="#path82"></mpath>
  </animateMotion>
</circle><path id="path83" d="M 1019.4490746485618 388.44436410332634
c 0 33.25224709058737 -8.136188117909674 9.551177355807011 -17.687365473716685 9.551177355807011
S 984.0743437011284 421.6966111939137 984.0743437011284 388.44436410332634
s 8.136188117909674 -9.551177355807011 17.687365473716685 -9.551177355807011
S 1019.4490746485618 355.19211701273895 1019.4490746485618 388.44436410332634
z" fill="none" stroke="none"></path>
<circle cx="0" cy="0" r="7.971085477065855" fill="#de786a">
  <animateMotion begin="-7.900987461036399s" dur="10s" repeatCount="indefinite">
    <mpath xlink:href="#path83"></mpath>
  </animateMotion>
</circle><path id="path84" d="M 551.3477296092085 193.02404626292937
c 0 22.868562950984604 -5.595499445453679 6.56862978379345 -12.164129229247129 6.56862978379345
S 527.0194711507143 215.89260921391397 527.0194711507143 193.02404626292937
s 5.595499445453679 -6.56862978379345 12.164129229247129 -6.56862978379345
S 551.3477296092085 170.15548331194478 551.3477296092085 193.02404626292937
z" fill="none" stroke="none"></path>
<circle cx="0" cy="0" r="10.296542599924065" fill="#826b88">
  <animateMotion begin="-3.851670453112561s" dur="10s" repeatCount="indefinite">
    <mpath xlink:href="#path84"></mpath>
  </animateMotion>
</circle><path id="path85" d="M 462.23490496430895 214.35386085587578
c 0 31.321767802462723 -7.6638368027302395 8.996677985813761 -16.660514788544 8.996677985813761
S 428.91387538722097 245.6756286583385 428.91387538722097 214.35386085587578
s 7.6638368027302395 -8.996677985813761 16.660514788544 -8.996677985813761
S 462.23490496430895 183.03209305341306 462.23490496430895 214.35386085587578
z" fill="none" stroke="none"></path>
<circle cx="0" cy="0" r="10.919203246830115" fill="#fcddc9">
  <animateMotion begin="-7.375450993884527s" dur="10s" repeatCount="indefinite">
    <mpath xlink:href="#path85"></mpath>
  </animateMotion>
</circle><path id="path86" d="M 690.5375277024348 333.76853620695215
c 0 29.473123448119008 -7.211508928795076 8.465684394672481 -15.677193323467558 8.465684394672481
S 659.1831410554996 363.24165965507115 659.1831410554996 333.76853620695215
s 7.211508928795076 -8.465684394672481 15.677193323467558 -8.465684394672481
S 690.5375277024348 304.29541275883315 690.5375277024348 333.76853620695215
z" fill="none" stroke="none"></path>
<circle cx="0" cy="0" r="10.356842119430093" fill="#de786a">
  <animateMotion begin="-9.552961446683454s" dur="10s" repeatCount="indefinite">
    <mpath xlink:href="#path86"></mpath>
  </animateMotion>
</circle><path id="path87" d="M 934.1100941621954 519.923277771031
c 0 21.054725248733018 -5.1516880927751 6.047633848040335 -11.199321940815434 6.047633848040335
S 911.7114502805645 540.9780030197641 911.7114502805645 519.923277771031
s 5.1516880927751 -6.047633848040335 11.199321940815434 -6.047633848040335
S 934.1100941621954 498.86855252229805 934.1100941621954 519.923277771031
z" fill="none" stroke="none"></path>
<circle cx="0" cy="0" r="6.510637565331439" fill="#376888">
  <animateMotion begin="-4.973150652466137s" dur="10s" repeatCount="indefinite">
    <mpath xlink:href="#path87"></mpath>
  </animateMotion>
</circle><path id="path88" d="M 780.1199383045397 340.04918338746234
c 0 27.504289037142108 -6.729772849513494 7.900168127689755 -14.629940977203248 7.900168127689755
S 750.8600563501333 367.5534724246044 750.8600563501333 340.04918338746234
s 6.729772849513494 -7.900168127689755 14.629940977203248 -7.900168127689755
S 780.1199383045397 312.54489435032025 780.1199383045397 340.04918338746234
z" fill="none" stroke="none"></path>
<circle cx="0" cy="0" r="10.171746184183629" fill="#376888">
  <animateMotion begin="-6.851816940749855s" dur="10s" repeatCount="indefinite">
    <mpath xlink:href="#path88"></mpath>
  </animateMotion>
</circle><path id="path89" d="M 1256.5435041567348 233.67854565070795
c 0 31.968334878468312 -7.822039385157139 9.182394060836643 -17.004433445993783 9.182394060836643
S 1222.5346372647473 265.64688052917626 1222.5346372647473 233.67854565070795
s 7.822039385157139 -9.182394060836643 17.004433445993783 -9.182394060836643
S 1256.5435041567348 201.71021077223963 1256.5435041567348 233.67854565070795
z" fill="none" stroke="none"></path>
<circle cx="0" cy="0" r="10.655397889176145" fill="#de786a">
  <animateMotion begin="-6.959160786250955s" dur="10s" repeatCount="indefinite">
    <mpath xlink:href="#path89"></mpath>
  </animateMotion>
</circle><path id="path90" d="M 1263.6010006667188 100.73093945125038
c 0 25.240011134075573 -6.17574740514615 7.24979043212809 -13.42553783727424 7.24979043212809
S 1236.7499249921702 125.97095058532595 1236.7499249921702 100.73093945125038
s 6.17574740514615 -7.24979043212809 13.42553783727424 -7.24979043212809
S 1263.6010006667188 75.4909283171748 1263.6010006667188 100.73093945125038
z" fill="none" stroke="none"></path>
<circle cx="0" cy="0" r="11.036877930677607" fill="#f8b976">
  <animateMotion begin="-9.168894580527862s" dur="10s" repeatCount="indefinite">
    <mpath xlink:href="#path90"></mpath>
  </animateMotion>
</circle><path id="path91" d="M 1128.300311270912 573.4628883526202
c 0 31.881329387538525 -7.800750807589213 9.157403121952555 -16.95815392954177 9.157403121952555
S 1094.3840034118284 605.3442177401587 1094.3840034118284 573.4628883526202
s 7.800750807589213 -9.157403121952555 16.95815392954177 -9.157403121952555
S 1128.300311270912 541.5815589650817 1128.300311270912 573.4628883526202
z" fill="none" stroke="none"></path>
<circle cx="0" cy="0" r="10.787362798771722" fill="#826b88">
  <animateMotion begin="-2.851360337181259s" dur="10s" repeatCount="indefinite">
    <mpath xlink:href="#path91"></mpath>
  </animateMotion>
</circle><path id="path92" d="M 483.8188143448767 491.2941714338655
c 0 33.94592776087686 -8.305918494682636 9.75042605897527 -18.056344553657905 9.75042605897527
S 447.70612523756097 525.2400991947424 447.70612523756097 491.2941714338655
s 8.305918494682636 -9.75042605897527 18.056344553657905 -9.75042605897527
S 483.8188143448767 457.3482436729886 483.8188143448767 491.2941714338655
z" fill="none" stroke="none"></path>
<circle cx="0" cy="0" r="9.008567586840483" fill="#376888">
  <animateMotion begin="-1.4030619324118376s" dur="10s" repeatCount="indefinite">
    <mpath xlink:href="#path92"></mpath>
  </animateMotion>
</circle><path id="path93" d="M 449.3911846109197 77.84740237473683
c 0 36.53345186845269 -8.939036095472465 10.493651068598114 -19.43268716407058 10.493651068598114
S 410.5258102827786 114.38085424318952 410.5258102827786 77.84740237473683
s 8.939036095472465 -10.493651068598114 19.43268716407058 -10.493651068598114
S 449.3911846109197 41.313950506284144 449.3911846109197 77.84740237473683
z" fill="none" stroke="none"></path>
<circle cx="0" cy="0" r="9.264473708926506" fill="#376888">
  <animateMotion begin="-2.3301713918455813s" dur="10s" repeatCount="indefinite">
    <mpath xlink:href="#path93"></mpath>
  </animateMotion>
</circle><path id="path94" d="M 945.1296729869794 515.3426082586127
c 0 30.834807925548517 -7.5446870456129345 8.85680653180649 -16.401493577419423 8.85680653180649
S 912.3266858321406 546.1774161841612 912.3266858321406 515.3426082586127
s 7.5446870456129345 -8.85680653180649 16.401493577419423 -8.85680653180649
S 945.1296729869794 484.5078003330642 945.1296729869794 515.3426082586127
z" fill="none" stroke="none"></path>
<circle cx="0" cy="0" r="8.96037753059288" fill="#826b88">
  <animateMotion begin="-7.788748285948481s" dur="10s" repeatCount="indefinite">
    <mpath xlink:href="#path94"></mpath>
  </animateMotion>
</circle><path id="path95" d="M 436.4251922288205 14.524337473724442
c 0 28.48761945530408 -6.970374973106317 8.182614098863938 -15.152989071970255 8.182614098863938
S 406.11921408488 43.01195692902852 406.11921408488 14.524337473724442
s 6.970374973106317 -8.182614098863938 15.152989071970255 -8.182614098863938
S 436.4251922288205 -13.96328198157964 436.4251922288205 14.524337473724442
z" fill="none" stroke="none"></path>
<circle cx="0" cy="0" r="10.822663342544956" fill="#376888">
  <animateMotion begin="-2.4965589389605136s" dur="10s" repeatCount="indefinite">
    <mpath xlink:href="#path95"></mpath>
  </animateMotion>
</circle><path id="path96" d="M 662.7619312566655 29.987958883070146
c 0 36.81053263102211 -9.006832452271366 10.57323809614465 -19.580070548416014 10.57323809614465
S 623.6017901598336 66.79849151409226 623.6017901598336 29.987958883070146
s 9.006832452271366 -10.57323809614465 19.580070548416014 -10.57323809614465
S 662.7619312566655 -6.822573747951967 662.7619312566655 29.987958883070146
z" fill="none" stroke="none"></path>
<circle cx="0" cy="0" r="7.239416962501905" fill="#f8b976">
  <animateMotion begin="-9.276537187146559s" dur="10s" repeatCount="indefinite">
    <mpath xlink:href="#path96"></mpath>
  </animateMotion>
</circle><path id="path97" d="M 991.6237887803808 58.90624020168897
c 0 21.347975433382718 -5.223440797529813 6.1318652840567385 -11.355306081586551 6.1318652840567385
S 968.9131766172076 80.25421563507169 968.9131766172076 58.90624020168897
s 5.223440797529813 -6.1318652840567385 11.355306081586551 -6.1318652840567385
S 991.6237887803808 37.55826476830626 991.6237887803808 58.90624020168897
z" fill="none" stroke="none"></path>
<circle cx="0" cy="0" r="9.009412614416814" fill="#f8b976">
  <animateMotion begin="-7.807315684244593s" dur="10s" repeatCount="indefinite">
    <mpath xlink:href="#path97"></mpath>
  </animateMotion>
</circle><path id="path98" d="M 652.5572813091816 127.86130216489154
c 0 34.86728793837253 -8.531357687048596 10.015072067404875 -18.54642975445347 10.015072067404875
S 615.4644218002746 162.72859010326408 615.4644218002746 127.86130216489154
s 8.531357687048596 -10.015072067404875 18.54642975445347 -10.015072067404875
S 652.5572813091816 92.99401422651901 652.5572813091816 127.86130216489154
z" fill="none" stroke="none"></path>
<circle cx="0" cy="0" r="8.185507352090323" fill="#de786a">
  <animateMotion begin="-6.205405991684372s" dur="10s" repeatCount="indefinite">
    <mpath xlink:href="#path98"></mpath>
  </animateMotion>
</circle><path id="path99" d="M 1232.9060909335635 99.28049915991372
c 0 28.12416996605391 -6.881445842757871 8.07821903280272 -14.95966487556059 8.07821903280272
S 1202.9867611824425 127.40466912596763 1202.9867611824425 99.28049915991372
s 6.881445842757871 -8.07821903280272 14.95966487556059 -8.07821903280272
S 1232.9060909335635 71.1563291938598 1232.9060909335635 99.28049915991372
z" fill="none" stroke="none"></path>
<circle cx="0" cy="0" r="7.912512419480642" fill="#8cd0e5">
  <animateMotion begin="-0.2750568980459134s" dur="10s" repeatCount="indefinite">
    <mpath xlink:href="#path99"></mpath>
  </animateMotion>
</circle></g>
</svg>