<?xml version="1.0" encoding="utf-8"?>
<svg xmlns="http://www.w3.org/2000/svg" xmlns:xlink="http://www.w3.org/1999/xlink" style="margin: auto; background: rgb(234, 229, 183); display: block; z-index: 1; position: relative; shape-rendering: auto;" width="1280" height="587" preserveAspectRatio="xMidYMid" viewBox="0 0 1280 587">
<g transform="translate(640,293.5) scale(1,1) translate(-640,-293.5)"><path id="path0" d="M 50.3503629427273 347.2084356800684
c 0 22.78472079760744 -5.574984876010331 6.544547463142563 -12.119532339152894 6.544547463142563
S 26.111298264421517 369.9931564776759 26.111298264421517 347.2084356800684
s 5.574984876010331 -6.544547463142563 12.119532339152894 -6.544547463142563
S 50.3503629427273 324.42371488246096 50.3503629427273 347.2084356800684
z" fill="none" stroke="none"></path>
<circle cx="0" cy="0" r="5.002804378769551" fill="#826b88">
  <animateMotion begin="-7.691108386549963s" dur="10s" repeatCount="indefinite">
    <mpath xlink:href="#path0"></mpath>
  </animateMotion>
</circle><path id="path1" d="M 249.201950993335 21.465176734800693
c 0 35.737322227632625 -8.74423841739947 10.264975533468945 -19.009213950868414 10.264975533468945
S 211.1835230915982 57.20249896243332 211.1835230915982 21.465176734800693
s 8.74423841739947 -10.264975533468945 19.009213950868414 -10.264975533468945
S 249.201950993335 -14.272145492831932 249.201950993335 21.465176734800693
z" fill="none" stroke="none"></path>
<circle cx="0" cy="0" r="6.672406456110644" fill="#fcddc9">
  <animateMotion begin="-4.011816145047868s" dur="10s" repeatCount="indefinite">
    <mpath xlink:href="#path1"></mpath>
  </animateMotion>
</circle><path id="path2" d="M 409.90577021812004 333.72836003920764
c 0 36.841262374072684 -9.014351431953953 10.582064724467685 -19.59641615642164 10.582064724467685
S 370.71293790527676 370.56962241328034 370.71293790527676 333.72836003920764
s 9.014351431953953 -10.582064724467685 19.59641615642164 -10.582064724467685
S 409.90577021812004 296.88709766513495 409.90577021812004 333.72836003920764
z" fill="none" stroke="none"></path>
<circle cx="0" cy="0" r="6.438044490904366" fill="#de786a">
  <animateMotion begin="-2.327252514340701s" dur="10s" repeatCount="indefinite">
    <mpath xlink:href="#path2"></mpath>
  </animateMotion>
</circle><path id="path3" d="M 634.3506535586502 321.178384429666
c 0 30.102974211707973 -7.365621349673226 8.646598975703354 -16.012220325376582 8.646598975703354
S 602.326212907897 351.28135864137397 602.326212907897 321.178384429666
s 7.365621349673226 -8.646598975703354 16.012220325376582 -8.646598975703354
S 634.3506535586502 291.075410217958 634.3506535586502 321.178384429666
z" fill="none" stroke="none"></path>
<circle cx="0" cy="0" r="3.801220995477669" fill="#f8b976">
  <animateMotion begin="-7.763091554565127s" dur="10s" repeatCount="indefinite">
    <mpath xlink:href="#path3"></mpath>
  </animateMotion>
</circle><path id="path4" d="M 164.22595234619516 170.96735283234338
c 0 37.49193426419594 -9.173558383792622 10.768959841843516 -19.94251822563614 10.768959841843516
S 124.34091589492287 208.45928709653933 124.34091589492287 170.96735283234338
s 9.173558383792622 -10.768959841843516 19.94251822563614 -10.768959841843516
S 164.22595234619516 133.47541856814743 164.22595234619516 170.96735283234338
z" fill="none" stroke="none"></path>
<circle cx="0" cy="0" r="6.960618911766384" fill="#fcddc9">
  <animateMotion begin="-7.672219979282165s" dur="10s" repeatCount="indefinite">
    <mpath xlink:href="#path4"></mpath>
  </animateMotion>
</circle><path id="path5" d="M 51.638062019108474 348.80942216976365
c 0 30.624885221500826 -7.493322979728924 8.796509584899173 -16.289832564628096 8.796509584899173
S 19.05839688985228 379.4343073912645 19.05839688985228 348.80942216976365
s 7.493322979728924 -8.796509584899173 16.289832564628096 -8.796509584899173
S 51.638062019108474 318.1845369482628 51.638062019108474 348.80942216976365
z" fill="none" stroke="none"></path>
<circle cx="0" cy="0" r="4.51332996575416" fill="#376888">
  <animateMotion begin="-0.9234351381217354s" dur="10s" repeatCount="indefinite">
    <mpath xlink:href="#path5"></mpath>
  </animateMotion>
</circle><path id="path6" d="M 1154.7281320814734 243.90262103678256
c 0 25.01296226584745 -6.120192894835013 7.184574267849799 -13.304767162684811 7.184574267849799
S 1128.1185977561038 268.91558330263 1128.1185977561038 243.90262103678256
s 6.120192894835013 -7.184574267849799 13.304767162684811 -7.184574267849799
S 1154.7281320814734 218.8896587709351 1154.7281320814734 243.90262103678256
z" fill="none" stroke="none"></path>
<circle cx="0" cy="0" r="7.4717733607732475" fill="#376888">
  <animateMotion begin="-6.434931941577808s" dur="10s" repeatCount="indefinite">
    <mpath xlink:href="#path6"></mpath>
  </animateMotion>
</circle><path id="path7" d="M 1142.7600753301908 510.06916847235567
c 0 29.116303958253358 -7.124202032338587 8.363193690136603 -15.48739572247519 8.363193690136603
S 1111.7852838852405 539.185472430609 1111.7852838852405 510.06916847235567
s 7.124202032338587 -8.363193690136603 15.48739572247519 -8.363193690136603
S 1142.7600753301908 480.9528645141023 1142.7600753301908 510.06916847235567
z" fill="none" stroke="none"></path>
<circle cx="0" cy="0" r="6.166633051714554" fill="#376888">
  <animateMotion begin="-6.105342648607133s" dur="10s" repeatCount="indefinite">
    <mpath xlink:href="#path7"></mpath>
  </animateMotion>
</circle><path id="path8" d="M 29.456556274025285 400.7794699537471
c 0 20.58723590025143 -5.037302401125349 5.913354992625411 -10.95065739375076 5.913354992625411
S 7.555241486523766 421.3667058539985 7.555241486523766 400.7794699537471
s 5.037302401125349 -5.913354992625411 10.95065739375076 -5.913354992625411
S 29.456556274025285 380.19223405349567 29.456556274025285 400.7794699537471
z" fill="none" stroke="none"></path>
<circle cx="0" cy="0" r="4.65401241715182" fill="#376888">
  <animateMotion begin="-0.6159503875241179s" dur="10s" repeatCount="indefinite">
    <mpath xlink:href="#path8"></mpath>
  </animateMotion>
</circle><path id="path9" d="M 20.673162369532292 211.66840190086162
c 0 24.599307443210613 -6.018979480785575 7.065758520922198 -13.084738001707771 7.065758520922198
S -5.496313633883251 236.26770934407224 -5.496313633883251 211.66840190086162
s 6.018979480785575 -7.065758520922198 13.084738001707771 -7.065758520922198
S 20.673162369532292 187.069094457651 20.673162369532292 211.66840190086162
z" fill="none" stroke="none"></path>
<circle cx="0" cy="0" r="6.355117645889653" fill="#826b88">
  <animateMotion begin="-8.21258251336462s" dur="10s" repeatCount="indefinite">
    <mpath xlink:href="#path9"></mpath>
  </animateMotion>
</circle><path id="path10" d="M 675.05670771751 465.3669864116051
c 0 24.61835902684435 -6.023641038483191 7.071230784306356 -13.094871822789546 7.071230784306356
S 648.866964071931 489.9853454384495 648.866964071931 465.3669864116051
s 6.023641038483191 -7.071230784306356 13.094871822789546 -7.071230784306356
S 675.05670771751 440.74862738476077 675.05670771751 465.3669864116051
z" fill="none" stroke="none"></path>
<circle cx="0" cy="0" r="7.0541417495704914" fill="#f8b976">
  <animateMotion begin="-7.902005328632413s" dur="10s" repeatCount="indefinite">
    <mpath xlink:href="#path10"></mpath>
  </animateMotion>
</circle><path id="path11" d="M 547.5476366727738 525.9327461868776
c 0 24.538520738097436 -6.004106138045117 7.048298509879051 -13.052404647924167 7.048298509879051
S 521.4428273769255 550.471266924975 521.4428273769255 525.9327461868776
s 6.004106138045117 -7.048298509879051 13.052404647924167 -7.048298509879051
S 547.5476366727738 501.39422544878016 547.5476366727738 525.9327461868776
z" fill="none" stroke="none"></path>
<circle cx="0" cy="0" r="6.962642734057606" fill="#8cd0e5">
  <animateMotion begin="-8.096163581309618s" dur="10s" repeatCount="indefinite">
    <mpath xlink:href="#path11"></mpath>
  </animateMotion>
</circle><path id="path12" d="M 661.7237398328285 18.482945167936425
c 0 36.34920042474075 -8.89395329541529 10.440727781574472 -19.33468107698976 10.440727781574472
S 623.0543776788489 54.83214559267718 623.0543776788489 18.482945167936425
s 8.89395329541529 -10.440727781574472 19.33468107698976 -10.440727781574472
S 661.7237398328285 -17.866255256804326 661.7237398328285 18.482945167936425
z" fill="none" stroke="none"></path>
<circle cx="0" cy="0" r="4.4228730219052395" fill="#8cd0e5">
  <animateMotion begin="-7.6682511067347425s" dur="10s" repeatCount="indefinite">
    <mpath xlink:href="#path12"></mpath>
  </animateMotion>
</circle><path id="path13" d="M 719.4290820348027 435.98238769330806
c 0 32.49132425413156 -7.950004870691765 9.332614413420767 -17.28261928411253 9.332614413420767
S 684.8638434665776 468.4737119474396 684.8638434665776 435.98238769330806
s 7.950004870691765 -9.332614413420767 17.28261928411253 -9.332614413420767
S 719.4290820348027 403.4910634391765 719.4290820348027 435.98238769330806
z" fill="none" stroke="none"></path>
<circle cx="0" cy="0" r="4.498873201207889" fill="#f8b976">
  <animateMotion begin="-6.506150462990689s" dur="10s" repeatCount="indefinite">
    <mpath xlink:href="#path13"></mpath>
  </animateMotion>
</circle><path id="path14" d="M 1005.7232112143276 73.3691614495824
c 0 35.777500156965964 -8.754069187342735 10.276516002532777 -19.03058518987551 10.276516002532777
S 967.6620408345766 109.14666160654838 967.6620408345766 73.3691614495824
s 8.754069187342735 -10.276516002532777 19.03058518987551 -10.276516002532777
S 1005.7232112143276 37.59166129261644 1005.7232112143276 73.3691614495824
z" fill="none" stroke="none"></path>
<circle cx="0" cy="0" r="7.240750470336996" fill="#826b88">
  <animateMotion begin="-3.240560932413352s" dur="10s" repeatCount="indefinite">
    <mpath xlink:href="#path14"></mpath>
  </animateMotion>
</circle><path id="path15" d="M 1150.263565337311 459.39619999816597
c 0 22.860711906989135 -5.593578445327128 6.566374696688368 -12.159953142015496 6.566374696688368
S 1125.9436590532803 482.2569119051551 1125.9436590532803 459.39619999816597
s 5.593578445327128 -6.566374696688368 12.159953142015496 -6.566374696688368
S 1150.263565337311 436.53548809117683 1150.263565337311 459.39619999816597
z" fill="none" stroke="none"></path>
<circle cx="0" cy="0" r="7.322850508503937" fill="#826b88">
  <animateMotion begin="-3.654156269010822s" dur="10s" repeatCount="indefinite">
    <mpath xlink:href="#path15"></mpath>
  </animateMotion>
</circle><path id="path16" d="M 874.5233613033702 162.91397690838357
c 0 30.0512138526942 -7.3529565809783675 8.631731638539824 -15.98468821951819 8.631731638539824
S 842.5539848643339 192.96519076107776 842.5539848643339 162.91397690838357
s 7.3529565809783675 -8.631731638539824 15.98468821951819 -8.631731638539824
S 874.5233613033702 132.86276305568938 874.5233613033702 162.91397690838357
z" fill="none" stroke="none"></path>
<circle cx="0" cy="0" r="5.02483877314083" fill="#8cd0e5">
  <animateMotion begin="-7.709818106895032s" dur="10s" repeatCount="indefinite">
    <mpath xlink:href="#path16"></mpath>
  </animateMotion>
</circle><path id="path17" d="M 199.12345442369872 557.8614727094795
c 0 29.764004400650837 -7.28268192781882 8.549235306569921 -15.831917234388742 8.549235306569921
S 167.4596199549212 587.6254771101303 167.4596199549212 557.8614727094795
s 7.28268192781882 -8.549235306569921 15.831917234388742 -8.549235306569921
S 199.12345442369872 528.0974683088286 199.12345442369872 557.8614727094795
z" fill="none" stroke="none"></path>
<circle cx="0" cy="0" r="4.545478226922024" fill="#fcddc9">
  <animateMotion begin="-5.3706816975226594s" dur="10s" repeatCount="indefinite">
    <mpath xlink:href="#path17"></mpath>
  </animateMotion>
</circle><path id="path18" d="M 622.9280980736611 357.6164790164155
c 0 19.752209933554173 -4.832987536933467 5.673507108574071 -10.506494645507537 5.673507108574071
S 601.9151087826459 377.3686889499697 601.9151087826459 357.6164790164155
s 4.832987536933467 -5.673507108574071 10.506494645507537 -5.673507108574071
S 622.9280980736611 337.8642690828613 622.9280980736611 357.6164790164155
z" fill="none" stroke="none"></path>
<circle cx="0" cy="0" r="3.9567233369214714" fill="#826b88">
  <animateMotion begin="-8.212427143436349s" dur="10s" repeatCount="indefinite">
    <mpath xlink:href="#path18"></mpath>
  </animateMotion>
</circle><path id="path19" d="M 265.783969112924 465.60376618374335
c 0 36.0007793242366 -8.808701324015338 10.340649380365834 -19.14935070438117 10.340649380365834
S 227.48526770416169 501.60454550797994 227.48526770416169 465.60376618374335
s 8.808701324015338 -10.340649380365834 19.14935070438117 -10.340649380365834
S 265.783969112924 429.60298685950676 265.783969112924 465.60376618374335
z" fill="none" stroke="none"></path>
<circle cx="0" cy="0" r="6.415110783134179" fill="#826b88">
  <animateMotion begin="-1.6835139279038458s" dur="10s" repeatCount="indefinite">
    <mpath xlink:href="#path19"></mpath>
  </animateMotion>
</circle><path id="path20" d="M 224.3574276909227 285.29378871270484
c 0 25.097733472130958 -6.14093478573417 7.208923444122722 -13.349858229856892 7.208923444122722
S 197.6577112312089 310.3915221848358 197.6577112312089 285.29378871270484
s 6.14093478573417 -7.208923444122722 13.349858229856892 -7.208923444122722
S 224.3574276909227 260.19605524057386 224.3574276909227 285.29378871270484
z" fill="none" stroke="none"></path>
<circle cx="0" cy="0" r="5.92741821603713" fill="#fcddc9">
  <animateMotion begin="-4.332971851437566s" dur="10s" repeatCount="indefinite">
    <mpath xlink:href="#path20"></mpath>
  </animateMotion>
</circle><path id="path21" d="M 688.2372461310867 29.748360079298802
c 0 34.486431425344804 -8.43816939130777 9.90567711153521 -18.34384650284298 9.90567711153521
S 651.5495531254007 64.23479150464361 651.5495531254007 29.748360079298802
s 8.43816939130777 -9.90567711153521 18.34384650284298 -9.90567711153521
S 688.2372461310867 -4.738071346046002 688.2372461310867 29.748360079298802
z" fill="none" stroke="none"></path>
<circle cx="0" cy="0" r="4.323860198938335" fill="#de786a">
  <animateMotion begin="-5.75189938375773s" dur="10s" repeatCount="indefinite">
    <mpath xlink:href="#path21"></mpath>
  </animateMotion>
</circle><path id="path22" d="M 628.4328971246164 305.00118713885763
c 0 27.050828811665248 -6.61881981562022 7.769918913988954 -14.388738729609173 7.769918913988954
S 599.6554196653981 332.0520159505229 599.6554196653981 305.00118713885763
s 6.61881981562022 -7.769918913988954 14.388738729609173 -7.769918913988954
S 628.4328971246164 277.95035832719236 628.4328971246164 305.00118713885763
z" fill="none" stroke="none"></path>
<circle cx="0" cy="0" r="5.962179944514692" fill="#de786a">
  <animateMotion begin="-0.4633414186682572s" dur="10s" repeatCount="indefinite">
    <mpath xlink:href="#path22"></mpath>
  </animateMotion>
</circle><path id="path23" d="M 666.8885321483364 561.0072683786582
c 0 32.24545481572238 -7.889845327251221 9.261992340686216 -17.151837667937436 9.261992340686216
S 632.5848568124615 593.2527231943806 632.5848568124615 561.0072683786582
s 7.889845327251221 -9.261992340686216 17.151837667937436 -9.261992340686216
S 666.8885321483364 528.7618135629358 666.8885321483364 561.0072683786582
z" fill="none" stroke="none"></path>
<circle cx="0" cy="0" r="4.268297457092095" fill="#376888">
  <animateMotion begin="-7.72852980674682s" dur="10s" repeatCount="indefinite">
    <mpath xlink:href="#path23"></mpath>
  </animateMotion>
</circle><path id="path24" d="M 1198.8880965702297 300.10725153671035
c 0 29.190162513873222 -7.142273806586 8.384408381644436 -15.526682188230437 8.384408381644436
S 1167.834732193769 329.2974140505836 1167.834732193769 300.10725153671035
s 7.142273806586 -8.384408381644436 15.526682188230437 -8.384408381644436
S 1198.8880965702297 270.9170890228371 1198.8880965702297 300.10725153671035
z" fill="none" stroke="none"></path>
<circle cx="0" cy="0" r="5.194331060200607" fill="#fcddc9">
  <animateMotion begin="-4.50768245393105s" dur="10s" repeatCount="indefinite">
    <mpath xlink:href="#path24"></mpath>
  </animateMotion>
</circle><path id="path25" d="M 197.17160390934794 217.51254321746083
c 0 34.49016024216486 -8.439081761380763 9.906748154664376 -18.345829916045137 9.906748154664376
S 160.47994407725764 252.0027034596257 160.47994407725764 217.51254321746083
s 8.439081761380763 -9.906748154664376 18.345829916045137 -9.906748154664376
S 197.17160390934794 183.02238297529595 197.17160390934794 217.51254321746083
z" fill="none" stroke="none"></path>
<circle cx="0" cy="0" r="7.332859733023079" fill="#de786a">
  <animateMotion begin="-8.241245366101047s" dur="10s" repeatCount="indefinite">
    <mpath xlink:href="#path25"></mpath>
  </animateMotion>
</circle><path id="path26" d="M 355.1706823041446 345.9138261420063
c 0 34.91630663830197 -8.543351624265373 10.02915190674631 -18.572503531011684 10.02915190674631
S 318.02567524212117 380.8301327803083 318.02567524212117 345.9138261420063
s 8.543351624265373 -10.02915190674631 18.572503531011684 -10.02915190674631
S 355.1706823041446 310.9975195037043 355.1706823041446 345.9138261420063
z" fill="none" stroke="none"></path>
<circle cx="0" cy="0" r="6.221392284619312" fill="#8cd0e5">
  <animateMotion begin="-8.910870784856414s" dur="10s" repeatCount="indefinite">
    <mpath xlink:href="#path26"></mpath>
  </animateMotion>
</circle><path id="path27" d="M 67.34019721332697 555.2614909081049
c 0 28.266693484719877 -6.916318618601671 8.11915663922805 -15.03547525782972 8.11915663922805
S 37.269246697667526 583.5281843928248 37.269246697667526 555.2614909081049
s 6.916318618601671 -8.11915663922805 15.03547525782972 -8.11915663922805
S 67.34019721332697 526.994797423385 67.34019721332697 555.2614909081049
z" fill="none" stroke="none"></path>
<circle cx="0" cy="0" r="6.169552095298157" fill="#376888">
  <animateMotion begin="-4.500337312783927s" dur="10s" repeatCount="indefinite">
    <mpath xlink:href="#path27"></mpath>
  </animateMotion>
</circle><path id="path28" d="M 1093.8211256456095 356.88958491028734
c 0 19.75042060562816 -4.832549722653699 5.67299315268043 -10.505542875334129 5.67299315268043
S 1072.8100398949412 376.6400055159155 1072.8100398949412 356.88958491028734
s 4.832549722653699 -5.67299315268043 10.505542875334129 -5.67299315268043
S 1093.8211256456095 337.1391643046592 1093.8211256456095 356.88958491028734
z" fill="none" stroke="none"></path>
<circle cx="0" cy="0" r="3.8716045235484913" fill="#376888">
  <animateMotion begin="-3.477180135451954s" dur="10s" repeatCount="indefinite">
    <mpath xlink:href="#path28"></mpath>
  </animateMotion>
</circle><path id="path29" d="M 1048.9896474183997 502.72430874226916
c 0 32.07918235942456 -7.849161641135794 9.214233230898543 -17.063394872034337 9.214233230898543
S 1014.8628576743312 534.8034911016937 1014.8628576743312 502.72430874226916
s 7.849161641135794 -9.214233230898543 17.063394872034337 -9.214233230898543
S 1048.9896474183997 470.6451263828446 1048.9896474183997 502.72430874226916
z" fill="none" stroke="none"></path>
<circle cx="0" cy="0" r="6.185212389533858" fill="#de786a">
  <animateMotion begin="-2.4096526938277485s" dur="10s" repeatCount="indefinite">
    <mpath xlink:href="#path29"></mpath>
  </animateMotion>
</circle><path id="path30" d="M 1256.9899843495957 202.6089515402631
c 0 29.054143942700076 -7.1089926668308685 8.345339217584065 -15.454331884414934 8.345339217584065
S 1226.081320580766 231.66309548296317 1226.081320580766 202.6089515402631
s 7.1089926668308685 -8.345339217584065 15.454331884414934 -8.345339217584065
S 1256.9899843495957 173.554807597563 1256.9899843495957 202.6089515402631
z" fill="none" stroke="none"></path>
<circle cx="0" cy="0" r="4.9330175665398865" fill="#826b88">
  <animateMotion begin="-7.895696632082854s" dur="10s" repeatCount="indefinite">
    <mpath xlink:href="#path30"></mpath>
  </animateMotion>
</circle><path id="path31" d="M 385.63981917015894 186.40959699385658
c 0 25.316018847848895 -6.194345037239622 7.2716224350204275 -13.46596747226005 7.2716224350204275
S 358.70788422563885 211.72561584170546 358.70788422563885 186.40959699385658
s 6.194345037239622 -7.2716224350204275 13.46596747226005 -7.2716224350204275
S 385.63981917015894 161.0935781460077 385.63981917015894 186.40959699385658
z" fill="none" stroke="none"></path>
<circle cx="0" cy="0" r="5.95178354272396" fill="#f8b976">
  <animateMotion begin="-8.371000066234648s" dur="10s" repeatCount="indefinite">
    <mpath xlink:href="#path31"></mpath>
  </animateMotion>
</circle><path id="path32" d="M 281.5074038193898 333.22409091780594
c 0 37.0602073548568 -9.067923076188364 10.644953176395038 -19.712876252583403 10.644953176395038
S 242.08165131422302 370.28429827266274 242.08165131422302 333.22409091780594
s 9.067923076188364 -10.644953176395038 19.712876252583403 -10.644953176395038
S 281.5074038193898 296.16388356294914 281.5074038193898 333.22409091780594
z" fill="none" stroke="none"></path>
<circle cx="0" cy="0" r="3.8022602421655116" fill="#fcddc9">
  <animateMotion begin="-2.424363626432986s" dur="10s" repeatCount="indefinite">
    <mpath xlink:href="#path32"></mpath>
  </animateMotion>
</circle><path id="path33" d="M 1189.9939590352017 375.77719547473174
c 0 23.861533074093842 -5.838460220257003 6.853844606388656 -12.69230482664566 6.853844606388656
S 1164.6093493819105 399.6387285488256 1164.6093493819105 375.77719547473174
s 5.838460220257003 -6.853844606388656 12.69230482664566 -6.853844606388656
S 1189.9939590352017 351.91566240063787 1189.9939590352017 375.77719547473174
z" fill="none" stroke="none"></path>
<circle cx="0" cy="0" r="4.261192032645369" fill="#376888">
  <animateMotion begin="-5.46361418254429s" dur="10s" repeatCount="indefinite">
    <mpath xlink:href="#path33"></mpath>
  </animateMotion>
</circle><path id="path34" d="M 1038.7208506334855 290.92417345065985
c 0 35.233313205825354 -8.62091706099982 10.120206984651965 -18.741124045651784 10.120206984651965
S 1001.238602542182 326.1574866564852 1001.238602542182 290.92417345065985
s 8.62091706099982 -10.120206984651965 18.741124045651784 -10.120206984651965
S 1038.7208506334855 255.69086024483448 1038.7208506334855 290.92417345065985
z" fill="none" stroke="none"></path>
<circle cx="0" cy="0" r="4.906245429522412" fill="#826b88">
  <animateMotion begin="-9.4127598531834s" dur="10s" repeatCount="indefinite">
    <mpath xlink:href="#path34"></mpath>
  </animateMotion>
</circle><path id="path35" d="M 176.9139984254956 197.68154042242034
c 0 30.14862778189133 -7.376791904079793 8.659712235224106 -16.0365041393039 8.659712235224106
S 144.8409901468878 227.83016820431166 144.8409901468878 197.68154042242034
s 7.376791904079793 -8.659712235224106 16.0365041393039 -8.659712235224106
S 176.9139984254956 167.53291264052902 176.9139984254956 197.68154042242034
z" fill="none" stroke="none"></path>
<circle cx="0" cy="0" r="5.395802920659045" fill="#f8b976">
  <animateMotion begin="-9.058372591778241s" dur="10s" repeatCount="indefinite">
    <mpath xlink:href="#path35"></mpath>
  </animateMotion>
</circle><path id="path36" d="M 564.8620633450677 187.3534971800936
c 0 25.323755897220053 -6.196238145064481 7.273844778988739 -13.47008292405322 7.273844778988739
S 537.9218974969612 212.67725307731365 537.9218974969612 187.3534971800936
s 6.196238145064481 -7.273844778988739 13.47008292405322 -7.273844778988739
S 564.8620633450677 162.02974128287354 564.8620633450677 187.3534971800936
z" fill="none" stroke="none"></path>
<circle cx="0" cy="0" r="6.224367317102214" fill="#de786a">
  <animateMotion begin="-3.519591562057378s" dur="10s" repeatCount="indefinite">
    <mpath xlink:href="#path36"></mpath>
  </animateMotion>
</circle><path id="path37" d="M 657.0999173827869 125.39199643690849
c 0 31.206342145309304 -7.635594354703339 8.963523807695227 -16.599118162398565 8.963523807695227
S 623.9016810579898 156.5983385822178 623.9016810579898 125.39199643690849
s 7.635594354703339 -8.963523807695227 16.599118162398565 -8.963523807695227
S 657.0999173827869 94.18565429159918 657.0999173827869 125.39199643690849
z" fill="none" stroke="none"></path>
<circle cx="0" cy="0" r="5.855233382949124" fill="#f8b976">
  <animateMotion begin="-5.586492094070379s" dur="10s" repeatCount="indefinite">
    <mpath xlink:href="#path37"></mpath>
  </animateMotion>
</circle><path id="path38" d="M 639.405721561749 13.989814787182887
c 0 30.37617364833225 -7.432468020336614 8.7250711543082 -16.157539174644814 8.7250711543082
S 607.0906432124593 44.365988435515135 607.0906432124593 13.989814787182887
s 7.432468020336614 -8.7250711543082 16.157539174644814 -8.7250711543082
S 639.405721561749 -16.386358861149365 639.405721561749 13.989814787182887
z" fill="none" stroke="none"></path>
<circle cx="0" cy="0" r="3.752288380676835" fill="#de786a">
  <animateMotion begin="-1.8077806680911035s" dur="10s" repeatCount="indefinite">
    <mpath xlink:href="#path38"></mpath>
  </animateMotion>
</circle><path id="path39" d="M 981.8897434465613 557.773323974901
c 0 22.688114182785082 -5.5513470872772 6.516798754629758 -12.068145841906958 6.516798754629758
S 957.7534517627474 580.4614381576861 957.7534517627474 557.773323974901
s 5.5513470872772 -6.516798754629758 12.068145841906958 -6.516798754629758
S 981.8897434465613 535.085209792116 981.8897434465613 557.773323974901
z" fill="none" stroke="none"></path>
<circle cx="0" cy="0" r="6.430053699733298" fill="#fcddc9">
  <animateMotion begin="-6.994271895279407s" dur="10s" repeatCount="indefinite">
    <mpath xlink:href="#path39"></mpath>
  </animateMotion>
</circle><path id="path40" d="M 902.2431758453334 19.166944961592286
c 0 29.148811383605484 -7.1321559768396385 8.37253092933349 -15.504686906173129 8.37253092933349
S 871.2338020329872 48.31575634519777 871.2338020329872 19.166944961592286
s 7.1321559768396385 -8.37253092933349 15.504686906173129 -8.37253092933349
S 902.2431758453334 -9.981866422013198 902.2431758453334 19.166944961592286
z" fill="none" stroke="none"></path>
<circle cx="0" cy="0" r="4.455949803599063" fill="#376888">
  <animateMotion begin="-6.591801792137328s" dur="10s" repeatCount="indefinite">
    <mpath xlink:href="#path40"></mpath>
  </animateMotion>
</circle><path id="path41" d="M 73.27178684399468 566.7590980447228
c 0 19.505963139095886 -4.772735661693674 5.602776646336053 -10.375512308029727 5.602776646336053
S 52.520762227935215 586.2650611838187 52.520762227935215 566.7590980447228
s 4.772735661693674 -5.602776646336053 10.375512308029727 -5.602776646336053
S 73.27178684399468 547.2531349056269 73.27178684399468 566.7590980447228
z" fill="none" stroke="none"></path>
<circle cx="0" cy="0" r="7.055512492212449" fill="#f8b976">
  <animateMotion begin="-2.3063657170095486s" dur="10s" repeatCount="indefinite">
    <mpath xlink:href="#path41"></mpath>
  </animateMotion>
</circle><path id="path42" d="M 1272.4824446846296 215.88657929640462
c 0 25.514668893427306 -6.242950899455617 7.32868149066529 -13.571632390120907 7.32868149066529
S 1245.339179904388 241.40124818983193 1245.339179904388 215.88657929640462
s 6.242950899455617 -7.32868149066529 13.571632390120907 -7.32868149066529
S 1272.4824446846296 190.3719104029773 1272.4824446846296 215.88657929640462
z" fill="none" stroke="none"></path>
<circle cx="0" cy="0" r="6.382328432481757" fill="#de786a">
  <animateMotion begin="-4.505704432841011s" dur="10s" repeatCount="indefinite">
    <mpath xlink:href="#path42"></mpath>
  </animateMotion>
</circle><path id="path43" d="M 495.6850599628561 24.054024769193184
c 0 32.7660975509195 -8.01723663479945 9.411538658242835 -17.428775293042285 9.411538658242835
S 460.8275093767715 56.82012232011268 460.8275093767715 24.054024769193184
s 8.01723663479945 -9.411538658242835 17.428775293042285 -9.411538658242835
S 495.6850599628561 -8.712072781726313 495.6850599628561 24.054024769193184
z" fill="none" stroke="none"></path>
<circle cx="0" cy="0" r="4.09218004498417" fill="#376888">
  <animateMotion begin="-5.773021897466391s" dur="10s" repeatCount="indefinite">
    <mpath xlink:href="#path43"></mpath>
  </animateMotion>
</circle><path id="path44" d="M 853.055450558996 439.0912142368943
c 0 21.69395764669589 -5.308096019936227 6.2312431538381805 -11.539339173774408 6.2312431538381805
S 829.976772211447 460.7851718835902 829.976772211447 439.0912142368943
s 5.308096019936227 -6.2312431538381805 11.539339173774408 -6.2312431538381805
S 853.055450558996 417.3972565901984 853.055450558996 439.0912142368943
z" fill="none" stroke="none"></path>
<circle cx="0" cy="0" r="7.161422565494632" fill="#826b88">
  <animateMotion begin="-0.3944461224903417s" dur="10s" repeatCount="indefinite">
    <mpath xlink:href="#path44"></mpath>
  </animateMotion>
</circle><path id="path45" d="M 560.9246381026067 63.97120237644265
c 0 32.30707853471799 -7.904923471260783 9.279692770610486 -17.184616241871268 9.279692770610486
S 526.5554056188641 96.27828091116064 526.5554056188641 63.97120237644265
s 7.904923471260783 -9.279692770610486 17.184616241871268 -9.279692770610486
S 560.9246381026067 31.66412384172466 560.9246381026067 63.97120237644265
z" fill="none" stroke="none"></path>
<circle cx="0" cy="0" r="6.255306565608713" fill="#fcddc9">
  <animateMotion begin="-7.359471066482075s" dur="10s" repeatCount="indefinite">
    <mpath xlink:href="#path45"></mpath>
  </animateMotion>
</circle><path id="path46" d="M 791.6869039755787 570.3009468797109
c 0 19.578607433775502 -4.7905103295408145 5.623642560765305 -10.414152890306118 5.623642560765305
S 770.8585981949665 589.8795543134863 770.8585981949665 570.3009468797109
s 4.7905103295408145 -5.623642560765305 10.414152890306118 -5.623642560765305
S 791.6869039755787 550.7223394459354 791.6869039755787 570.3009468797109
z" fill="none" stroke="none"></path>
<circle cx="0" cy="0" r="3.8649073256380686" fill="#826b88">
  <animateMotion begin="-9.047592289996567s" dur="10s" repeatCount="indefinite">
    <mpath xlink:href="#path46"></mpath>
  </animateMotion>
</circle><path id="path47" d="M 980.1952449295768 86.21857511387907
c 0 21.95925819828573 -5.373009984686934 6.3074465037629235 -11.680456488449858 6.3074465037629235
S 956.8343319526771 108.17783331216481 956.8343319526771 86.21857511387907
s 5.373009984686934 -6.3074465037629235 11.680456488449858 -6.3074465037629235
S 980.1952449295768 64.25931691559333 980.1952449295768 86.21857511387907
z" fill="none" stroke="none"></path>
<circle cx="0" cy="0" r="4.792932829583014" fill="#de786a">
  <animateMotion begin="-6.544817991799601s" dur="10s" repeatCount="indefinite">
    <mpath xlink:href="#path47"></mpath>
  </animateMotion>
</circle><path id="path48" d="M 732.0862921933568 154.96857572106254
c 0 27.01586598246821 -6.6102650808166885 7.759876399219592 -14.370141480036281 7.759876399219592
S 703.3460092332842 181.98444170353073 703.3460092332842 154.96857572106254
s 6.6102650808166885 -7.759876399219592 14.370141480036281 -7.759876399219592
S 732.0862921933568 127.95270973859432 732.0862921933568 154.96857572106254
z" fill="none" stroke="none"></path>
<circle cx="0" cy="0" r="3.837138575310895" fill="#376888">
  <animateMotion begin="-2.066597908496952s" dur="10s" repeatCount="indefinite">
    <mpath xlink:href="#path48"></mpath>
  </animateMotion>
</circle><path id="path49" d="M 1096.3219458572848 517.2120494476071
c 0 20.968256513103285 -5.130530848950803 6.022797083550944 -11.153327932501746 6.022797083550944
S 1074.0152899922814 538.1803059607104 1074.0152899922814 517.2120494476071
s 5.130530848950803 -6.022797083550944 11.153327932501746 -6.022797083550944
S 1096.3219458572848 496.24379293450386 1096.3219458572848 517.2120494476071
z" fill="none" stroke="none"></path>
<circle cx="0" cy="0" r="6.827584292419164" fill="#376888">
  <animateMotion begin="-7.023453162142291s" dur="10s" repeatCount="indefinite">
    <mpath xlink:href="#path49"></mpath>
  </animateMotion>
</circle><path id="path50" d="M 1256.5405498293064 397.87540016123984
c 0 33.21781160036234 -8.127762412854613 9.541286310742374 -17.669048723596987 9.541286310742374
S 1221.2024523821126 431.09321176160216 1221.2024523821126 397.87540016123984
s 8.127762412854613 -9.541286310742374 17.669048723596987 -9.541286310742374
S 1256.5405498293064 364.6575885608775 1256.5405498293064 397.87540016123984
z" fill="none" stroke="none"></path>
<circle cx="0" cy="0" r="7.280629649828979" fill="#376888">
  <animateMotion begin="-6.44804709874218s" dur="10s" repeatCount="indefinite">
    <mpath xlink:href="#path50"></mpath>
  </animateMotion>
</circle><path id="path51" d="M 1095.3163614887922 511.8917118310999
c 0 37.41942038905998 -9.15581562711042 10.748131388347016 -19.903947015457433 10.748131388347016
S 1055.5084674578775 549.3111322201598 1055.5084674578775 511.8917118310999
s 9.15581562711042 -10.748131388347016 19.903947015457433 -10.748131388347016
S 1095.3163614887922 474.47229144203993 1095.3163614887922 511.8917118310999
z" fill="none" stroke="none"></path>
<circle cx="0" cy="0" r="4.601595452588725" fill="#f8b976">
  <animateMotion begin="-6.456534351416032s" dur="10s" repeatCount="indefinite">
    <mpath xlink:href="#path51"></mpath>
  </animateMotion>
</circle><path id="path52" d="M 128.77556486538452 176.71372985001653
c 0 34.529769611407396 -8.448773415557127 9.91812531391489 -18.366898729472016 9.91812531391489
S 92.0417674064405 211.24349946142394 92.0417674064405 176.71372985001653
s 8.448773415557127 -9.91812531391489 18.366898729472016 -9.91812531391489
S 128.77556486538452 142.18396023860913 128.77556486538452 176.71372985001653
z" fill="none" stroke="none"></path>
<circle cx="0" cy="0" r="7.166153781936055" fill="#376888">
  <animateMotion begin="-7.2079275906241325s" dur="10s" repeatCount="indefinite">
    <mpath xlink:href="#path52"></mpath>
  </animateMotion>
</circle><path id="path53" d="M 254.06834431526806 450.5386981322282
c 0 23.34762672795851 -5.712717178117507 6.706233209094466 -12.418950387211973 6.706233209094466
S 229.23044354084413 473.88632486018673 229.23044354084413 450.5386981322282
s 5.712717178117507 -6.706233209094466 12.418950387211973 -6.706233209094466
S 254.06834431526806 427.1910714042697 254.06834431526806 450.5386981322282
z" fill="none" stroke="none"></path>
<circle cx="0" cy="0" r="3.7869867238968733" fill="#f8b976">
  <animateMotion begin="-3.5134023611928233s" dur="10s" repeatCount="indefinite">
    <mpath xlink:href="#path53"></mpath>
  </animateMotion>
</circle><path id="path54" d="M 210.22035611364925 54.042713404914366
c 0 32.43323622132124 -7.93579184138711 9.315929552932696 -17.251721394319805 9.315929552932696
S 175.7169133250096 86.4759496262356 175.7169133250096 54.042713404914366
s 7.93579184138711 -9.315929552932696 17.251721394319805 -9.315929552932696
S 210.22035611364925 21.60947718359313 210.22035611364925 54.042713404914366
z" fill="none" stroke="none"></path>
<circle cx="0" cy="0" r="4.191007883822453" fill="#8cd0e5">
  <animateMotion begin="-4.8254004657949245s" dur="10s" repeatCount="indefinite">
    <mpath xlink:href="#path54"></mpath>
  </animateMotion>
</circle></g>
</svg>