<?xml version="1.0" encoding="utf-8"?>
<svg xmlns="http://www.w3.org/2000/svg" xmlns:xlink="http://www.w3.org/1999/xlink" style="margin: auto; background: rgb(243, 240, 215); display: block; z-index: 1; position: relative; shape-rendering: auto;" width="1280" height="587" preserveAspectRatio="xMidYMid" viewBox="0 0 1280 587">
<g transform="translate(640,293.5) scale(1,1) translate(-640,-293.5)"><path id="path0" d="M 770.6798793744013 272.17170671815876
c 0 29.118466515573946 -7.124731168704263 8.363814850218048 -15.48854601892231 8.363814850218048
S 739.7027873365566 301.29017323373273 739.7027873365566 272.17170671815876
s 7.124731168704263 -8.363814850218048 15.48854601892231 -8.363814850218048
S 770.6798793744013 243.05324020258482 770.6798793744013 272.17170671815876
z" fill="none" stroke="none"></path>
<circle cx="0" cy="0" r="3.8347645330072857" fill="#8cd0e5">
  <animateMotion begin="-6.232984653581111s" dur="10s" repeatCount="indefinite">
    <mpath xlink:href="#path0"></mpath>
  </animateMotion>
</circle><path id="path1" d="M 679.0039833705708 460.89301561211914
c 0 32.040516726269544 -7.839700901108505 9.20312714477955 -17.042828045888054 9.20312714477955
S 644.9183272787947 492.93353233838866 644.9183272787947 460.89301561211914
s 7.839700901108505 -9.20312714477955 17.042828045888054 -9.20312714477955
S 679.0039833705708 428.8524988858496 679.0039833705708 460.89301561211914
z" fill="none" stroke="none"></path>
<circle cx="0" cy="0" r="4.53716115202257" fill="#376888">
  <animateMotion begin="-8.737076008132954s" dur="10s" repeatCount="indefinite">
    <mpath xlink:href="#path1"></mpath>
  </animateMotion>
</circle><path id="path2" d="M 1223.0425826421217 471.9378115042063
c 0 29.542686012733455 -7.22852955630712 8.485665131317056 -15.714194687624177 8.485665131317056
S 1191.6141932668731 501.48049751693975 1191.6141932668731 471.9378115042063
s 7.22852955630712 -8.485665131317056 15.714194687624177 -8.485665131317056
S 1223.0425826421217 442.39512549147287 1223.0425826421217 471.9378115042063
z" fill="none" stroke="none"></path>
<circle cx="0" cy="0" r="3.9750179158389316" fill="#fcddc9">
  <animateMotion begin="-5.168399477844603s" dur="10s" repeatCount="indefinite">
    <mpath xlink:href="#path2"></mpath>
  </animateMotion>
</circle><path id="path3" d="M 228.5049346747801 131.09994971950567
c 0 24.58722776309998 -6.016023814375526 7.062288825571271 -13.078312639946796 7.062288825571271
S 202.34830939488648 155.68717748260565 202.34830939488648 131.09994971950567
s 6.016023814375526 -7.062288825571271 13.078312639946796 -7.062288825571271
S 228.5049346747801 106.5127219564057 228.5049346747801 131.09994971950567
z" fill="none" stroke="none"></path>
<circle cx="0" cy="0" r="4.4329647478355465" fill="#de786a">
  <animateMotion begin="-1.293970585259816s" dur="10s" repeatCount="indefinite">
    <mpath xlink:href="#path3"></mpath>
  </animateMotion>
</circle><path id="path4" d="M 911.0151822837362 247.18660889187092
c 0 35.252197948326206 -8.62553779586705 10.12563132558306 -18.751169121450108 10.12563132558306
S 873.5128440408361 282.4388068401971 873.5128440408361 247.18660889187092
s 8.62553779586705 -10.12563132558306 18.751169121450108 -10.12563132558306
S 911.0151822837362 211.93441094354472 911.0151822837362 247.18660889187092
z" fill="none" stroke="none"></path>
<circle cx="0" cy="0" r="4.301753097636934" fill="#376888">
  <animateMotion begin="-3.934091022186801s" dur="10s" repeatCount="indefinite">
    <mpath xlink:href="#path4"></mpath>
  </animateMotion>
</circle><path id="path5" d="M 204.65614436199954 572.5613895076999
c 0 22.934889779862715 -5.611728350391941 6.587681106981844 -12.199409457373784 6.587681106981844
S 180.257325447252 595.4962792875626 180.257325447252 572.5613895076999
s 5.611728350391941 -6.587681106981844 12.199409457373784 -6.587681106981844
S 204.65614436199954 549.6264997278372 204.65614436199954 572.5613895076999
z" fill="none" stroke="none"></path>
<circle cx="0" cy="0" r="4.782173750289701" fill="#376888">
  <animateMotion begin="-0.34334997943109347s" dur="10s" repeatCount="indefinite">
    <mpath xlink:href="#path5"></mpath>
  </animateMotion>
</circle><path id="path6" d="M 116.63839721058781 175.02668967152357
c 0 28.494705525433158 -6.972108798776198 8.18464945943293 -15.156758258209127 8.18464945943293
S 86.32488069416956 203.52139519695672 86.32488069416956 175.02668967152357
s 6.972108798776198 -8.18464945943293 15.156758258209127 -8.18464945943293
S 116.63839721058781 146.53198414609042 116.63839721058781 175.02668967152357
z" fill="none" stroke="none"></path>
<circle cx="0" cy="0" r="3.7557195467632187" fill="#fcddc9">
  <animateMotion begin="-0.21776362125026205s" dur="10s" repeatCount="indefinite">
    <mpath xlink:href="#path6"></mpath>
  </animateMotion>
</circle><path id="path7" d="M 971.8517444887074 409.3897905686639
c 0 30.0915701514114 -7.362830994494279 8.64332334136285 -16.00615433585713 8.64332334136285
S 939.8394358169932 439.4813607200753 939.8394358169932 409.3897905686639
s 7.362830994494279 -8.64332334136285 16.00615433585713 -8.64332334136285
S 971.8517444887074 379.2982204172525 971.8517444887074 409.3897905686639
z" fill="none" stroke="none"></path>
<circle cx="0" cy="0" r="4.405543706618191" fill="#f8b976">
  <animateMotion begin="-3.1016911442971473s" dur="10s" repeatCount="indefinite">
    <mpath xlink:href="#path7"></mpath>
  </animateMotion>
</circle><path id="path8" d="M 1052.7083622709204 110.41563468859441
c 0 30.95797093605986 -7.574822675844432 8.892183141208683 -16.467005817053114 8.892183141208683
S 1019.7743506368141 141.37360562465426 1019.7743506368141 110.41563468859441
s 7.574822675844432 -8.892183141208683 16.467005817053114 -8.892183141208683
S 1052.7083622709204 79.45766375253456 1052.7083622709204 110.41563468859441
z" fill="none" stroke="none"></path>
<circle cx="0" cy="0" r="4.2435336122453" fill="#de786a">
  <animateMotion begin="-6.2219256090798325s" dur="10s" repeatCount="indefinite">
    <mpath xlink:href="#path8"></mpath>
  </animateMotion>
</circle><path id="path9" d="M 297.0319584853248 342.47499417542446
c 0 28.06170731866378 -6.8661624290347545 8.060277634084278 -14.926440063119033 8.060277634084278
S 267.1790783590867 370.5367014940882 267.1790783590867 342.47499417542446
s 6.8661624290347545 -8.060277634084278 14.926440063119033 -8.060277634084278
S 297.0319584853248 314.4132868567607 297.0319584853248 342.47499417542446
z" fill="none" stroke="none"></path>
<circle cx="0" cy="0" r="3.9082544562045762" fill="#fcddc9">
  <animateMotion begin="-9.680926006006967s" dur="10s" repeatCount="indefinite">
    <mpath xlink:href="#path9"></mpath>
  </animateMotion>
</circle><path id="path10" d="M 212.31255771952326 100.49068334341366
c 0 32.36385794148232 -7.91881630483078 9.296001749149177 -17.214818053979958 9.296001749149177
S 177.88292161156332 132.854541284896 177.88292161156332 100.49068334341366
s 7.91881630483078 -9.296001749149177 17.214818053979958 -9.296001749149177
S 212.31255771952326 68.12682540193134 212.31255771952326 100.49068334341366
z" fill="none" stroke="none"></path>
<circle cx="0" cy="0" r="7.00725064561443" fill="#826b88">
  <animateMotion begin="-8.662996078079805s" dur="10s" repeatCount="indefinite">
    <mpath xlink:href="#path10"></mpath>
  </animateMotion>
</circle><path id="path11" d="M 103.56313937322578 255.05415851374448
c 0 20.94846229522797 -5.125687582874928 6.017111510331438 -11.142799093206365 6.017111510331438
S 81.27754118681305 276.00262080897244 81.27754118681305 255.05415851374448
s 5.125687582874928 -6.017111510331438 11.142799093206365 -6.017111510331438
S 103.56313937322578 234.10569621851653 103.56313937322578 255.05415851374448
z" fill="none" stroke="none"></path>
<circle cx="0" cy="0" r="4.572479694405787" fill="#f8b976">
  <animateMotion begin="-9.364349325185458s" dur="10s" repeatCount="indefinite">
    <mpath xlink:href="#path11"></mpath>
  </animateMotion>
</circle><path id="path12" d="M 1165.3146425855093 213.3172857670857
c 0 18.9803864579723 -4.644137112057052 5.451813131545236 -10.095950243602287 5.451813131545236
S 1145.1227420983046 232.29767222505802 1145.1227420983046 213.3172857670857
s 4.644137112057052 -5.451813131545236 10.095950243602287 -5.451813131545236
S 1165.3146425855093 194.3368993091134 1165.3146425855093 213.3172857670857
z" fill="none" stroke="none"></path>
<circle cx="0" cy="0" r="4.863680003676065" fill="#de786a">
  <animateMotion begin="-4.582912693565849s" dur="10s" repeatCount="indefinite">
    <mpath xlink:href="#path12"></mpath>
  </animateMotion>
</circle><path id="path13" d="M 554.7243331931676 406.54058562769984
c 0 20.676474952182765 -5.0591374883000375 5.938987486265262 -10.9981249745653 5.938987486265262
S 532.7280832440371 427.2170605798826 532.7280832440371 406.54058562769984
s 5.0591374883000375 -5.938987486265262 10.9981249745653 -5.938987486265262
S 554.7243331931676 385.86411067551705 554.7243331931676 406.54058562769984
z" fill="none" stroke="none"></path>
<circle cx="0" cy="0" r="4.73413727873641" fill="#8cd0e5">
  <animateMotion begin="-8.361002246595895s" dur="10s" repeatCount="indefinite">
    <mpath xlink:href="#path13"></mpath>
  </animateMotion>
</circle><path id="path14" d="M 1286.5562326107342 97.14960620319151
c 0 36.739168488941566 -8.98937101325166 10.552739885121515 -19.542110898373174 10.552739885121515
S 1247.4720108139877 133.88877469213307 1247.4720108139877 97.14960620319151
s 8.98937101325166 -10.552739885121515 19.542110898373174 -10.552739885121515
S 1286.5562326107342 60.410437714249944 1286.5562326107342 97.14960620319151
z" fill="none" stroke="none"></path>
<circle cx="0" cy="0" r="4.072922839815291" fill="#8cd0e5">
  <animateMotion begin="-2.095174653221088s" dur="10s" repeatCount="indefinite">
    <mpath xlink:href="#path14"></mpath>
  </animateMotion>
</circle><path id="path15" d="M 356.4239346783851 354.1248635575356
c 0 27.350282401519795 -6.69209037483995 7.855932179159941 -14.54802255399989 7.855932179159941
S 327.3278895703853 381.4751459590554 327.3278895703853 354.1248635575356
s 6.69209037483995 -7.855932179159941 14.54802255399989 -7.855932179159941
S 356.4239346783851 326.7745811560158 356.4239346783851 354.1248635575356
z" fill="none" stroke="none"></path>
<circle cx="0" cy="0" r="6.628927687998761" fill="#826b88">
  <animateMotion begin="-9.667459948403003s" dur="10s" repeatCount="indefinite">
    <mpath xlink:href="#path15"></mpath>
  </animateMotion>
</circle><path id="path16" d="M 310.6110049740131 112.40524899653589
c 0 19.186186351084885 -4.694492405052684 5.510925866800977 -10.205418271853661 5.510925866800977
S 290.2001684303058 131.59143534762077 290.2001684303058 112.40524899653589
s 4.694492405052684 -5.510925866800977 10.205418271853661 -5.510925866800977
S 310.6110049740131 93.219062645451 310.6110049740131 112.40524899653589
z" fill="none" stroke="none"></path>
<circle cx="0" cy="0" r="5.416343948241494" fill="#de786a">
  <animateMotion begin="-8.253799412725812s" dur="10s" repeatCount="indefinite">
    <mpath xlink:href="#path16"></mpath>
  </animateMotion>
</circle><path id="path17" d="M 1082.319185851255 31.840326398942466
c 0 24.622769628174613 -6.024720228170383 7.0724976591565385 -13.097217887326922 7.0724976591565385
S 1056.1247500766012 56.463096027117075 1056.1247500766012 31.840326398942466
s 6.024720228170383 -7.0724976591565385 13.097217887326922 -7.0724976591565385
S 1082.319185851255 7.217556770767853 1082.319185851255 31.840326398942466
z" fill="none" stroke="none"></path>
<circle cx="0" cy="0" r="5.185489611386755" fill="#f8b976">
  <animateMotion begin="-1.8226730263217883s" dur="10s" repeatCount="indefinite">
    <mpath xlink:href="#path17"></mpath>
  </animateMotion>
</circle><path id="path18" d="M 860.7826378462779 76.65219980069377
c 0 29.104259168685555 -7.1212549029762515 8.35973401653734 -15.480988919513592 8.35973401653734
S 829.8206600072507 105.75645896937932 829.8206600072507 76.65219980069377
s 7.1212549029762515 -8.35973401653734 15.480988919513592 -8.35973401653734
S 860.7826378462779 47.547940632008206 860.7826378462779 76.65219980069377
z" fill="none" stroke="none"></path>
<circle cx="0" cy="0" r="3.8764322852555635" fill="#de786a">
  <animateMotion begin="-5.848043099165235s" dur="10s" repeatCount="indefinite">
    <mpath xlink:href="#path18"></mpath>
  </animateMotion>
</circle><path id="path19" d="M 278.1894958726171 319.6981582265424
c 0 20.71126309011255 -5.067649479495623 5.9489798237557325 -11.016629303251355 5.9489798237557325
S 256.1562372661144 340.4094213166549 256.1562372661144 319.6981582265424
s 5.067649479495623 -5.9489798237557325 11.016629303251355 -5.9489798237557325
S 278.1894958726171 298.98689513642984 278.1894958726171 319.6981582265424
z" fill="none" stroke="none"></path>
<circle cx="0" cy="0" r="7.452970968819271" fill="#fcddc9">
  <animateMotion begin="-5.330342311717249s" dur="10s" repeatCount="indefinite">
    <mpath xlink:href="#path19"></mpath>
  </animateMotion>
</circle><path id="path20" d="M 296.7187168590726 248.37729040946905
c 0 32.91599161116759 -8.053912841030368 9.454593335122606 -17.508506176152974 9.454593335122606
S 261.7017045067666 281.29328202063664 261.7017045067666 248.37729040946905
s 8.053912841030368 -9.454593335122606 17.508506176152974 -9.454593335122606
S 296.7187168590726 215.46129879830147 296.7187168590726 248.37729040946905
z" fill="none" stroke="none"></path>
<circle cx="0" cy="0" r="4.486922066870153" fill="#826b88">
  <animateMotion begin="-7.970255125999048s" dur="10s" repeatCount="indefinite">
    <mpath xlink:href="#path20"></mpath>
  </animateMotion>
</circle><path id="path21" d="M 1239.2190471737451 337.5361963517655
c 0 20.612801636553147 -5.043557847241727 5.920698342414203 -10.96425618965593 5.920698342414203
S 1217.2905347944331 358.1489979883187 1217.2905347944331 337.5361963517655
s 5.043557847241727 -5.920698342414203 10.96425618965593 -5.920698342414203
S 1239.2190471737451 316.92339471521234 1239.2190471737451 337.5361963517655
z" fill="none" stroke="none"></path>
<circle cx="0" cy="0" r="6.610323088471907" fill="#376888">
  <animateMotion begin="-5.21878347202132s" dur="10s" repeatCount="indefinite">
    <mpath xlink:href="#path21"></mpath>
  </animateMotion>
</circle><path id="path22" d="M 114.93282950666529 451.06670156477804
c 0 35.55444193481072 -8.699491111709005 10.212446087658398 -18.911937199367404 10.212446087658398
S 77.10895510793048 486.62114349958875 77.10895510793048 451.06670156477804
s 8.699491111709005 -10.212446087658398 18.911937199367404 -10.212446087658398
S 114.93282950666529 415.51225962996733 114.93282950666529 451.06670156477804
z" fill="none" stroke="none"></path>
<circle cx="0" cy="0" r="6.874414042963168" fill="#f8b976">
  <animateMotion begin="-9.269898203620798s" dur="10s" repeatCount="indefinite">
    <mpath xlink:href="#path22"></mpath>
  </animateMotion>
</circle><path id="path23" d="M 908.8872700285028 416.68160509976855
c 0 28.478364204164627 -6.968110390380706 8.179955675664308 -15.148066066045015 8.179955675664308
S 878.5911378964129 445.15996930393317 878.5911378964129 416.68160509976855
s 6.968110390380706 -8.179955675664308 15.148066066045015 -8.179955675664308
S 908.8872700285028 388.2032408956039 908.8872700285028 416.68160509976855
z" fill="none" stroke="none"></path>
<circle cx="0" cy="0" r="5.2606367948609325" fill="#de786a">
  <animateMotion begin="-8.053601736696251s" dur="10s" repeatCount="indefinite">
    <mpath xlink:href="#path23"></mpath>
  </animateMotion>
</circle><path id="path24" d="M 659.7116573817248 96.02876726308091
c 0 22.475049997306755 -5.499214361043141 6.455599467311514 -11.954813828354656 6.455599467311514
S 635.8020297250155 118.50381726038766 635.8020297250155 96.02876726308091
s 5.499214361043141 -6.455599467311514 11.954813828354656 -6.455599467311514
S 659.7116573817248 73.55371726577415 659.7116573817248 96.02876726308091
z" fill="none" stroke="none"></path>
<circle cx="0" cy="0" r="5.755298848993144" fill="#8cd0e5">
  <animateMotion begin="-5.985592829592994s" dur="10s" repeatCount="indefinite">
    <mpath xlink:href="#path24"></mpath>
  </animateMotion>
</circle><path id="path25" d="M 835.8346294346769 156.0069087593419
c 0 20.35567304910492 -4.980643405632054 5.846842258785455 -10.827485664417509 5.846842258785455
S 814.1796581058419 176.36258180844683 814.1796581058419 156.0069087593419
s 4.980643405632054 -5.846842258785455 10.827485664417509 -5.846842258785455
S 835.8346294346769 135.651235710237 835.8346294346769 156.0069087593419
z" fill="none" stroke="none"></path>
<circle cx="0" cy="0" r="5.848120295781531" fill="#fcddc9">
  <animateMotion begin="-6.968565387134305s" dur="10s" repeatCount="indefinite">
    <mpath xlink:href="#path25"></mpath>
  </animateMotion>
</circle><path id="path26" d="M 457.43546241519135 494.04023018722415
c 0 35.57934310833016 -8.705583952038229 10.219598552392705 -18.925182504430932 10.219598552392705
S 419.58509740632945 529.6195732955543 419.58509740632945 494.04023018722415
s 8.705583952038229 -10.219598552392705 18.925182504430932 -10.219598552392705
S 457.43546241519135 458.460887078894 457.43546241519135 494.04023018722415
z" fill="none" stroke="none"></path>
<circle cx="0" cy="0" r="4.078828957741957" fill="#f8b976">
  <animateMotion begin="-8.908027912449697s" dur="10s" repeatCount="indefinite">
    <mpath xlink:href="#path26"></mpath>
  </animateMotion>
</circle><path id="path27" d="M 244.71896914293237 298.87259565750304
c 0 20.050667293098737 -4.906014337673095 5.759234222485808 -10.665248560158902 5.759234222485808
S 223.38847202261454 318.9232629506018 223.38847202261454 298.87259565750304
s 4.906014337673095 -5.759234222485808 10.665248560158902 -5.759234222485808
S 244.71896914293237 278.8219283644043 244.71896914293237 298.87259565750304
z" fill="none" stroke="none"></path>
<circle cx="0" cy="0" r="4.148803471043798" fill="#de786a">
  <animateMotion begin="-4.341276600119491s" dur="10s" repeatCount="indefinite">
    <mpath xlink:href="#path27"></mpath>
  </animateMotion>
</circle><path id="path28" d="M 54.633619458867855 303.69201592673016
c 0 35.458211359534396 -8.67594533265203 10.184805390504561 -18.860750723156592 10.184805390504561
S 16.91211801255467 339.15022728626457 16.91211801255467 303.69201592673016
s 8.67594533265203 -10.184805390504561 18.860750723156592 -10.184805390504561
S 54.633619458867855 268.23380456719576 54.633619458867855 303.69201592673016
z" fill="none" stroke="none"></path>
<circle cx="0" cy="0" r="3.8030136879101044" fill="#fcddc9">
  <animateMotion begin="-8.806599842443939s" dur="10s" repeatCount="indefinite">
    <mpath xlink:href="#path28"></mpath>
  </animateMotion>
</circle><path id="path29" d="M 1130.441501894212 196.77972099921035
c 0 36.15601506893457 -8.846684538143565 10.385238370864187 -19.23192290900775 10.385238370864187
S 1091.9776560761964 232.93573606814493 1091.9776560761964 196.77972099921035
s 8.846684538143565 -10.385238370864187 19.23192290900775 -10.385238370864187
S 1130.441501894212 160.62370593027578 1130.441501894212 196.77972099921035
z" fill="none" stroke="none"></path>
<circle cx="0" cy="0" r="6.621681975949551" fill="#fcddc9">
  <animateMotion begin="-1.5597947502918297s" dur="10s" repeatCount="indefinite">
    <mpath xlink:href="#path29"></mpath>
  </animateMotion>
</circle><path id="path30" d="M 703.0989444503675 281.2777739155404
c 0 20.779910855004164 -5.084446273032933 5.968697798777792 -11.053144071810726 5.968697798777792
S 680.9926563067461 302.0576847705446 680.9926563067461 281.2777739155404
s 5.084446273032933 -5.968697798777792 11.053144071810726 -5.968697798777792
S 703.0989444503675 260.49786306053625 703.0989444503675 281.2777739155404
z" fill="none" stroke="none"></path>
<circle cx="0" cy="0" r="6.162816770282251" fill="#de786a">
  <animateMotion begin="-8.343572791573271s" dur="10s" repeatCount="indefinite">
    <mpath xlink:href="#path30"></mpath>
  </animateMotion>
</circle><path id="path31" d="M 310.8972246977835 264.6154447407703
c 0 35.76242000345273 -8.750379362546944 10.27218446907685 -19.022563831623792 10.27218446907685
S 272.85209703453586 300.377864744223 272.85209703453586 264.6154447407703
s 8.750379362546944 -10.27218446907685 19.022563831623792 -10.27218446907685
S 310.8972246977835 228.85302473731753 310.8972246977835 264.6154447407703
z" fill="none" stroke="none"></path>
<circle cx="0" cy="0" r="5.756793514965277" fill="#8cd0e5">
  <animateMotion begin="-9.549838001282962s" dur="10s" repeatCount="indefinite">
    <mpath xlink:href="#path31"></mpath>
  </animateMotion>
</circle><path id="path32" d="M 644.8773563968465 7.640516201547474
c 0 30.9217655488232 -7.565963910882271 8.881783721470494 -16.447747632352765 8.881783721470494
S 611.981861132141 38.56228175037067 611.981861132141 7.640516201547474
s 7.565963910882271 -8.881783721470494 16.447747632352765 -8.881783721470494
S 644.8773563968465 -23.281249347275725 644.8773563968465 7.640516201547474
z" fill="none" stroke="none"></path>
<circle cx="0" cy="0" r="4.580752024049118" fill="#f8b976">
  <animateMotion begin="-6.81132057068226s" dur="10s" repeatCount="indefinite">
    <mpath xlink:href="#path32"></mpath>
  </animateMotion>
</circle><path id="path33" d="M 774.7219090529258 559.3455594813207
c 0 30.950452307230965 -7.572983011343745 8.890023535055702 -16.46300654639945 8.890023535055702
S 741.7958959601268 590.2960117885517 741.7958959601268 559.3455594813207
s 7.572983011343745 -8.890023535055702 16.46300654639945 -8.890023535055702
S 774.7219090529258 528.3951071740897 774.7219090529258 559.3455594813207
z" fill="none" stroke="none"></path>
<circle cx="0" cy="0" r="6.583594602335508" fill="#fcddc9">
  <animateMotion begin="-6.165188535384932s" dur="10s" repeatCount="indefinite">
    <mpath xlink:href="#path33"></mpath>
  </animateMotion>
</circle><path id="path34" d="M 562.6905888708625 258.9848762606523
c 0 35.57320825454664 -8.704082870793327 10.217836413539994 -18.92191928433332 10.217836413539994
S 524.8467503021959 294.55808451519897 524.8467503021959 258.9848762606523
s 8.704082870793327 -10.217836413539994 18.92191928433332 -10.217836413539994
S 562.6905888708625 223.41166800610566 562.6905888708625 258.9848762606523
z" fill="none" stroke="none"></path>
<circle cx="0" cy="0" r="4.575704833354537" fill="#f8b976">
  <animateMotion begin="-0.6607807276767885s" dur="10s" repeatCount="indefinite">
    <mpath xlink:href="#path34"></mpath>
  </animateMotion>
</circle><path id="path35" d="M 797.6257889653543 233.2580916566685
c 0 26.15707790209582 -6.4001360824277 7.513203227197736 -13.913339309625437 7.513203227197736
S 769.7991103461034 259.4151695587643 769.7991103461034 233.2580916566685
s 6.4001360824277 -7.513203227197736 13.913339309625437 -7.513203227197736
S 797.6257889653543 207.1010137545727 797.6257889653543 233.2580916566685
z" fill="none" stroke="none"></path>
<circle cx="0" cy="0" r="4.241458210755975" fill="#f8b976">
  <animateMotion begin="-3.6065097428837967s" dur="10s" repeatCount="indefinite">
    <mpath xlink:href="#path35"></mpath>
  </animateMotion>
</circle><path id="path36" d="M 567.293566930155 247.108031780005
c 0 28.299682582275516 -6.924390419067413 8.128632231079138 -15.05302265014655 8.128632231079138
S 537.1875216298619 275.4077143622805 537.1875216298619 247.108031780005
s 6.924390419067413 -8.128632231079138 15.05302265014655 -8.128632231079138
S 567.293566930155 218.80834919772948 567.293566930155 247.108031780005
z" fill="none" stroke="none"></path>
<circle cx="0" cy="0" r="6.453908570210543" fill="#8cd0e5">
  <animateMotion begin="-0.7285512597130595s" dur="10s" repeatCount="indefinite">
    <mpath xlink:href="#path36"></mpath>
  </animateMotion>
</circle><path id="path37" d="M 123.65353960633358 237.50752816288983
c 0 34.03987089275299 -8.328904580141687 9.777409724514156 -18.106314304655843 9.777409724514156
S 87.4409109970219 271.5473990556428 87.4409109970219 237.50752816288983
s 8.328904580141687 -9.777409724514156 18.106314304655843 -9.777409724514156
S 123.65353960633358 203.46765727013684 123.65353960633358 237.50752816288983
z" fill="none" stroke="none"></path>
<circle cx="0" cy="0" r="4.805849689020237" fill="#826b88">
  <animateMotion begin="-9.283103490122596s" dur="10s" repeatCount="indefinite">
    <mpath xlink:href="#path37"></mpath>
  </animateMotion>
</circle><path id="path38" d="M 927.9356455142604 394.41320711664093
c 0 21.924181831535126 -5.364427469418169 6.297371377143069 -11.661798846561238 6.297371377143069
S 904.6120478211378 416.33738894817606 904.6120478211378 394.41320711664093
s 5.364427469418169 -6.297371377143069 11.661798846561238 -6.297371377143069
S 927.9356455142604 372.4890252851058 927.9356455142604 394.41320711664093
z" fill="none" stroke="none"></path>
<circle cx="0" cy="0" r="4.986877868682674" fill="#f8b976">
  <animateMotion begin="-4.236798840634728s" dur="10s" repeatCount="indefinite">
    <mpath xlink:href="#path38"></mpath>
  </animateMotion>
</circle><path id="path39" d="M 402.9208506771677 433.9735200056543
c 0 35.22311044528314 -8.618420640867152 10.117276404496222 -18.735697045363374 10.117276404496222
S 365.44945658644093 469.1966304509374 365.44945658644093 433.9735200056543
s 8.618420640867152 -10.117276404496222 18.735697045363374 -10.117276404496222
S 402.9208506771677 398.75040956037117 402.9208506771677 433.9735200056543
z" fill="none" stroke="none"></path>
<circle cx="0" cy="0" r="5.519632541682143" fill="#de786a">
  <animateMotion begin="-5.3246896700777775s" dur="10s" repeatCount="indefinite">
    <mpath xlink:href="#path39"></mpath>
  </animateMotion>
</circle><path id="path40" d="M 571.0418836563013 339.35999493373504
c 0 33.246652879022825 -8.13481932146303 9.549570507804429 -17.68438982926746 9.549570507804429
S 535.6731039977662 372.60664781275784 535.6731039977662 339.35999493373504
s 8.13481932146303 -9.549570507804429 17.68438982926746 -9.549570507804429
S 571.0418836563013 306.11334205471223 571.0418836563013 339.35999493373504
z" fill="none" stroke="none"></path>
<circle cx="0" cy="0" r="6.531502147496159" fill="#376888">
  <animateMotion begin="-5.887061863900229s" dur="10s" repeatCount="indefinite">
    <mpath xlink:href="#path40"></mpath>
  </animateMotion>
</circle><path id="path41" d="M 1165.4510762490233 13.314184280468552
c 0 24.824310134299825 -6.074033330732935 7.130386953469099 -13.204420284202033 7.130386953469099
S 1139.0422356806191 38.138494414768374 1139.0422356806191 13.314184280468552
s 6.074033330732935 -7.130386953469099 13.204420284202033 -7.130386953469099
S 1165.4510762490233 -11.510125853831273 1165.4510762490233 13.314184280468552
z" fill="none" stroke="none"></path>
<circle cx="0" cy="0" r="5.4401866408079655" fill="#fcddc9">
  <animateMotion begin="-1.6820488084948693s" dur="10s" repeatCount="indefinite">
    <mpath xlink:href="#path41"></mpath>
  </animateMotion>
</circle><path id="path42" d="M 681.2424936502869 479.7155844093
c 0 29.45249318705123 -7.206461098959342 8.459758681387056 -15.666219780346397 8.459758681387056
S 649.910054089594 509.1680775963512 649.910054089594 479.7155844093
s 7.206461098959342 -8.459758681387056 15.666219780346397 -8.459758681387056
S 681.2424936502869 450.26309122224876 681.2424936502869 479.7155844093
z" fill="none" stroke="none"></path>
<circle cx="0" cy="0" r="7.149362560377246" fill="#fcddc9">
  <animateMotion begin="-8.327613488045616s" dur="10s" repeatCount="indefinite">
    <mpath xlink:href="#path42"></mpath>
  </animateMotion>
</circle><path id="path43" d="M 295.59326966490954 398.10730531308957
c 0 23.196520098130218 -5.6757442793297335 6.662830240952297 -12.33857452028203 6.662830240952297
S 270.9161206243455 421.3038254112198 270.9161206243455 398.10730531308957
s 5.6757442793297335 -6.662830240952297 12.33857452028203 -6.662830240952297
S 295.59326966490954 374.91078521495933 295.59326966490954 398.10730531308957
z" fill="none" stroke="none"></path>
<circle cx="0" cy="0" r="6.253236759740828" fill="#fcddc9">
  <animateMotion begin="-5.963368424101878s" dur="10s" repeatCount="indefinite">
    <mpath xlink:href="#path43"></mpath>
  </animateMotion>
</circle><path id="path44" d="M 85.21550797876688 559.3719085153487
c 0 30.602246223971147 -7.48778365054613 8.790006894119372 -16.277790544665503 8.790006894119372
S 52.659926889435866 589.9741547393198 52.659926889435866 559.3719085153487
s 7.48778365054613 -8.790006894119372 16.277790544665503 -8.790006894119372
S 85.21550797876688 528.7696622913775 85.21550797876688 559.3719085153487
z" fill="none" stroke="none"></path>
<circle cx="0" cy="0" r="4.300008309794163" fill="#de786a">
  <animateMotion begin="-4.322663052123577s" dur="10s" repeatCount="indefinite">
    <mpath xlink:href="#path44"></mpath>
  </animateMotion>
</circle><path id="path45" d="M 1255.624960721384 176.98047959440223
c 0 26.60308865360391 -6.509266372690317 7.64131269837559 -14.150579071065907 7.64131269837559
S 1227.323802579252 203.58356824800615 1227.323802579252 176.98047959440223
s 6.509266372690317 -7.64131269837559 14.150579071065907 -7.64131269837559
S 1255.624960721384 150.3773909407983 1255.624960721384 176.98047959440223
z" fill="none" stroke="none"></path>
<circle cx="0" cy="0" r="4.054744144177948" fill="#376888">
  <animateMotion begin="-2.8421449554496214s" dur="10s" repeatCount="indefinite">
    <mpath xlink:href="#path45"></mpath>
  </animateMotion>
</circle><path id="path46" d="M 920.857702723915 70.99969051758693
c 0 34.65292567667931 -8.478907346421533 9.953499928407886 -18.43240727482942 9.953499928407886
S 883.9928881742562 105.65261619426624 883.9928881742562 70.99969051758693
s 8.478907346421533 -9.953499928407886 18.43240727482942 -9.953499928407886
S 920.857702723915 36.34676484090762 920.857702723915 70.99969051758693
z" fill="none" stroke="none"></path>
<circle cx="0" cy="0" r="6.454691242163737" fill="#f8b976">
  <animateMotion begin="-5.43496267375078s" dur="10s" repeatCount="indefinite">
    <mpath xlink:href="#path46"></mpath>
  </animateMotion>
</circle><path id="path47" d="M 421.3459815265056 314.5745063166352
c 0 22.475752600511083 -5.499386274593137 6.455801278870205 -11.955187553463343 6.455801278870205
S 397.4356064195789 337.0502589171463 397.4356064195789 314.5745063166352
s 5.499386274593137 -6.455801278870205 11.955187553463343 -6.455801278870205
S 421.3459815265056 292.0987537161241 421.3459815265056 314.5745063166352
z" fill="none" stroke="none"></path>
<circle cx="0" cy="0" r="6.242854349417721" fill="#fcddc9">
  <animateMotion begin="-9.721273336721826s" dur="10s" repeatCount="indefinite">
    <mpath xlink:href="#path47"></mpath>
  </animateMotion>
</circle><path id="path48" d="M 511.5509774884504 457.96160294881236
c 0 19.858013220255025 -4.858875575168782 5.703897414328571 -10.562772989497354 5.703897414328571
S 490.4254315094557 477.8196161690674 490.4254315094557 457.96160294881236
s 4.858875575168782 -5.703897414328571 10.562772989497354 -5.703897414328571
S 511.5509774884504 438.1035897285573 511.5509774884504 457.96160294881236
z" fill="none" stroke="none"></path>
<circle cx="0" cy="0" r="5.837061827821516" fill="#f8b976">
  <animateMotion begin="-9.757923274642481s" dur="10s" repeatCount="indefinite">
    <mpath xlink:href="#path48"></mpath>
  </animateMotion>
</circle><path id="path49" d="M 198.29105205933527 266.1465696717813
c 0 26.028116848107068 -6.368581781983644 7.476161222328626 -13.84474300431227 7.476161222328626
S 170.60156605071072 292.1746865198884 170.60156605071072 266.1465696717813
s 6.368581781983644 -7.476161222328626 13.84474300431227 -7.476161222328626
S 198.29105205933527 240.11845282367426 198.29105205933527 266.1465696717813
z" fill="none" stroke="none"></path>
<circle cx="0" cy="0" r="4.905007265337903" fill="#de786a">
  <animateMotion begin="-7.79206104830452s" dur="10s" repeatCount="indefinite">
    <mpath xlink:href="#path49"></mpath>
  </animateMotion>
</circle><path id="path50" d="M 1270.3308324592513 349.48162838796804
c 0 30.00618030214241 -7.341937733502929 8.61879646976431 -15.96073420326724 8.61879646976431
S 1238.4093640527167 379.48780869011046 1238.4093640527167 349.48162838796804
s 7.341937733502929 -8.61879646976431 15.96073420326724 -8.61879646976431
S 1270.3308324592513 319.47544808582563 1270.3308324592513 349.48162838796804
z" fill="none" stroke="none"></path>
<circle cx="0" cy="0" r="7.326298115145451" fill="#376888">
  <animateMotion begin="-8.77779426955444s" dur="10s" repeatCount="indefinite">
    <mpath xlink:href="#path50"></mpath>
  </animateMotion>
</circle><path id="path51" d="M 477.7045021376887 344.51438149148595
c 0 27.40828902414272 -6.706283484630665 7.872593655870782 -14.578877140501447 7.872593655870782
S 448.5467478566858 371.9226705156287 448.5467478566858 344.51438149148595
s 6.706283484630665 -7.872593655870782 14.578877140501447 -7.872593655870782
S 477.7045021376887 317.1060924673432 477.7045021376887 344.51438149148595
z" fill="none" stroke="none"></path>
<circle cx="0" cy="0" r="4.199443789877219" fill="#376888">
  <animateMotion begin="-7.556248956948743s" dur="10s" repeatCount="indefinite">
    <mpath xlink:href="#path51"></mpath>
  </animateMotion>
</circle><path id="path52" d="M 1215.453071754145 417.027035579147
c 0 25.243766156819646 -6.176666187306934 7.25086900249075 -13.427535189797684 7.25086900249075
S 1188.5980013745495 442.27080173596664 1188.5980013745495 417.027035579147
s 6.176666187306934 -7.25086900249075 13.427535189797684 -7.25086900249075
S 1215.453071754145 391.7832694223274 1215.453071754145 417.027035579147
z" fill="none" stroke="none"></path>
<circle cx="0" cy="0" r="7.493133860021215" fill="#f8b976">
  <animateMotion begin="-4.35844202248223s" dur="10s" repeatCount="indefinite">
    <mpath xlink:href="#path52"></mpath>
  </animateMotion>
</circle><path id="path53" d="M 1240.2720469919548 323.03361787397483
c 0 20.7077602174185 -5.0667923936236745 5.947973679471271 -11.014766073094947 5.947973679471271
S 1218.2425148457648 343.74137809139336 1218.2425148457648 323.03361787397483
s 5.0667923936236745 -5.947973679471271 11.014766073094947 -5.947973679471271
S 1240.2720469919548 302.3258576565563 1240.2720469919548 323.03361787397483
z" fill="none" stroke="none"></path>
<circle cx="0" cy="0" r="5.256484989141054" fill="#826b88">
  <animateMotion begin="-2.10861004053178s" dur="10s" repeatCount="indefinite">
    <mpath xlink:href="#path53"></mpath>
  </animateMotion>
</circle><path id="path54" d="M 1251.4081488473337 358.74277537686925
c 0 30.931615907167203 -7.568374104945166 8.884613079718239 -16.452987184663407 8.884613079718239
S 1218.5021744780067 389.67439128403646 1218.5021744780067 358.74277537686925
s 7.568374104945166 -8.884613079718239 16.452987184663407 -8.884613079718239
S 1251.4081488473337 327.81115946970203 1251.4081488473337 358.74277537686925
z" fill="none" stroke="none"></path>
<circle cx="0" cy="0" r="6.05095393409765" fill="#826b88">
  <animateMotion begin="-2.2371546756820493s" dur="10s" repeatCount="indefinite">
    <mpath xlink:href="#path54"></mpath>
  </animateMotion>
</circle></g>
</svg>