<?xml version="1.0" encoding="utf-8"?>
<svg xmlns="http://www.w3.org/2000/svg" xmlns:xlink="http://www.w3.org/1999/xlink" style="margin: auto; background: rgb(0, 0, 0); display: block; z-index: 1; position: relative; shape-rendering: auto;" width="1280" height="587" preserveAspectRatio="xMidYMid" viewBox="0 0 1280 587">
<g transform="translate(640,293.5) scale(1,1) translate(-640,-293.5)"><path id="path0" d="M 322.0064084664679 108.71976883968354
c 0 23.253515341334257 -5.6896899239434875 6.679201215064095 -12.368891139007584 6.679201215064095
S 297.26862618845274 131.9732841810178 297.26862618845274 108.71976883968354
s 5.6896899239434875 -6.679201215064095 12.368891139007584 -6.679201215064095
S 322.0064084664679 85.46625349834929 322.0064084664679 108.71976883968354
z" fill="none" stroke="none"></path>
<circle cx="0" cy="0" r="10.464444968213684" fill="#edb195">
  <animateMotion begin="-3.706084854696239s" dur="10s" repeatCount="indefinite">
    <mpath xlink:href="#path0"></mpath>
  </animateMotion>
</circle><path id="path1" d="M 1136.7384806389616 186.889322402416
c 0 19.082513107348337 -4.669125547542678 5.481147381897927 -10.150272929440604 5.481147381897927
S 1116.4379347800802 205.97183550976436 1116.4379347800802 186.889322402416
s 4.669125547542678 -5.481147381897927 10.150272929440604 -5.481147381897927
S 1136.7384806389616 167.80680929506767 1136.7384806389616 186.889322402416
z" fill="none" stroke="none"></path>
<circle cx="0" cy="0" r="11.967566935345996" fill="#3c0f0f">
  <animateMotion begin="-0.3429325130903682s" dur="10s" repeatCount="indefinite">
    <mpath xlink:href="#path1"></mpath>
  </animateMotion>
</circle><path id="path2" d="M 1009.2296540711301 548.1236152478924
c 0 36.5119844809597 -8.933783436830563 10.487484904105445 -19.421268340936006 10.487484904105445
S 970.3871173892582 584.6355997288521 970.3871173892582 548.1236152478924
s 8.933783436830563 -10.487484904105445 19.421268340936006 -10.487484904105445
S 1009.2296540711301 511.6116307669327 1009.2296540711301 548.1236152478924
z" fill="none" stroke="none"></path>
<circle cx="0" cy="0" r="10.893562880788103" fill="#2aa7c9">
  <animateMotion begin="-8.480861100307083s" dur="10s" repeatCount="indefinite">
    <mpath xlink:href="#path2"></mpath>
  </animateMotion>
</circle><path id="path3" d="M 992.8501070706156 22.37494908655985
c 0 24.642618972017846 -6.029576982515004 7.078199066430659 -13.107776048945663 7.078199066430659
S 966.6345549727243 47.017568058577695 966.6345549727243 22.37494908655985
s 6.029576982515004 -7.078199066430659 13.107776048945663 -7.078199066430659
S 992.8501070706156 -2.2676698854579946 992.8501070706156 22.37494908655985
z" fill="none" stroke="none"></path>
<circle cx="0" cy="0" r="6.585764015351702" fill="#e46b43">
  <animateMotion begin="-6.746415417178815s" dur="10s" repeatCount="indefinite">
    <mpath xlink:href="#path3"></mpath>
  </animateMotion>
</circle><path id="path4" d="M 421.67824608338776 54.1954182204229
c 0 34.16096405571071 -8.358533758312193 9.812191803236056 -18.17072556154825 9.812191803236056
S 385.3367949602913 88.35638227613362 385.3367949602913 54.1954182204229
s 8.358533758312193 -9.812191803236056 18.17072556154825 -9.812191803236056
S 421.67824608338776 20.034454164712194 421.67824608338776 54.1954182204229
z" fill="none" stroke="none"></path>
<circle cx="0" cy="0" r="7.487403685514522" fill="#04284d">
  <animateMotion begin="-3.185643056900671s" dur="10s" repeatCount="indefinite">
    <mpath xlink:href="#path4"></mpath>
  </animateMotion>
</circle><path id="path5" d="M 938.2947211121391 175.29480901158962
c 0 32.00992092771624 -7.832214695079505 9.194338989875941 -17.026553684955445 9.194338989875941
S 904.2416137422281 207.30472993930584 904.2416137422281 175.29480901158962
s 7.832214695079505 -9.194338989875941 17.026553684955445 -9.194338989875941
S 938.2947211121391 143.2848880838734 938.2947211121391 175.29480901158962
z" fill="none" stroke="none"></path>
<circle cx="0" cy="0" r="7.203055867821193" fill="#2aa7c9">
  <animateMotion begin="-3.366598663509104s" dur="10s" repeatCount="indefinite">
    <mpath xlink:href="#path5"></mpath>
  </animateMotion>
</circle><path id="path6" d="M 432.24161833055746 245.17436688863685
c 0 36.308496321777284 -8.883993780860399 10.429036177531774 -19.31302995839217 10.429036177531774
S 393.6155584137731 281.48286321041417 393.6155584137731 245.17436688863685
s 8.883993780860399 -10.429036177531774 19.31302995839217 -10.429036177531774
S 432.24161833055746 208.86587056685957 432.24161833055746 245.17436688863685
z" fill="none" stroke="none"></path>
<circle cx="0" cy="0" r="11.333468756594197" fill="#e46b43">
  <animateMotion begin="-3.88788264390477s" dur="10s" repeatCount="indefinite">
    <mpath xlink:href="#path6"></mpath>
  </animateMotion>
</circle><path id="path7" d="M 1057.2042044615262 177.83482446050795
c 0 29.292101789731372 -7.167216395359803 8.413688811944118 -15.580905207303921 8.413688811944118
S 1026.0423940469184 207.1269262502393 1026.0423940469184 177.83482446050795
s 7.167216395359803 -8.413688811944118 15.580905207303921 -8.413688811944118
S 1057.2042044615262 148.54272267077658 1057.2042044615262 177.83482446050795
z" fill="none" stroke="none"></path>
<circle cx="0" cy="0" r="9.284858591680738" fill="#3c0f0f">
  <animateMotion begin="-2.09240661570802s" dur="10s" repeatCount="indefinite">
    <mpath xlink:href="#path7"></mpath>
  </animateMotion>
</circle><path id="path8" d="M 294.5073066790131 430.0241308947454
c 0 34.19756859063782 -8.367490187070956 9.82270587177895 -18.190196058849907 9.82270587177895
S 258.1269145613133 464.2216994853832 258.1269145613133 430.0241308947454
s 8.367490187070956 -9.82270587177895 18.190196058849907 -9.82270587177895
S 294.5073066790131 395.82656230410754 294.5073066790131 430.0241308947454
z" fill="none" stroke="none"></path>
<circle cx="0" cy="0" r="10.237081362021724" fill="#04284d">
  <animateMotion begin="-2.962741556060855s" dur="10s" repeatCount="indefinite">
    <mpath xlink:href="#path8"></mpath>
  </animateMotion>
</circle><path id="path9" d="M 782.1611458463681 280.54564658959237
c 0 20.937993492717588 -5.123126067367069 6.014104513865691 -11.13723058123276 6.014104513865691
S 759.8866846839026 301.48364008230993 759.8866846839026 280.54564658959237
s 5.123126067367069 -6.014104513865691 11.13723058123276 -6.014104513865691
S 782.1611458463681 259.6076530968748 782.1611458463681 280.54564658959237
z" fill="none" stroke="none"></path>
<circle cx="0" cy="0" r="6.758158923660822" fill="#edb195">
  <animateMotion begin="-3.1232436734640734s" dur="10s" repeatCount="indefinite">
    <mpath xlink:href="#path9"></mpath>
  </animateMotion>
</circle><path id="path10" d="M 1280.6819621179284 497.5237869109852
c 0 23.881929642184517 -5.843450869896211 6.859703195095553 -12.703154064991764 6.859703195095553
S 1255.2756539879447 521.4057165531698 1255.2756539879447 497.5237869109852
s 5.843450869896211 -6.859703195095553 12.703154064991764 -6.859703195095553
S 1280.6819621179284 473.6418572688007 1280.6819621179284 497.5237869109852
z" fill="none" stroke="none"></path>
<circle cx="0" cy="0" r="9.074133338583602" fill="#e46b43">
  <animateMotion begin="-8.898695444105186s" dur="10s" repeatCount="indefinite">
    <mpath xlink:href="#path10"></mpath>
  </animateMotion>
</circle><path id="path11" d="M 248.17985863179382 213.9815027963337
c 0 33.682552479787134 -8.241475606756424 9.674775712279283 -17.91625131903571 9.674775712279283
S 212.34735599372237 247.66405527612085 212.34735599372237 213.9815027963337
s 8.241475606756424 -9.674775712279283 17.91625131903571 -9.674775712279283
S 248.17985863179382 180.29895031654655 248.17985863179382 213.9815027963337
z" fill="none" stroke="none"></path>
<circle cx="0" cy="0" r="6.550483748147831" fill="#3c0f0f">
  <animateMotion begin="-1.7896942626104995s" dur="10s" repeatCount="indefinite">
    <mpath xlink:href="#path11"></mpath>
  </animateMotion>
</circle><path id="path12" d="M 555.8045699234867 374.9089560113582
c 0 24.451549382047066 -5.982825912628536 7.02331737569437 -13.006143288322907 7.02331737569437
S 529.7922833468408 399.3605053934053 529.7922833468408 374.9089560113582
s 5.982825912628536 -7.02331737569437 13.006143288322907 -7.02331737569437
S 555.8045699234867 350.45740662931115 555.8045699234867 374.9089560113582
z" fill="none" stroke="none"></path>
<circle cx="0" cy="0" r="7.437743410315237" fill="#06628d">
  <animateMotion begin="-2.689680517122919s" dur="10s" repeatCount="indefinite">
    <mpath xlink:href="#path12"></mpath>
  </animateMotion>
</circle><path id="path13" d="M 995.8318078708104 369.76370239279674
c 0 29.635504793036226 -7.25124053446631 8.512325844808277 -15.763566379274588 8.512325844808277
S 964.3046751122612 399.39920718583295 964.3046751122612 369.76370239279674
s 7.25124053446631 -8.512325844808277 15.763566379274588 -8.512325844808277
S 995.8318078708104 340.12819759976054 995.8318078708104 369.76370239279674
z" fill="none" stroke="none"></path>
<circle cx="0" cy="0" r="7.284966726472094" fill="#06628d">
  <animateMotion begin="-6.426400851140748s" dur="10s" repeatCount="indefinite">
    <mpath xlink:href="#path13"></mpath>
  </animateMotion>
</circle><path id="path14" d="M 778.1348584439244 205.82702610988707
c 0 29.554226395286637 -7.231353266931836 8.488979922050417 -15.720333188982254 8.488979922050417
S 746.6941920659598 235.3812525051737 746.6941920659598 205.82702610988707
s 7.231353266931836 -8.488979922050417 15.720333188982254 -8.488979922050417
S 778.1348584439244 176.27279971460044 778.1348584439244 205.82702610988707
z" fill="none" stroke="none"></path>
<circle cx="0" cy="0" r="8.267845013478418" fill="#2aa7c9">
  <animateMotion begin="-2.9114217072943394s" dur="10s" repeatCount="indefinite">
    <mpath xlink:href="#path14"></mpath>
  </animateMotion>
</circle><path id="path15" d="M 523.044049409163 508.3833993889324
c 0 22.09866410977673 -5.407119941753881 6.347488627276295 -11.754608569030175 6.347488627276295
S 499.5348322711027 530.4820634987091 499.5348322711027 508.3833993889324
s 5.407119941753881 -6.347488627276295 11.754608569030175 -6.347488627276295
S 523.044049409163 486.28473527915565 523.044049409163 508.3833993889324
z" fill="none" stroke="none"></path>
<circle cx="0" cy="0" r="7.832237907218483" fill="#e46b43">
  <animateMotion begin="-0.666762090570725s" dur="10s" repeatCount="indefinite">
    <mpath xlink:href="#path15"></mpath>
  </animateMotion>
</circle><path id="path16" d="M 933.2135454377592 218.25819215873722
c 0 23.319040373836533 -5.70572264466213 6.698022235038153 -12.403744879700282 6.698022235038153
S 908.4060556783586 241.57723253257376 908.4060556783586 218.25819215873722
s 5.70572264466213 -6.698022235038153 12.403744879700282 -6.698022235038153
S 933.2135454377592 194.93915178490067 933.2135454377592 218.25819215873722
z" fill="none" stroke="none"></path>
<circle cx="0" cy="0" r="8.456389280441236" fill="#04284d">
  <animateMotion begin="-5.618389141954713s" dur="10s" repeatCount="indefinite">
    <mpath xlink:href="#path16"></mpath>
  </animateMotion>
</circle><path id="path17" d="M 489.15770876902 306.75298636517647
c 0 34.260554667565124 -8.382901673978699 9.840797617279344 -18.223699291258043 9.840797617279344
S 452.7103101865039 341.0135410327416 452.7103101865039 306.75298636517647
s 8.382901673978699 -9.840797617279344 18.223699291258043 -9.840797617279344
S 489.15770876902 272.4924316976113 489.15770876902 306.75298636517647
z" fill="none" stroke="none"></path>
<circle cx="0" cy="0" r="11.168875004370026" fill="#2aa7c9">
  <animateMotion begin="-5.329400692036204s" dur="10s" repeatCount="indefinite">
    <mpath xlink:href="#path17"></mpath>
  </animateMotion>
</circle><path id="path18" d="M 538.5443738309954 93.08276662174075
c 0 21.01669771932969 -5.142383484516839 6.036711047041508 -11.179094531558347 6.036711047041508
S 516.1861847678787 114.09946434107044 516.1861847678787 93.08276662174075
s 5.142383484516839 -6.036711047041508 11.179094531558347 -6.036711047041508
S 538.5443738309954 72.06606890241105 538.5443738309954 93.08276662174075
z" fill="none" stroke="none"></path>
<circle cx="0" cy="0" r="11.88327285862672" fill="#e46b43">
  <animateMotion begin="-3.7555005298019095s" dur="10s" repeatCount="indefinite">
    <mpath xlink:href="#path18"></mpath>
  </animateMotion>
</circle><path id="path19" d="M 863.9031137741057 344.8028711056904
c 0 20.3313313634305 -4.974687461264909 5.839850498006633 -10.814537959271542 5.839850498006633
S 842.2740378555626 365.13420246912085 842.2740378555626 344.8028711056904
s 4.974687461264909 -5.839850498006633 10.814537959271542 -5.839850498006633
S 863.9031137741057 324.4715397422599 863.9031137741057 344.8028711056904
z" fill="none" stroke="none"></path>
<circle cx="0" cy="0" r="10.925207098748391" fill="#f91a10">
  <animateMotion begin="-6.540669924986289s" dur="10s" repeatCount="indefinite">
    <mpath xlink:href="#path19"></mpath>
  </animateMotion>
</circle><path id="path20" d="M 402.9212388948769 518.3379379403485
c 0 32.92871299407505 -8.057025519826873 9.458247349361981 -17.515272869188856 9.458247349361981
S 367.89069315649925 551.2666509344235 367.89069315649925 518.3379379403485
s 8.057025519826873 -9.458247349361981 17.515272869188856 -9.458247349361981
S 402.9212388948769 485.40922494627347 402.9212388948769 518.3379379403485
z" fill="none" stroke="none"></path>
<circle cx="0" cy="0" r="6.851352782762399" fill="#2aa7c9">
  <animateMotion begin="-6.148001204752358s" dur="10s" repeatCount="indefinite">
    <mpath xlink:href="#path20"></mpath>
  </animateMotion>
</circle><path id="path21" d="M 1059.4336884903705 200.50057809203
c 0 24.85478369765724 -6.081489628150175 7.13913999826325 -13.220629626413425 7.13913999826325
S 1032.9924292375435 225.35536178968724 1032.9924292375435 200.50057809203
s 6.081489628150175 -7.13913999826325 13.220629626413425 -7.13913999826325
S 1059.4336884903705 175.64579439437276 1059.4336884903705 200.50057809203
z" fill="none" stroke="none"></path>
<circle cx="0" cy="0" r="9.718507860952762" fill="#04284d">
  <animateMotion begin="-2.8474805345240806s" dur="10s" repeatCount="indefinite">
    <mpath xlink:href="#path21"></mpath>
  </animateMotion>
</circle><path id="path22" d="M 416.93454435315306 197.71053612751012
c 0 31.211775280875028 -7.636923738937506 8.965084389187508 -16.602008128125014 8.965084389187508
S 383.730528096903 228.92231140838516 383.730528096903 197.71053612751012
s 7.636923738937506 -8.965084389187508 16.602008128125014 -8.965084389187508
S 416.93454435315306 166.4987608466351 416.93454435315306 197.71053612751012
z" fill="none" stroke="none"></path>
<circle cx="0" cy="0" r="9.557582032270975" fill="#e46b43">
  <animateMotion begin="-0.6881022923873403s" dur="10s" repeatCount="indefinite">
    <mpath xlink:href="#path22"></mpath>
  </animateMotion>
</circle><path id="path23" d="M 287.1536181877389 416.96710961647557
c 0 20.53273847503089 -5.0239679247416005 5.897701476870575 -10.921669401612174 5.897701476870575
S 265.31027938451456 437.49984809150646 265.31027938451456 416.96710961647557
s 5.0239679247416005 -5.897701476870575 10.921669401612174 -5.897701476870575
S 287.1536181877389 396.4343711414447 287.1536181877389 416.96710961647557
z" fill="none" stroke="none"></path>
<circle cx="0" cy="0" r="10.52508831415545" fill="#edb195">
  <animateMotion begin="-2.2688838643800247s" dur="10s" repeatCount="indefinite">
    <mpath xlink:href="#path23"></mpath>
  </animateMotion>
</circle><path id="path24" d="M 815.0249977366502 242.50949704046053
c 0 31.63781473593258 -7.741167435387758 9.087457424150848 -16.828624859538607 9.087457424150848
S 781.3677480175729 274.1473117763931 781.3677480175729 242.50949704046053
s 7.741167435387758 -9.087457424150848 16.828624859538607 -9.087457424150848
S 815.0249977366502 210.87168230452795 815.0249977366502 242.50949704046053
z" fill="none" stroke="none"></path>
<circle cx="0" cy="0" r="7.050710147597615" fill="#04284d">
  <animateMotion begin="-9.004610852826263s" dur="10s" repeatCount="indefinite">
    <mpath xlink:href="#path24"></mpath>
  </animateMotion>
</circle><path id="path25" d="M 488.2796775066208 472.5138958686493
c 0 36.69127213151024 -8.977651691752504 10.53898242075294 -19.516634112505443 10.53898242075294
S 449.24640928161 509.2051680001595 449.24640928161 472.5138958686493
s 8.977651691752504 -10.53898242075294 19.516634112505443 -10.53898242075294
S 488.2796775066208 435.82262373713905 488.2796775066208 472.5138958686493
z" fill="none" stroke="none"></path>
<circle cx="0" cy="0" r="7.969705595350426" fill="#04284d">
  <animateMotion begin="-2.784281718390098s" dur="10s" repeatCount="indefinite">
    <mpath xlink:href="#path25"></mpath>
  </animateMotion>
</circle><path id="path26" d="M 104.69527576860804 154.58647093594715
c 0 29.544127957456066 -7.2288823725690365 8.48607930692887 -15.714961679497907 8.48607930692887
S 73.26535240961223 184.1305988934032 73.26535240961223 154.58647093594715
s 7.2288823725690365 -8.48607930692887 15.714961679497907 -8.48607930692887
S 104.69527576860804 125.04234297849108 104.69527576860804 154.58647093594715
z" fill="none" stroke="none"></path>
<circle cx="0" cy="0" r="10.583711237236484" fill="#3c0f0f">
  <animateMotion begin="-7.876945172640792s" dur="10s" repeatCount="indefinite">
    <mpath xlink:href="#path26"></mpath>
  </animateMotion>
</circle><path id="path27" d="M 808.0626405727996 311.2489726052413
c 0 36.02367625020006 -8.814303763346823 10.34722615697236 -19.161529920319182 10.34722615697236
S 769.7395807321614 347.2726488554414 769.7395807321614 311.2489726052413
s 8.814303763346823 -10.34722615697236 19.161529920319182 -10.34722615697236
S 808.0626405727996 275.2252963550412 808.0626405727996 311.2489726052413
z" fill="none" stroke="none"></path>
<circle cx="0" cy="0" r="7.9569352528663035" fill="#2aa7c9">
  <animateMotion begin="-1.107985999226948s" dur="10s" repeatCount="indefinite">
    <mpath xlink:href="#path27"></mpath>
  </animateMotion>
</circle><path id="path28" d="M 1249.1148176673778 206.09643891444065
c 0 31.25149508882491 -7.646642415350775 8.97649327019439 -16.623135685545165 8.97649327019439
S 1215.8685462962876 237.34793400326555 1215.8685462962876 206.09643891444065
s 7.646642415350775 -8.97649327019439 16.623135685545165 -8.97649327019439
S 1249.1148176673778 174.84494382561576 1249.1148176673778 206.09643891444065
z" fill="none" stroke="none"></path>
<circle cx="0" cy="0" r="11.866323506605898" fill="#edb195">
  <animateMotion begin="-6.142643977546487s" dur="10s" repeatCount="indefinite">
    <mpath xlink:href="#path28"></mpath>
  </animateMotion>
</circle><path id="path29" d="M 560.0824241345304 345.4919803187696
c 0 34.922033293319565 -8.544752827088828 10.030796797017322 -18.57554962410615 10.030796797017322
S 522.931324886318 380.41401361208915 522.931324886318 345.4919803187696
s 8.544752827088828 -10.030796797017322 18.57554962410615 -10.030796797017322
S 560.0824241345304 310.56994702545006 560.0824241345304 345.4919803187696
z" fill="none" stroke="none"></path>
<circle cx="0" cy="0" r="10.321872402233225" fill="#04284d">
  <animateMotion begin="-3.4425468945723847s" dur="10s" repeatCount="indefinite">
    <mpath xlink:href="#path29"></mpath>
  </animateMotion>
</circle><path id="path30" d="M 571.9711046043376 292.62236281420104
c 0 20.0707444785347 -4.9109268404925315 5.765001073621669 -10.675927914114201 5.765001073621669
S 550.6192487761091 312.69310729273576 550.6192487761091 292.62236281420104
s 4.9109268404925315 -5.765001073621669 10.675927914114201 -5.765001073621669
S 571.9711046043376 272.5516183356663 571.9711046043376 292.62236281420104
z" fill="none" stroke="none"></path>
<circle cx="0" cy="0" r="9.05911566785683" fill="#2aa7c9">
  <animateMotion begin="-8.44259600948044s" dur="10s" repeatCount="indefinite">
    <mpath xlink:href="#path30"></mpath>
  </animateMotion>
</circle><path id="path31" d="M 431.0594295127815 518.8568830223397
c 0 26.323803921781042 -6.440930746818765 7.561092615830725 -14.002023362649489 7.561092615830725
S 403.05538278748253 545.1806869441208 403.05538278748253 518.8568830223397
s 6.440930746818765 -7.561092615830725 14.002023362649489 -7.561092615830725
S 431.0594295127815 492.53307910055867 431.0594295127815 518.8568830223397
z" fill="none" stroke="none"></path>
<circle cx="0" cy="0" r="11.71941966483104" fill="#06628d">
  <animateMotion begin="-3.2828806375633546s" dur="10s" repeatCount="indefinite">
    <mpath xlink:href="#path31"></mpath>
  </animateMotion>
</circle><path id="path32" d="M 1075.9688268946666 289.30879337619444
c 0 28.519960396435877 -6.978288182106651 8.1919035181252 -15.17019170023185 8.1919035181252
S 1045.6284434942027 317.8287537726303 1045.6284434942027 289.30879337619444
s 6.978288182106651 -8.1919035181252 15.17019170023185 -8.1919035181252
S 1075.9688268946666 260.7888329797586 1075.9688268946666 289.30879337619444
z" fill="none" stroke="none"></path>
<circle cx="0" cy="0" r="11.237259905268907" fill="#3c0f0f">
  <animateMotion begin="-7.48451599928244s" dur="10s" repeatCount="indefinite">
    <mpath xlink:href="#path32"></mpath>
  </animateMotion>
</circle><path id="path33" d="M 273.4706625865752 398.2177606304888
c 0 20.70912963487351 -5.067127463852028 5.948367022782817 -11.015494486634845 5.948367022782817
S 251.4396736133055 418.9268902653623 251.4396736133055 398.2177606304888
s 5.067127463852028 -5.948367022782817 11.015494486634845 -5.948367022782817
S 273.4706625865752 377.50863099561525 273.4706625865752 398.2177606304888
z" fill="none" stroke="none"></path>
<circle cx="0" cy="0" r="8.410976160569758" fill="#e46b43">
  <animateMotion begin="-8.2478109717504s" dur="10s" repeatCount="indefinite">
    <mpath xlink:href="#path33"></mpath>
  </animateMotion>
</circle><path id="path34" d="M 117.93536920440098 317.4880064050874
c 0 36.696206112818004 -8.978858942498022 10.540399628149851 -19.51925857064787 10.540399628149851
S 78.89685206310523 354.1842125179054 78.89685206310523 317.4880064050874
s 8.978858942498022 -10.540399628149851 19.51925857064787 -10.540399628149851
S 117.93536920440098 280.7918002922694 117.93536920440098 317.4880064050874
z" fill="none" stroke="none"></path>
<circle cx="0" cy="0" r="6.902900537011595" fill="#2aa7c9">
  <animateMotion begin="-5.1293457833863805s" dur="10s" repeatCount="indefinite">
    <mpath xlink:href="#path34"></mpath>
  </animateMotion>
</circle><path id="path35" d="M 477.1450790399943 562.0507794344844
c 0 33.38116701234302 -8.16773235408393 9.588207546098529 -17.755939900182458 9.588207546098529
S 441.6331992396294 595.4319464468274 441.6331992396294 562.0507794344844
s 8.16773235408393 -9.588207546098529 17.755939900182458 -9.588207546098529
S 477.1450790399943 528.6696124221414 477.1450790399943 562.0507794344844
z" fill="none" stroke="none"></path>
<circle cx="0" cy="0" r="11.131287947843266" fill="#e46b43">
  <animateMotion begin="-3.242905072503428s" dur="10s" repeatCount="indefinite">
    <mpath xlink:href="#path35"></mpath>
  </animateMotion>
</circle><path id="path36" d="M 971.1998879881203 305.5247721890989
c 0 29.12252886734995 -7.125725148394135 8.364981695940942 -15.490706844335078 8.364981695940942
S 940.2184742994502 334.64730105644884 940.2184742994502 305.5247721890989
s 7.125725148394135 -8.364981695940942 15.490706844335078 -8.364981695940942
S 971.1998879881203 276.4022433217489 971.1998879881203 305.5247721890989
z" fill="none" stroke="none"></path>
<circle cx="0" cy="0" r="9.709165508714541" fill="#f91a10">
  <animateMotion begin="-0.7823494889846017s" dur="10s" repeatCount="indefinite">
    <mpath xlink:href="#path36"></mpath>
  </animateMotion>
</circle><path id="path37" d="M 97.70325565732824 400.83136903867893
c 0 33.691647474758476 -8.243700977866435 9.677388104451904 -17.92108908231834 9.677388104451904
S 61.86107749269157 434.5230165134374 61.86107749269157 400.83136903867893
s 8.243700977866435 -9.677388104451904 17.92108908231834 -9.677388104451904
S 97.70325565732824 367.13972156392043 97.70325565732824 400.83136903867893
z" fill="none" stroke="none"></path>
<circle cx="0" cy="0" r="7.353335787990252" fill="#04284d">
  <animateMotion begin="-2.330274009209463s" dur="10s" repeatCount="indefinite">
    <mpath xlink:href="#path37"></mpath>
  </animateMotion>
</circle><path id="path38" d="M 341.8270261677479 349.2990062250399
c 0 20.253452012238622 -4.955631875334982 5.817480897132371 -10.773112772467353 5.817480897132371
S 320.28080062281316 369.5524582372785 320.28080062281316 349.2990062250399
s 4.955631875334982 -5.817480897132371 10.773112772467353 -5.817480897132371
S 341.8270261677479 329.0455542128013 341.8270261677479 349.2990062250399
z" fill="none" stroke="none"></path>
<circle cx="0" cy="0" r="7.592215350581946" fill="#e46b43">
  <animateMotion begin="-7.408669461332417s" dur="10s" repeatCount="indefinite">
    <mpath xlink:href="#path38"></mpath>
  </animateMotion>
</circle><path id="path39" d="M 401.27553471166175 275.35199671463334
c 0 28.879730832191697 -7.066317118514989 8.295241834778466 -15.361558953293455 8.295241834778466
S 370.5524168050748 304.231727546825 370.5524168050748 275.35199671463334
s 7.066317118514989 -8.295241834778466 15.361558953293455 -8.295241834778466
S 401.27553471166175 246.47226588244166 401.27553471166175 275.35199671463334
z" fill="none" stroke="none"></path>
<circle cx="0" cy="0" r="6.548597097693034" fill="#04284d">
  <animateMotion begin="-8.48343589708099s" dur="10s" repeatCount="indefinite">
    <mpath xlink:href="#path39"></mpath>
  </animateMotion>
</circle><path id="path40" d="M 1152.9713079493251 461.99315924569356
c 0 28.228601173332507 -6.906998159432421 8.108215230638061 -15.015213390070482 8.108215230638061
S 1122.940881169184 490.22176041902605 1122.940881169184 461.99315924569356
s 6.906998159432421 -8.108215230638061 15.015213390070482 -8.108215230638061
S 1152.9713079493251 433.76455807236107 1152.9713079493251 461.99315924569356
z" fill="none" stroke="none"></path>
<circle cx="0" cy="0" r="11.160965426486696" fill="#04284d">
  <animateMotion begin="-7.087530625435583s" dur="10s" repeatCount="indefinite">
    <mpath xlink:href="#path40"></mpath>
  </animateMotion>
</circle><path id="path41" d="M 426.0698366061761 429.17860452617396
c 0 25.158970047360317 -6.1559182030775235 7.226512673177964 -13.382430876255487 7.226512673177964
S 399.3049748536651 454.33757457353425 399.3049748536651 429.17860452617396
s 6.1559182030775235 -7.226512673177964 13.382430876255487 -7.226512673177964
S 426.0698366061761 404.01963447881366 426.0698366061761 429.17860452617396
z" fill="none" stroke="none"></path>
<circle cx="0" cy="0" r="8.343059946339928" fill="#06628d">
  <animateMotion begin="-2.248633897835608s" dur="10s" repeatCount="indefinite">
    <mpath xlink:href="#path41"></mpath>
  </animateMotion>
</circle><path id="path42" d="M 1086.5089899262275 542.6196541885593
c 0 31.830167198316857 -7.788232399588166 9.142707599516545 -16.93093999910471 9.142707599516545
S 1052.647109928018 574.4498213868761 1052.647109928018 542.6196541885593
s 7.788232399588166 -9.142707599516545 16.93093999910471 -9.142707599516545
S 1086.5089899262275 510.7894869902424 1086.5089899262275 542.6196541885593
z" fill="none" stroke="none"></path>
<circle cx="0" cy="0" r="11.852776351256637" fill="#e46b43">
  <animateMotion begin="-1.9611121180555813s" dur="10s" repeatCount="indefinite">
    <mpath xlink:href="#path42"></mpath>
  </animateMotion>
</circle><path id="path43" d="M 228.1837417812872 411.9332477953005
c 0 29.661414912713237 -7.257580244600046 8.519768113226142 -15.777348357826188 8.519768113226142
S 196.62904506563484 441.5946627080137 196.62904506563484 411.9332477953005
s 7.257580244600046 -8.519768113226142 15.777348357826188 -8.519768113226142
S 228.1837417812872 382.27183288258726 228.1837417812872 411.9332477953005
z" fill="none" stroke="none"></path>
<circle cx="0" cy="0" r="9.68380196476859" fill="#f91a10">
  <animateMotion begin="-7.475654050419269s" dur="10s" repeatCount="indefinite">
    <mpath xlink:href="#path43"></mpath>
  </animateMotion>
</circle><path id="path44" d="M 640.3798575515995 474.5844706570696
c 0 21.01793276050654 -5.142685675443089 6.037065792911453 -11.179751468354542 6.037065792911453
S 618.0203546148904 495.6024034175761 618.0203546148904 474.5844706570696
s 5.142685675443089 -6.037065792911453 11.179751468354542 -6.037065792911453
S 640.3798575515995 453.56653789656303 640.3798575515995 474.5844706570696
z" fill="none" stroke="none"></path>
<circle cx="0" cy="0" r="8.627819448094906" fill="#edb195">
  <animateMotion begin="-1.403045130288083s" dur="10s" repeatCount="indefinite">
    <mpath xlink:href="#path44"></mpath>
  </animateMotion>
</circle><path id="path45" d="M 759.5087999199563 310.0807655542592
c 0 20.90490367312842 -5.115029622148442 6.004599991217738 -11.119629613366179 6.004599991217738
S 737.2695406932239 330.98566922738763 737.2695406932239 310.0807655542592
s 5.115029622148442 -6.004599991217738 11.119629613366179 -6.004599991217738
S 759.5087999199563 289.17586188113074 759.5087999199563 310.0807655542592
z" fill="none" stroke="none"></path>
<circle cx="0" cy="0" r="10.471719412805294" fill="#06628d">
  <animateMotion begin="-7.253663133741169s" dur="10s" repeatCount="indefinite">
    <mpath xlink:href="#path45"></mpath>
  </animateMotion>
</circle><path id="path46" d="M 1004.3825808082869 400.52101098056175
c 0 31.6311895876458 -7.7395463884665245 9.085554456025921 -16.825100844492447 9.085554456025921
S 970.732379119302 432.15220056820755 970.732379119302 400.52101098056175
s 7.7395463884665245 -9.085554456025921 16.825100844492447 -9.085554456025921
S 1004.3825808082869 368.88982139291596 1004.3825808082869 400.52101098056175
z" fill="none" stroke="none"></path>
<circle cx="0" cy="0" r="10.379004768342956" fill="#e46b43">
  <animateMotion begin="-4.439591203941838s" dur="10s" repeatCount="indefinite">
    <mpath xlink:href="#path46"></mpath>
  </animateMotion>
</circle><path id="path47" d="M 704.7516619357338 64.45614788855562
c 0 22.307293475345322 -5.458167552478111 6.40741408334387 -11.86558163582198 6.40741408334387
S 681.0204986640898 86.76344136390094 681.0204986640898 64.45614788855562
s 5.458167552478111 -6.40741408334387 11.86558163582198 -6.40741408334387
S 704.7516619357338 42.1488544132103 704.7516619357338 64.45614788855562
z" fill="none" stroke="none"></path>
<circle cx="0" cy="0" r="7.2709470682693365" fill="#3c0f0f">
  <animateMotion begin="-2.511583359081111s" dur="10s" repeatCount="indefinite">
    <mpath xlink:href="#path47"></mpath>
  </animateMotion>
</circle><path id="path48" d="M 512.8420302854332 416.0412210366164
c 0 36.742963948036945 -8.990299689413293 10.553830070180824 -19.544129759594117 10.553830070180824
S 473.753770766245 452.78418498465334 473.753770766245 416.0412210366164
s 8.990299689413293 -10.553830070180824 19.544129759594117 -10.553830070180824
S 512.8420302854332 379.2982570885794 512.8420302854332 416.0412210366164
z" fill="none" stroke="none"></path>
<circle cx="0" cy="0" r="8.47806600925135" fill="#f91a10">
  <animateMotion begin="-5.004980961911021s" dur="10s" repeatCount="indefinite">
    <mpath xlink:href="#path48"></mpath>
  </animateMotion>
</circle><path id="path49" d="M 616.3718952382238 119.52280501505855
c 0 34.027918349115524 -8.325980021592096 9.773976547086374 -18.099956568678472 9.773976547086374
S 580.1719821008668 153.55072336417408 580.1719821008668 119.52280501505855
s 8.325980021592096 -9.773976547086374 18.099956568678472 -9.773976547086374
S 616.3718952382238 85.49488666594303 616.3718952382238 119.52280501505855
z" fill="none" stroke="none"></path>
<circle cx="0" cy="0" r="9.972862587103519" fill="#06628d">
  <animateMotion begin="-0.09977253380742734s" dur="10s" repeatCount="indefinite">
    <mpath xlink:href="#path49"></mpath>
  </animateMotion>
</circle><path id="path50" d="M 692.5050307457233 264.1662430152865
c 0 37.5401665802373 -9.185359907930401 10.782813804961778 -19.968173712892177 10.782813804961778
S 652.5686833199389 301.70640959552384 652.5686833199389 264.1662430152865
s 9.185359907930401 -10.782813804961778 19.968173712892177 -10.782813804961778
S 692.5050307457233 226.6260764350492 692.5050307457233 264.1662430152865
z" fill="none" stroke="none"></path>
<circle cx="0" cy="0" r="8.167318140995425" fill="#3c0f0f">
  <animateMotion begin="-9.44357397735506s" dur="10s" repeatCount="indefinite">
    <mpath xlink:href="#path50"></mpath>
  </animateMotion>
</circle><path id="path51" d="M 1015.6954687050533 397.3483566115952
c 0 19.077340639548925 -4.667859943719417 5.479661673061925 -10.147521616781344 5.479661673061925
S 995.4004254714906 416.42569725114413 995.4004254714906 397.3483566115952
s 4.667859943719417 -5.479661673061925 10.147521616781344 -5.479661673061925
S 1015.6954687050533 378.27101597204626 1015.6954687050533 397.3483566115952
z" fill="none" stroke="none"></path>
<circle cx="0" cy="0" r="11.047337322893396" fill="#edb195">
  <animateMotion begin="-4.039720306209221s" dur="10s" repeatCount="indefinite">
    <mpath xlink:href="#path51"></mpath>
  </animateMotion>
</circle><path id="path52" d="M 655.3085718302553 295.41987888166403
c 0 27.96603606380096 -6.842753504972575 8.032797592793893 -14.875551097766468 8.032797592793893
S 625.5574696347225 323.385914945465 625.5574696347225 295.41987888166403
s 6.842753504972575 -8.032797592793893 14.875551097766468 -8.032797592793893
S 655.3085718302553 267.45384281786306 655.3085718302553 295.41987888166403
z" fill="none" stroke="none"></path>
<circle cx="0" cy="0" r="9.384723854177954" fill="#06628d">
  <animateMotion begin="-4.481115874307138s" dur="10s" repeatCount="indefinite">
    <mpath xlink:href="#path52"></mpath>
  </animateMotion>
</circle><path id="path53" d="M 881.8629605950022 387.5998214305602
c 0 19.797620363181085 -4.844098599501755 5.686550529849887 -10.53064912935164 5.686550529849887
S 860.8016623362988 407.3974417937413 860.8016623362988 387.5998214305602
s 4.844098599501755 -5.686550529849887 10.53064912935164 -5.686550529849887
S 881.8629605950022 367.80220106737914 881.8629605950022 387.5998214305602
z" fill="none" stroke="none"></path>
<circle cx="0" cy="0" r="11.432256563035175" fill="#06628d">
  <animateMotion begin="-4.597626254453906s" dur="10s" repeatCount="indefinite">
    <mpath xlink:href="#path53"></mpath>
  </animateMotion>
</circle><path id="path54" d="M 1063.4267981558721 40.28899278770417
c 0 23.134512923814587 -5.6605723111461215 6.6450196696063175 -12.305591980752439 6.6450196696063175
S 1038.815614194367 63.42350571151876 1038.815614194367 40.28899278770417
s 5.6605723111461215 -6.6450196696063175 12.305591980752439 -6.6450196696063175
S 1063.4267981558721 17.15447986388958 1063.4267981558721 40.28899278770417
z" fill="none" stroke="none"></path>
<circle cx="0" cy="0" r="6.530218820711071" fill="#e46b43">
  <animateMotion begin="-8.77053646651493s" dur="10s" repeatCount="indefinite">
    <mpath xlink:href="#path54"></mpath>
  </animateMotion>
</circle><path id="path55" d="M 1028.2291579806572 154.15090139732644
c 0 34.64448239683531 -8.476841437523532 9.951074731005887 -18.427916168529418 9.951074731005887
S 991.3733256435983 188.79538379416175 991.3733256435983 154.15090139732644
s 8.476841437523532 -9.951074731005887 18.427916168529418 -9.951074731005887
S 1028.2291579806572 119.50641900049112 1028.2291579806572 154.15090139732644
z" fill="none" stroke="none"></path>
<circle cx="0" cy="0" r="8.111399177445936" fill="#06628d">
  <animateMotion begin="-4.983574100712412s" dur="10s" repeatCount="indefinite">
    <mpath xlink:href="#path55"></mpath>
  </animateMotion>
</circle><path id="path56" d="M 118.34914392889917 203.91970837973093
c 0 20.17858960977157 -4.937314478986661 5.795977866636515 -10.733292345623175 5.795977866636515
S 96.88255923765283 224.0982979895025 96.88255923765283 203.91970837973093
s 4.937314478986661 -5.795977866636515 10.733292345623175 -5.795977866636515
S 118.34914392889917 183.74111876995937 118.34914392889917 203.91970837973093
z" fill="none" stroke="none"></path>
<circle cx="0" cy="0" r="6.233064678656994" fill="#f91a10">
  <animateMotion begin="-1.1447278463009236s" dur="10s" repeatCount="indefinite">
    <mpath xlink:href="#path56"></mpath>
  </animateMotion>
</circle><path id="path57" d="M 744.0155828067159 576.1902806698498
c 0 34.75327270797727 -8.503460343441246 9.982323011865812 -18.485783355307056 9.982323011865812
S 707.0440160961018 610.9435533778271 707.0440160961018 576.1902806698498
s 8.503460343441246 -9.982323011865812 18.485783355307056 -9.982323011865812
S 744.0155828067159 541.4370079618725 744.0155828067159 576.1902806698498
z" fill="none" stroke="none"></path>
<circle cx="0" cy="0" r="8.537934258036529" fill="#3c0f0f">
  <animateMotion begin="-7.887270032781933s" dur="10s" repeatCount="indefinite">
    <mpath xlink:href="#path57"></mpath>
  </animateMotion>
</circle><path id="path58" d="M 714.8515094700662 57.22497935461297
c 0 36.696588165893886 -8.978952423569778 10.540509366799308 -19.519461790369085 10.540509366799308
S 675.812585889328 93.92156752050685 675.812585889328 57.22497935461297
s 8.978952423569778 -10.540509366799308 19.519461790369085 -10.540509366799308
S 714.8515094700662 20.528391188719084 714.8515094700662 57.22497935461297
z" fill="none" stroke="none"></path>
<circle cx="0" cy="0" r="11.672528186219147" fill="#edb195">
  <animateMotion begin="-1.3484927892712828s" dur="10s" repeatCount="indefinite">
    <mpath xlink:href="#path58"></mpath>
  </animateMotion>
</circle><path id="path59" d="M 1005.4275170519041 261.6295756523278
c 0 30.212240585807887 -7.392356739080652 8.677983998051202 -16.070340737131854 8.677983998051202
S 973.2868355776405 291.84181623813566 973.2868355776405 261.6295756523278
s 7.392356739080652 -8.677983998051202 16.070340737131854 -8.677983998051202
S 1005.4275170519041 231.4173350665199 1005.4275170519041 261.6295756523278
z" fill="none" stroke="none"></path>
<circle cx="0" cy="0" r="9.862739198933738" fill="#e46b43">
  <animateMotion begin="-1.6963358037964982s" dur="10s" repeatCount="indefinite">
    <mpath xlink:href="#path59"></mpath>
  </animateMotion>
</circle><path id="path60" d="M 281.00366976521565 404.92059857760825
c 0 28.711972193681934 -7.025269792071111 8.247055842866088 -15.272325634937198 8.247055842866088
S 250.45901849534124 433.6325707712902 250.45901849534124 404.92059857760825
s 7.025269792071111 -8.247055842866088 15.272325634937198 -8.247055842866088
S 281.00366976521565 376.2086263839263 281.00366976521565 404.92059857760825
z" fill="none" stroke="none"></path>
<circle cx="0" cy="0" r="9.80005746994475" fill="#e46b43">
  <animateMotion begin="-4.84408854383825s" dur="10s" repeatCount="indefinite">
    <mpath xlink:href="#path60"></mpath>
  </animateMotion>
</circle><path id="path61" d="M 907.3145178903693 302.590384455369
c 0 30.17616822492193 -7.3835305231191946 8.66762278800949 -16.051153311128687 8.66762278800949
S 875.2122112681119 332.76655268029094 875.2122112681119 302.590384455369
s 7.3835305231191946 -8.66762278800949 16.051153311128687 -8.66762278800949
S 907.3145178903693 272.4142162304471 907.3145178903693 302.590384455369
z" fill="none" stroke="none"></path>
<circle cx="0" cy="0" r="11.3429397623139" fill="#3c0f0f">
  <animateMotion begin="-8.573477176474169s" dur="10s" repeatCount="indefinite">
    <mpath xlink:href="#path61"></mpath>
  </animateMotion>
</circle><path id="path62" d="M 549.8901544309186 188.7912479625825
c 0 34.36623314455916 -8.408759173668729 9.871152073437205 -18.279911247105936 9.871152073437205
S 513.3303319367068 223.15748110714168 513.3303319367068 188.7912479625825
s 8.408759173668729 -9.871152073437205 18.279911247105936 -9.871152073437205
S 549.8901544309186 154.42501481802333 549.8901544309186 188.7912479625825
z" fill="none" stroke="none"></path>
<circle cx="0" cy="0" r="9.535380372072934" fill="#f91a10">
  <animateMotion begin="-0.6039157056948907s" dur="10s" repeatCount="indefinite">
    <mpath xlink:href="#path62"></mpath>
  </animateMotion>
</circle><path id="path63" d="M 401.4972423862569 248.29323094340293
c 0 28.604728390620206 -6.999029287066645 8.216251771773889 -15.215281058840535 8.216251771773889
S 371.0666802685758 276.89795933402314 371.0666802685758 248.29323094340293
s 6.999029287066645 -8.216251771773889 15.215281058840535 -8.216251771773889
S 401.4972423862569 219.68850255278272 401.4972423862569 248.29323094340293
z" fill="none" stroke="none"></path>
<circle cx="0" cy="0" r="8.69056357272494" fill="#2aa7c9">
  <animateMotion begin="-8.067827120708639s" dur="10s" repeatCount="indefinite">
    <mpath xlink:href="#path63"></mpath>
  </animateMotion>
</circle><path id="path64" d="M 1142.4909229620027 487.4794026086161
c 0 28.599635719673536 -6.997783208005226 8.214788983310484 -15.21257219131571 8.214788983310484
S 1112.0657785793712 516.0790383282897 1112.0657785793712 487.4794026086161
s 6.997783208005226 -8.214788983310484 15.21257219131571 -8.214788983310484
S 1142.4909229620027 458.8797668889426 1142.4909229620027 487.4794026086161
z" fill="none" stroke="none"></path>
<circle cx="0" cy="0" r="10.217059611100563" fill="#f91a10">
  <animateMotion begin="-7.36452166062604s" dur="10s" repeatCount="indefinite">
    <mpath xlink:href="#path64"></mpath>
  </animateMotion>
</circle><path id="path65" d="M 924.3327758761021 142.40281419148621
c 0 26.493810084079247 -6.482527999295985 7.609924173086592 -14.092452172382577 7.609924173086592
S 896.147871531337 168.89662427556547 896.147871531337 142.40281419148621
s 6.482527999295985 -7.609924173086592 14.092452172382577 -7.609924173086592
S 924.3327758761021 115.90900410740697 924.3327758761021 142.40281419148621
z" fill="none" stroke="none"></path>
<circle cx="0" cy="0" r="10.771209992658777" fill="#f91a10">
  <animateMotion begin="-6.019655575309024s" dur="10s" repeatCount="indefinite">
    <mpath xlink:href="#path65"></mpath>
  </animateMotion>
</circle><path id="path66" d="M 805.9546196078539 107.46933455906057
c 0 32.08148606881704 -7.849725314710552 9.214894934660215 -17.06462024937077 9.214894934660215
S 771.8253791091123 139.5508206278776 771.8253791091123 107.46933455906057
s 7.849725314710552 -9.214894934660215 17.06462024937077 -9.214894934660215
S 805.9546196078539 75.38784849024353 805.9546196078539 107.46933455906057
z" fill="none" stroke="none"></path>
<circle cx="0" cy="0" r="8.291924938138457" fill="#e46b43">
  <animateMotion begin="-1.640007027057555s" dur="10s" repeatCount="indefinite">
    <mpath xlink:href="#path66"></mpath>
  </animateMotion>
</circle><path id="path67" d="M 298.5096074378021 500.2514228143812
c 0 37.23811818496826 -9.11145444951351 10.696055223341947 -19.807509672855456 10.696055223341947
S 258.89458809209117 537.4895409993495 258.89458809209117 500.2514228143812
s 9.11145444951351 -10.696055223341947 19.807509672855456 -10.696055223341947
S 298.5096074378021 463.01330462941297 298.5096074378021 500.2514228143812
z" fill="none" stroke="none"></path>
<circle cx="0" cy="0" r="10.40927726305276" fill="#06628d">
  <animateMotion begin="-2.7608509984186647s" dur="10s" repeatCount="indefinite">
    <mpath xlink:href="#path67"></mpath>
  </animateMotion>
</circle><path id="path68" d="M 900.8468619208084 172.10457425647937
c 0 27.065836487333925 -6.622491906475322 7.774229629340596 -14.396721535815917 7.774229629340596
S 872.0534188491765 199.1704107438133 872.0534188491765 172.10457425647937
s 6.622491906475322 -7.774229629340596 14.396721535815917 -7.774229629340596
S 900.8468619208084 145.03873776914543 900.8468619208084 172.10457425647937
z" fill="none" stroke="none"></path>
<circle cx="0" cy="0" r="10.745468543378099" fill="#edb195">
  <animateMotion begin="-3.7422295143094897s" dur="10s" repeatCount="indefinite">
    <mpath xlink:href="#path68"></mpath>
  </animateMotion>
</circle><path id="path69" d="M 904.2985294788464 324.49642413960663
c 0 32.673859592949235 -7.994667772742897 9.385044776698185 -17.37971254944108 9.385044776698185
S 869.5391043799641 357.17028373255584 869.5391043799641 324.49642413960663
s 7.994667772742897 -9.385044776698185 17.37971254944108 -9.385044776698185
S 904.2985294788464 291.8225645466574 904.2985294788464 324.49642413960663
z" fill="none" stroke="none"></path>
<circle cx="0" cy="0" r="8.27519159364667" fill="#f91a10">
  <animateMotion begin="-0.28645899488000337s" dur="10s" repeatCount="indefinite">
    <mpath xlink:href="#path69"></mpath>
  </animateMotion>
</circle><path id="path70" d="M 1158.4247862138986 499.5428341463943
c 0 19.45825582931282 -4.7610625965339874 5.589073482887725 -10.350136079421713 5.589073482887725
S 1137.7245140550554 519.0010899757071 1137.7245140550554 499.5428341463943
s 4.7610625965339874 -5.589073482887725 10.350136079421713 -5.589073482887725
S 1158.4247862138986 480.0845783170815 1158.4247862138986 499.5428341463943
z" fill="none" stroke="none"></path>
<circle cx="0" cy="0" r="10.609733331935335" fill="#2aa7c9">
  <animateMotion begin="-7.880717459309645s" dur="10s" repeatCount="indefinite">
    <mpath xlink:href="#path70"></mpath>
  </animateMotion>
</circle><path id="path71" d="M 308.57062510340967 166.63664643913154
c 0 28.87683590529721 -7.065608785338679 8.294410313223667 -15.360019098562345 8.294410313223667
S 277.85058690628495 195.51348234442875 277.85058690628495 166.63664643913154
s 7.065608785338679 -8.294410313223667 15.360019098562345 -8.294410313223667
S 308.57062510340967 137.75981053383433 308.57062510340967 166.63664643913154
z" fill="none" stroke="none"></path>
<circle cx="0" cy="0" r="6.104562261950126" fill="#f91a10">
  <animateMotion begin="-3.205716739471285s" dur="10s" repeatCount="indefinite">
    <mpath xlink:href="#path71"></mpath>
  </animateMotion>
</circle><path id="path72" d="M 542.0518299262255 464.8245271038412
c 0 34.025943253960676 -8.325496753628675 9.773409232520619 -18.098905986149294 9.773409232520619
S 505.854017953927 498.8504703578019 505.854017953927 464.8245271038412
s 8.325496753628675 -9.773409232520619 18.098905986149294 -9.773409232520619
S 542.0518299262255 430.7985838498805 542.0518299262255 464.8245271038412
z" fill="none" stroke="none"></path>
<circle cx="0" cy="0" r="11.409985800623431" fill="#3c0f0f">
  <animateMotion begin="-1.2337085346862309s" dur="10s" repeatCount="indefinite">
    <mpath xlink:href="#path72"></mpath>
  </animateMotion>
</circle><path id="path73" d="M 811.241201010532 215.08173947952628
c 0 32.3585527810887 -7.917518233670638 9.294477926482925 -17.21199616015356 9.294477926482925
S 776.8172086902248 247.44029226061497 776.8172086902248 215.08173947952628
s 7.917518233670638 -9.294477926482925 17.21199616015356 -9.294477926482925
S 811.241201010532 182.7231866984376 811.241201010532 215.08173947952628
z" fill="none" stroke="none"></path>
<circle cx="0" cy="0" r="10.064036215915856" fill="#04284d">
  <animateMotion begin="-5.9595159967001905s" dur="10s" repeatCount="indefinite">
    <mpath xlink:href="#path73"></mpath>
  </animateMotion>
</circle><path id="path74" d="M 709.5841613372379 144.98695474093236
c 0 26.487098153220582 -6.480885718341206 7.607996278052721 -14.088881996393926 7.607996278052721
S 681.4063973444499 171.47405289415295 681.4063973444499 144.98695474093236
s 6.480885718341206 -7.607996278052721 14.088881996393926 -7.607996278052721
S 709.5841613372379 118.49985658771178 709.5841613372379 144.98695474093236
z" fill="none" stroke="none"></path>
<circle cx="0" cy="0" r="7.157054520013606" fill="#06628d">
  <animateMotion begin="-4.966196760213517s" dur="10s" repeatCount="indefinite">
    <mpath xlink:href="#path74"></mpath>
  </animateMotion>
</circle><path id="path75" d="M 1239.2108373740193 260.19142130149606
c 0 35.87268128861675 -8.777358187640267 10.30385526375162 -19.08121345139189 10.30385526375162
S 1201.0484104712355 296.06410259011284 1201.0484104712355 260.19142130149606
s 8.777358187640267 -10.30385526375162 19.08121345139189 -10.30385526375162
S 1239.2108373740193 224.31874001287932 1239.2108373740193 260.19142130149606
z" fill="none" stroke="none"></path>
<circle cx="0" cy="0" r="10.8777397805795" fill="#e46b43">
  <animateMotion begin="-4.813696135995729s" dur="10s" repeatCount="indefinite">
    <mpath xlink:href="#path75"></mpath>
  </animateMotion>
</circle><path id="path76" d="M 956.2937702485044 574.4932095030063
c 0 33.03354293548668 -8.08267539910844 9.488358077214258 -17.5710334763227 9.488358077214258
S 921.1517032958591 607.526752438493 921.1517032958591 574.4932095030063
s 8.08267539910844 -9.488358077214258 17.5710334763227 -9.488358077214258
S 956.2937702485044 541.4596665675195 956.2937702485044 574.4932095030063
z" fill="none" stroke="none"></path>
<circle cx="0" cy="0" r="6.055749541995741" fill="#edb195">
  <animateMotion begin="-5.2311167335330655s" dur="10s" repeatCount="indefinite">
    <mpath xlink:href="#path76"></mpath>
  </animateMotion>
</circle><path id="path77" d="M 176.7385869681645 327.87781552205166
c 0 29.57926608489814 -7.237479999496353 8.496172173321806 -15.73365217281816 8.496172173321806
S 145.2712826225282 357.4570816069498 145.2712826225282 327.87781552205166
s 7.237479999496353 -8.496172173321806 15.73365217281816 -8.496172173321806
S 176.7385869681645 298.2985494371535 176.7385869681645 327.87781552205166
z" fill="none" stroke="none"></path>
<circle cx="0" cy="0" r="6.4318969102434025" fill="#e46b43">
  <animateMotion begin="-9.592550275841507s" dur="10s" repeatCount="indefinite">
    <mpath xlink:href="#path77"></mpath>
  </animateMotion>
</circle><path id="path78" d="M 914.7014604835401 106.43696776714695
c 0 26.805799932917868 -6.558865941033095 7.699538278604069 -14.258404219637164 7.699538278604069
S 886.1846520442657 133.24276770006483 886.1846520442657 106.43696776714695
s 6.558865941033095 -7.699538278604069 14.258404219637164 -7.699538278604069
S 914.7014604835401 79.63116783422909 914.7014604835401 106.43696776714695
z" fill="none" stroke="none"></path>
<circle cx="0" cy="0" r="11.859340668073639" fill="#e46b43">
  <animateMotion begin="-3.963723157382295s" dur="10s" repeatCount="indefinite">
    <mpath xlink:href="#path78"></mpath>
  </animateMotion>
</circle><path id="path79" d="M 929.5750785259281 250.95746573537645
c 0 34.15015465917054 -8.355888905967259 9.809086976570262 -18.164975882537522 9.809086976570262
S 893.245126760853 285.107620394547 893.245126760853 250.95746573537645
s 8.355888905967259 -9.809086976570262 18.164975882537522 -9.809086976570262
S 929.5750785259281 216.8073110762059 929.5750785259281 250.95746573537645
z" fill="none" stroke="none"></path>
<circle cx="0" cy="0" r="9.553235058281476" fill="#04284d">
  <animateMotion begin="-0.494391729009771s" dur="10s" repeatCount="indefinite">
    <mpath xlink:href="#path79"></mpath>
  </animateMotion>
</circle><path id="path80" d="M 273.40715739623573 169.45123996567287
c 0 22.398376523899714 -5.480453830315887 6.433576235588215 -11.914030065904102 6.433576235588215
S 249.5790972644275 191.84961648957258 249.5790972644275 169.45123996567287
s 5.480453830315887 -6.433576235588215 11.914030065904102 -6.433576235588215
S 273.40715739623573 147.05286344177316 273.40715739623573 169.45123996567287
z" fill="none" stroke="none"></path>
<circle cx="0" cy="0" r="10.199618733307076" fill="#f91a10">
  <animateMotion begin="-8.709339695432881s" dur="10s" repeatCount="indefinite">
    <mpath xlink:href="#path80"></mpath>
  </animateMotion>
</circle><path id="path81" d="M 1104.9422725408615 574.8792303406383
c 0 30.228262986253984 -7.396277113657889 8.68258617690274 -16.07886329056063 8.68258617690274
S 1072.7845459597404 605.1074933268923 1072.7845459597404 574.8792303406383
s 7.396277113657889 -8.68258617690274 16.07886329056063 -8.68258617690274
S 1104.9422725408615 544.6509673543843 1104.9422725408615 574.8792303406383
z" fill="none" stroke="none"></path>
<circle cx="0" cy="0" r="8.935928400781085" fill="#edb195">
  <animateMotion begin="-0.45996091496002034s" dur="10s" repeatCount="indefinite">
    <mpath xlink:href="#path81"></mpath>
  </animateMotion>
</circle><path id="path82" d="M 751.0622331369775 345.3219274849874
c 0 36.12422511275842 -8.838906144611101 10.37610721323912 -19.21501335785022 10.37610721323912
S 712.632206421277 381.4461525977458 712.632206421277 345.3219274849874
s 8.838906144611101 -10.37610721323912 19.21501335785022 -10.37610721323912
S 751.0622331369775 309.19770237222895 751.0622331369775 345.3219274849874
z" fill="none" stroke="none"></path>
<circle cx="0" cy="0" r="10.3765471681634" fill="#edb195">
  <animateMotion begin="-8.792490832708804s" dur="10s" repeatCount="indefinite">
    <mpath xlink:href="#path82"></mpath>
  </animateMotion>
</circle><path id="path83" d="M 782.6679971620687 336.74447659660007
c 0 20.286097704876926 -4.96361965119329 5.82685785140082 -10.79047750259411 5.82685785140082
S 761.0870421568806 357.030574301477 761.0870421568806 336.74447659660007
s 4.96361965119329 -5.82685785140082 10.79047750259411 -5.82685785140082
S 782.6679971620687 316.45837889172316 782.6679971620687 336.74447659660007
z" fill="none" stroke="none"></path>
<circle cx="0" cy="0" r="8.604150977677735" fill="#edb195">
  <animateMotion begin="-0.3587615536309996s" dur="10s" repeatCount="indefinite">
    <mpath xlink:href="#path83"></mpath>
  </animateMotion>
</circle><path id="path84" d="M 82.30191160300248 316.7406798719387
c 0 33.031254041867584 -8.082115350669728 9.487700629047072 -17.5698159797168 9.487700629047072
S 47.16227964356887 349.77193391380627 47.16227964356887 316.7406798719387
s 8.082115350669728 -9.487700629047072 17.5698159797168 -9.487700629047072
S 82.30191160300248 283.70942583007115 82.30191160300248 316.7406798719387
z" fill="none" stroke="none"></path>
<circle cx="0" cy="0" r="7.623242037780598" fill="#f91a10">
  <animateMotion begin="-0.8691079534646029s" dur="10s" repeatCount="indefinite">
    <mpath xlink:href="#path84"></mpath>
  </animateMotion>
</circle><path id="path85" d="M 451.3824489773289 251.0872288597653
c 0 36.623542453098004 -8.96107953639632 10.519528151421769 -19.480607687818086 10.519528151421769
S 412.4212336016928 287.7107713128633 412.4212336016928 251.0872288597653
s 8.96107953639632 -10.519528151421769 19.480607687818086 -10.519528151421769
S 451.3824489773289 214.4636864066673 451.3824489773289 251.0872288597653
z" fill="none" stroke="none"></path>
<circle cx="0" cy="0" r="8.995035797037065" fill="#06628d">
  <animateMotion begin="-0.6913318138823499s" dur="10s" repeatCount="indefinite">
    <mpath xlink:href="#path85"></mpath>
  </animateMotion>
</circle><path id="path86" d="M 1023.4879464433238 215.46227832363368
c 0 27.630155004753572 -6.760569841588639 7.936321118386664 -14.696890959975304 7.936321118386664
S 994.0941645233731 243.09243332838724 994.0941645233731 215.46227832363368
s 6.760569841588639 -7.936321118386664 14.696890959975304 -7.936321118386664
S 1023.4879464433238 187.83212331888012 1023.4879464433238 215.46227832363368
z" fill="none" stroke="none"></path>
<circle cx="0" cy="0" r="11.954547492717811" fill="#e46b43">
  <animateMotion begin="-5.9781647410673955s" dur="10s" repeatCount="indefinite">
    <mpath xlink:href="#path86"></mpath>
  </animateMotion>
</circle><path id="path87" d="M 270.19108483887874 452.2290801084626
c 0 28.307651913078047 -6.926340361710585 8.130921294181993 -15.057261655892578 8.130921294181993
S 240.0765615270936 480.5367320215406 240.0765615270936 452.2290801084626
s 6.926340361710585 -8.130921294181993 15.057261655892578 -8.130921294181993
S 270.19108483887874 423.9214281953846 270.19108483887874 452.2290801084626
z" fill="none" stroke="none"></path>
<circle cx="0" cy="0" r="11.20311351602184" fill="#f91a10">
  <animateMotion begin="-2.203960186831464s" dur="10s" repeatCount="indefinite">
    <mpath xlink:href="#path87"></mpath>
  </animateMotion>
</circle><path id="path88" d="M 849.2162813515356 483.1316605235088
c 0 28.209067433291608 -6.902218627294754 8.10260447551993 -15.004823102814683 8.10260447551993
S 819.2066351459061 511.3407279568004 819.2066351459061 483.1316605235088
s 6.902218627294754 -8.10260447551993 15.004823102814683 -8.10260447551993
S 849.2162813515356 454.9225930902172 849.2162813515356 483.1316605235088
z" fill="none" stroke="none"></path>
<circle cx="0" cy="0" r="11.096754625203596" fill="#04284d">
  <animateMotion begin="-5.362927891513203s" dur="10s" repeatCount="indefinite">
    <mpath xlink:href="#path88"></mpath>
  </animateMotion>
</circle><path id="path89" d="M 428.32818428609636 248.1379119768661
c 0 25.012271206383552 -6.120023805817251 7.184375772046339 -13.30439957786359 7.184375772046339
S 401.7193851303692 273.1501831832496 401.7193851303692 248.1379119768661
s 6.120023805817251 -7.184375772046339 13.30439957786359 -7.184375772046339
S 428.32818428609636 223.12564077048253 428.32818428609636 248.1379119768661
z" fill="none" stroke="none"></path>
<circle cx="0" cy="0" r="8.390376822394071" fill="#f91a10">
  <animateMotion begin="-2.4792242364046846s" dur="10s" repeatCount="indefinite">
    <mpath xlink:href="#path89"></mpath>
  </animateMotion>
</circle><path id="path90" d="M 557.8739542316343 315.4281789668547
c 0 26.465694606347625 -6.475648680276546 7.601848450759424 -14.077497131035969 7.601848450759424
S 529.7189599695623 341.8938735732023 529.7189599695623 315.4281789668547
s 6.475648680276546 -7.601848450759424 14.077497131035969 -7.601848450759424
S 557.8739542316343 288.9624843605071 557.8739542316343 315.4281789668547
z" fill="none" stroke="none"></path>
<circle cx="0" cy="0" r="7.343723248331045" fill="#f91a10">
  <animateMotion begin="-6.71005404789466s" dur="10s" repeatCount="indefinite">
    <mpath xlink:href="#path90"></mpath>
  </animateMotion>
</circle><path id="path91" d="M 331.78223882021194 491.0849719462054
c 0 20.811998853988026 -5.09229759193324 5.977914564443369 -11.07021215637661 5.977914564443369
S 309.6418145074587 511.89697080019346 309.6418145074587 491.0849719462054
s 5.09229759193324 -5.977914564443369 11.07021215637661 -5.977914564443369
S 331.78223882021194 470.2729730922174 331.78223882021194 491.0849719462054
z" fill="none" stroke="none"></path>
<circle cx="0" cy="0" r="11.965506669456" fill="#e46b43">
  <animateMotion begin="-4.724996834052031s" dur="10s" repeatCount="indefinite">
    <mpath xlink:href="#path91"></mpath>
  </animateMotion>
</circle><path id="path92" d="M 207.55243061267095 424.48110492204364
c 0 35.39595853792519 -8.660713259279566 10.166924260893406 -18.827637520172974 10.166924260893406
S 169.897155572325 459.87706345996884 169.897155572325 424.48110492204364
s 8.660713259279566 -10.166924260893406 18.827637520172974 -10.166924260893406
S 207.55243061267095 389.08514638411845 207.55243061267095 424.48110492204364
z" fill="none" stroke="none"></path>
<circle cx="0" cy="0" r="11.313246926759811" fill="#06628d">
  <animateMotion begin="-0.576096259912755s" dur="10s" repeatCount="indefinite">
    <mpath xlink:href="#path92"></mpath>
  </animateMotion>
</circle><path id="path93" d="M 939.2618626777145 383.3082558357688
c 0 37.52444098348365 -9.181512155533232 10.778296878234666 -19.9598090337679 10.778296878234666
S 899.3422446101787 420.8326968192525 899.3422446101787 383.3082558357688
s 9.181512155533232 -10.778296878234666 19.9598090337679 -10.778296878234666
S 939.2618626777145 345.78381485228516 939.2618626777145 383.3082558357688
z" fill="none" stroke="none"></path>
<circle cx="0" cy="0" r="6.934592112341214" fill="#2aa7c9">
  <animateMotion begin="-0.2735580103305768s" dur="10s" repeatCount="indefinite">
    <mpath xlink:href="#path93"></mpath>
  </animateMotion>
</circle><path id="path94" d="M 1030.4810064432654 533.5906261913199
c 0 23.738260171654584 -5.808297701575057 6.818436432283764 -12.626734133858822 6.818436432283764
S 1005.2275381755478 557.3288863629745 1005.2275381755478 533.5906261913199
s 5.808297701575057 -6.818436432283764 12.626734133858822 -6.818436432283764
S 1030.4810064432654 509.8523660196653 1030.4810064432654 533.5906261913199
z" fill="none" stroke="none"></path>
<circle cx="0" cy="0" r="10.306966020215459" fill="#2aa7c9">
  <animateMotion begin="-7.242053268418049s" dur="10s" repeatCount="indefinite">
    <mpath xlink:href="#path94"></mpath>
  </animateMotion>
</circle><path id="path95" d="M 1011.417181965705 290.2057577864924
c 0 30.92980350445266 -7.567930644706501 8.884092495959807 -16.452023140666306 8.884092495959807
S 978.5131356843725 321.1355612909451 978.5131356843725 290.2057577864924
s 7.567930644706501 -8.884092495959807 16.452023140666306 -8.884092495959807
S 1011.417181965705 259.2759542820398 1011.417181965705 290.2057577864924
z" fill="none" stroke="none"></path>
<circle cx="0" cy="0" r="11.534540246990863" fill="#edb195">
  <animateMotion begin="-3.8649640429476517s" dur="10s" repeatCount="indefinite">
    <mpath xlink:href="#path95"></mpath>
  </animateMotion>
</circle><path id="path96" d="M 1028.1358219115245 413.28941066189293
c 0 21.976408469510748 -5.377206327646246 6.312372645497768 -11.689578973144014 6.312372645497768
S 1004.7566639652365 435.2658191314037 1004.7566639652365 413.28941066189293
s 5.377206327646246 -6.312372645497768 11.689578973144014 -6.312372645497768
S 1028.1358219115245 391.31300219238216 1028.1358219115245 413.28941066189293
z" fill="none" stroke="none"></path>
<circle cx="0" cy="0" r="10.406145980797715" fill="#04284d">
  <animateMotion begin="-3.8120712117229094s" dur="10s" repeatCount="indefinite">
    <mpath xlink:href="#path96"></mpath>
  </animateMotion>
</circle><path id="path97" d="M 440.3275720811132 281.98169589363
c 0 21.71961305633626 -5.314373407401425 6.238612260862544 -11.552985668263968 6.238612260862544
S 417.2216007445853 303.70130894996623 417.2216007445853 281.98169589363
s 5.314373407401425 -6.238612260862544 11.552985668263968 -6.238612260862544
S 440.3275720811132 260.26208283729375 440.3275720811132 281.98169589363
z" fill="none" stroke="none"></path>
<circle cx="0" cy="0" r="10.673782264779074" fill="#06628d">
  <animateMotion begin="-2.2984064607302512s" dur="10s" repeatCount="indefinite">
    <mpath xlink:href="#path97"></mpath>
  </animateMotion>
</circle><path id="path98" d="M 726.6656369263897 202.71509977934838
c 0 26.101738463497664 -6.386595581494109 7.497307856536563 -13.883903438030671 7.497307856536563
S 698.8978300503284 228.81683824284605 698.8978300503284 202.71509977934838
s 6.386595581494109 -7.497307856536563 13.883903438030671 -7.497307856536563
S 726.6656369263897 176.6133613158507 726.6656369263897 202.71509977934838
z" fill="none" stroke="none"></path>
<circle cx="0" cy="0" r="9.198877926404831" fill="#3c0f0f">
  <animateMotion begin="-1.3753998038231385s" dur="10s" repeatCount="indefinite">
    <mpath xlink:href="#path98"></mpath>
  </animateMotion>
</circle><path id="path99" d="M 300.8724303512498 313.88358246048745
c 0 31.21905748206651 -7.638705554122656 8.967176085274424 -16.60588163939708 8.967176085274424
S 267.6606670724557 345.10263994255394 267.6606670724557 313.88358246048745
s 7.638705554122656 -8.967176085274424 16.60588163939708 -8.967176085274424
S 300.8724303512498 282.66452497842096 300.8724303512498 313.88358246048745
z" fill="none" stroke="none"></path>
<circle cx="0" cy="0" r="8.853483446370564" fill="#f91a10">
  <animateMotion begin="-7.501296396227448s" dur="10s" repeatCount="indefinite">
    <mpath xlink:href="#path99"></mpath>
  </animateMotion>
</circle></g>
</svg>