<?xml version="1.0" encoding="utf-8"?>
<svg xmlns="http://www.w3.org/2000/svg" style="margin: auto; background: rgba(255, 255, 255, 0); display: block; shape-rendering: auto;" width="272" height="96" preserveAspectRatio="xMidYMid">
<style type="text/css">
  text {
    text-anchor: middle; font-size: 80px; opacity: 0;
  }
</style>
<g style="transform-origin:136px 48px;transform:scale(1)">
<g transform="translate(136,48)">
  <g transform="translate(0,0)"><g class="path" style="transform: scale(0.91); transform-origin: -79.88px -6.4422px; animation: 2.7027s linear -1.56081s infinite normal forwards running breath-da8b94d2-79a8-455d-8cd2-dd66021a4f20;"><path d="M30.32-30.56L29.12-30.32L29.12-30.32Q28.24-30.08 28.24-29.80L28.24-29.80L28.24-29.80Q28.24-29.52 30.16-28.80L30.16-28.80L30.16-28.80Q32.08-28.08 33.80-26.56L33.80-26.56L33.80-26.56Q35.52-25.04 36.24-22.88L36.24-22.88L36.24-22.88Q37.36-19.60 37.36-15.84L37.36-15.84L37.36-15.84Q37.36-12.08 37.92-9.64L37.92-9.64L37.92-9.64Q38.48-7.20 39.28-5.92L39.28-5.92L39.28-5.92Q40.88-3.20 42.24-2.56L42.24-2.56L42.80-2.24L42.80-2.24Q43.28-1.92 43.28-1.44L43.28-1.44L43.28-1.44Q43.28-0.24 39.36 0.68L39.36 0.68L39.36 0.68Q35.44 1.60 33.28 1.60L33.28 1.60L33.28 1.60Q29.04 1.60 27.88-1.80L27.88-1.80L27.88-1.80Q26.72-5.20 26.72-13.44L26.72-13.44L26.72-17.84L26.72-17.84Q26.72-24.80 22.56-26.72L22.56-26.72L22.56-26.72Q20.96-27.44 18.72-27.44L18.72-27.44L18.64-27.44L18.64-27.44Q17.92-27.44 17.92-28.84L17.92-28.84L17.92-28.84Q17.92-30.24 18.76-31.68L18.76-31.68L18.76-31.68Q19.60-33.12 20.24-33.12L20.24-33.12L20.24-33.12Q22.88-33.12 24.80-34.12L24.80-34.12L24.80-34.12Q26.72-35.12 27.60-36.56L27.60-36.56L27.60-36.56Q29.44-39.60 29.60-41.76L29.60-41.76L29.60-42.80L29.60-42.80Q29.60-45.76 28.64-47.80L28.64-47.80L28.64-47.80Q27.68-49.84 26.24-50.64L26.24-50.64L26.24-50.64Q23.84-51.92 21.36-51.92L21.36-51.92L21.36-51.92Q18.88-51.92 17.28-51.52L17.28-51.52L17.28-51.52Q15.04-50.88 15.04-50.16L15.04-50.16L15.04-50.16Q14.32-39.68 14.32-29.96L14.32-29.96L14.32-29.96Q14.32-20.24 14.60-15.08L14.60-15.08L14.60-15.08Q14.88-9.92 15.16-6.76L15.16-6.76L15.16-6.76Q15.44-3.60 15.44-3.04L15.44-3.04L15.44-3.04Q15.44-2 14.88-1.60L14.88-1.60L14.88-1.60Q11.60 1.44 4.56 1.44L4.56 1.44L4.56 1.44Q3.36 1.44 3.36 0.64L3.36 0.64L3.36 0.64Q3.36 0.40 3.60-0.48L3.60-0.48L3.60-0.48Q4.40-2.32 4.76-12.16L4.76-12.16L4.76-12.16Q5.12-22 5.12-30.12L5.12-30.12L5.12-30.12Q5.12-38.24 4.80-43.28L4.80-43.28L4.80-43.28Q4.32-50.88 3.20-52.40L3.20-52.40L3.20-52.40Q2.32-53.52 2.32-53.96L2.32-53.96L2.32-53.96Q2.32-54.40 3.20-54.88L3.20-54.88L3.20-54.88Q8.32-57.28 21.76-57.28L21.76-57.28L21.76-57.28Q32.56-57.28 37.92-51.20L37.92-51.20L37.92-51.20Q40.80-47.84 40.80-42.80L40.80-42.80L40.80-42.80Q40.80-39.76 39.60-37.36L39.60-37.36L39.60-37.36Q38.40-34.96 36.64-33.68L36.64-33.68L36.64-33.68Q33.28-31.12 30.32-30.56L30.32-30.56" fill="#8cd0e5" stroke="none" stroke-width="none" transform="translate(-102.67999267578125,21.397797622680663)" style="fill: rgb(140, 208, 229);"></path></g><g class="path" style="transform: scale(0.91); transform-origin: -45.52px 3.9978px; animation: 2.7027s linear -1.33784s infinite normal forwards running breath-da8b94d2-79a8-455d-8cd2-dd66021a4f20;"><path d="M52.24-20.32L52.24-20.32L52.32-18.32L52.32-18.32Q52.32-17.84 52.96-17.84L52.96-17.84L52.96-17.84Q55.52-18.08 57.44-19.16L57.44-19.16L57.44-19.16Q59.36-20.24 60.32-21.60L60.32-21.60L60.32-21.60Q62.24-24.56 62.40-26.72L62.40-26.72L62.48-27.68L62.48-27.68Q62.48-32 59.04-32L59.04-32L59.04-32Q56.48-32 54.88-29.76L54.88-29.76L54.88-29.76Q52.24-26.24 52.24-20.32zM69.68-9.68L69.68-9.68L69.68-9.68Q69.68-6.64 68.44-4.36L68.44-4.36L68.44-4.36Q67.20-2.08 65.64-1L65.64-1L65.64-1Q64.08 0.08 62 0.72L62 0.72L62 0.72Q59.36 1.52 56.96 1.52L56.96 1.52L56.96 1.52Q50.24 1.52 47.04-3.52L47.04-3.52L47.04-3.52Q43.84-8.56 43.84-16.36L43.84-16.36L43.84-16.36Q43.84-24.16 47.80-30.24L47.80-30.24L47.80-30.24Q51.76-36.32 59.68-36.32L59.68-36.32L59.68-36.32Q66.88-36.32 69.44-31.28L69.44-31.28L69.44-31.28Q70.48-29.36 70.48-27.64L70.48-27.64L70.48-27.64Q70.48-25.92 70.32-24.92L70.32-24.92L70.32-24.92Q70.16-23.92 69.20-21.92L69.20-21.92L69.20-21.92Q68.24-19.92 66.64-18.32L66.64-18.32L66.64-18.32Q65.04-16.72 61.60-15.28L61.60-15.28L61.60-15.28Q58.16-13.84 53.52-13.36L53.52-13.36L53.52-13.36Q52.88-13.36 52.88-12.80L52.88-12.80L52.88-12.80Q52.88-12.08 53.40-10.68L53.40-10.68L53.40-10.68Q53.92-9.28 54.56-8.32L54.56-8.32L54.56-8.32Q56.32-6.08 59.76-6.08L59.76-6.08L59.76-6.08Q63.20-6.08 65.60-8.32L65.60-8.32L65.60-8.32Q66.88-9.52 67.68-11.28L67.68-11.28L67.68-11.28Q68-11.92 68.52-11.92L68.52-11.92L68.52-11.92Q69.04-11.92 69.36-11.04L69.36-11.04L69.36-11.04Q69.68-10.16 69.68-9.68" fill="#8cd0e5" stroke="none" stroke-width="none" transform="translate(-102.67999267578125,21.397797622680663)" style="fill: rgb(55, 104, 136);"></path></g><g class="path" style="transform: scale(0.91); transform-origin: -15.6px 3.9178px; animation: 2.7027s linear -1.11486s infinite normal forwards running breath-da8b94d2-79a8-455d-8cd2-dd66021a4f20;"><path d="M100.24-9.20L100.24-9.20L100.24-9.20Q100.24-4.64 96.60-1.64L96.60-1.64L96.60-1.64Q92.96 1.36 87.92 1.36L87.92 1.36L87.92 1.36Q80.56 1.36 77.12-3.08L77.12-3.08L77.12-3.08Q73.68-7.52 73.68-15.12L73.68-15.12L73.68-15.12Q73.68-23.20 77.28-29.44L77.28-29.44L77.28-29.44Q79.04-32.64 82.32-34.48L82.32-34.48L82.32-34.48Q85.60-36.32 90-36.32L90-36.32L90-36.32Q96.64-36.32 99.36-31.84L99.36-31.84L99.36-31.84Q100.48-30 100.48-27.52L100.48-27.52L100.48-27.52Q100.48-23.68 97.28-21.76L97.28-21.76L97.28-21.76Q96-21.04 94.92-21.04L94.92-21.04L94.92-21.04Q93.84-21.04 93.16-21.16L93.16-21.16L93.16-21.16Q92.48-21.28 91.36-22.24L91.36-22.24L91.36-22.24Q90.24-23.20 90.24-24.88L90.24-24.88L90.24-24.88Q90.32-25.76 91.60-26.32L91.60-26.32L91.60-26.32Q92.80-27.04 92.80-28.88L92.80-28.88L92.80-28.88Q92.80-32 88.96-32L88.96-32L88.96-32Q88-32 86.68-31.16L86.68-31.16L86.68-31.16Q85.36-30.32 84.48-29L84.48-29L84.48-29Q83.60-27.68 82.84-24.84L82.84-24.84L82.84-24.84Q82.08-22 82.08-19.40L82.08-19.40L82.08-19.40Q82.08-16.80 82.28-15.48L82.28-15.48L82.28-15.48Q82.48-14.16 83.16-11.88L83.16-11.88L83.16-11.88Q83.84-9.60 85.72-8.16L85.72-8.16L85.72-8.16Q87.60-6.72 90.40-6.72L90.40-6.72L90.40-6.72Q93.76-6.72 96.32-9.52L96.32-9.52L96.32-9.52Q97.36-10.64 98-12.24L98-12.24L98-12.24Q98.32-12.88 98.80-12.88L98.80-12.88L98.80-12.88Q99.52-12.88 99.88-11.56L99.88-11.56L99.88-11.56Q100.24-10.24 100.24-9.20" fill="#8cd0e5" stroke="none" stroke-width="none" transform="translate(-102.67999267578125,21.397797622680663)" style="fill: rgb(130, 107, 136);"></path></g><g class="path" style="transform: scale(0.91); transform-origin: 8.60001px -24.7222px; animation: 2.7027s linear -0.891892s infinite normal forwards running breath-da8b94d2-79a8-455d-8cd2-dd66021a4f20;"><path d="M112.72-42.80L112.72-42.80L110.80-42.88L110.80-42.88Q108.64-42.88 108.00-41.84L108.00-41.84L108.00-41.84Q107.84-41.60 107.60-41.60L107.60-41.60L107.60-41.60Q106.56-41.60 106.56-45.16L106.56-45.16L106.56-45.16Q106.56-48.72 107.64-49.68L107.64-49.68L107.64-49.68Q108.72-50.64 111.40-50.64L111.40-50.64L111.40-50.64Q114.08-50.64 115.04-49.72L115.04-49.72L115.04-49.72Q116.00-48.80 116.00-46.64L116.00-46.64L116.00-46.64Q116.00-44.48 115.28-43.64L115.28-43.64L115.28-43.64Q114.56-42.80 112.72-42.80" fill="#8cd0e5" stroke="none" stroke-width="none" transform="translate(-102.67999267578125,21.397797622680663)" style="fill: rgb(222, 120, 106);"></path></g><g class="path" style="transform: scale(0.91); transform-origin: 7.56001px 4.2378px; animation: 2.7027s linear -0.668919s infinite normal forwards running breath-da8b94d2-79a8-455d-8cd2-dd66021a4f20;"><path d="M106.32-2.40L106.32-2.40L107.20-21.04L107.20-21.04Q107.20-27.68 105.68-30.08L105.68-30.08L105.68-30.08Q105.20-30.88 104.56-31.28L104.56-31.28L104.56-31.28Q104.08-31.44 104.08-31.92L104.08-31.92L104.08-31.92Q104.08-33.36 108.16-34.72L108.16-34.72L108.16-34.72Q112.24-36.08 114.12-36.08L114.12-36.08L114.12-36.08Q116.00-36.08 116.08-35.12L116.08-35.12L116.08-35.12Q116.08-33.52 115.64-26.04L115.64-26.04L115.64-26.04Q115.20-18.56 115.20-10.32L115.20-10.32L115.20-10.32Q115.20-2.08 116.16-0.08L116.16-0.08L116.16-0.08Q116.40 0.32 116.40 0.72L116.40 0.72L116.40 0.72Q116.40 1.76 113.36 1.76L113.36 1.76L113.36 1.76Q110.32 1.76 107.12 0.16L107.12 0.16L107.12 0.16Q106.32-0.24 106.32-2.40" fill="#8cd0e5" stroke="none" stroke-width="none" transform="translate(-102.67999267578125,21.397797622680663)" style="fill: rgb(248, 185, 118);"></path></g><g class="path" style="transform: scale(0.91); transform-origin: 32.36px 15.3978px; animation: 2.7027s linear -0.445946s infinite normal forwards running breath-da8b94d2-79a8-455d-8cd2-dd66021a4f20;"><path d="M122.08-12.24L122.08-12.24L122.08-12.24Q122.24-20.32 122.24-25.52L122.24-25.52L122.24-25.52Q122.24-30.72 121.52-35.44L121.52-35.44L121.52-35.44Q121.52-36.24 123.12-36.24L123.12-36.24L123.12-36.24Q124.72-36.24 125.88-35.84L125.88-35.84L125.88-35.84Q127.04-35.44 127.52-34.96L127.52-34.96L127.52-34.96Q128.80-33.68 129-33.68L129-33.68L129-33.68Q129.20-33.68 130.24-34.40L130.24-34.40L130.24-34.40Q133.36-36.40 137.16-36.40L137.16-36.40L137.16-36.40Q140.96-36.40 143.80-34.48L143.80-34.48L143.80-34.48Q146.64-32.56 147.84-29.44L147.84-29.44L147.84-29.44Q150-24.08 150-18.08L150-18.08L150-18.08Q150-12.16 147.84-6.24L147.84-6.24L147.84-6.24Q146.64-3.04 144.32-1L144.32-1L144.32-1Q142 1.04 138.88 1.04L138.88 1.04L138.88 1.04Q132.72 1.04 132.72-6.08L132.72-6.08L132.72-6.08Q132.72-8 133.52-8L133.52-8L133.52-8Q133.68-8 134.44-7.64L134.44-7.64L134.44-7.64Q135.20-7.28 135.92-7.28L135.92-7.28L135.92-7.28Q141.60-7.28 141.60-19.32L141.60-19.32L141.60-19.32Q141.60-31.36 135.52-31.36L135.52-31.36L135.52-31.36Q133.84-31.36 132.68-30.60L132.68-30.60L132.68-30.60Q131.52-29.84 131.20-29.12L131.20-29.12L130.88-28.32L130.88-28.32Q129.76-21.12 129.76-0.56L129.76-0.56L129.76-0.56Q129.76 8.72 130.12 12.76L130.12 12.76L130.12 12.76Q130.48 16.80 130.48 17.60L130.48 17.60L130.48 17.60Q130.48 18.40 130 19.04L130 19.04L130 19.04Q128.40 21.12 125.68 22.76L125.68 22.76L125.68 22.76Q122.96 24.40 120.88 24.40L120.88 24.40L120.88 24.40Q120.08 24.40 120.08 23.36L120.08 23.36L120.08 23.36Q121.36 15.28 122.08-12.24" fill="#8cd0e5" stroke="none" stroke-width="none" transform="translate(-102.67999267578125,21.397797622680663)" style="fill: rgb(252, 221, 201);"></path></g><g class="path" style="transform: scale(0.91); transform-origin: 63.76px 3.9978px; animation: 2.7027s linear -0.222973s infinite normal forwards running breath-da8b94d2-79a8-455d-8cd2-dd66021a4f20;"><path d="M161.52-20.32L161.52-20.32L161.60-18.32L161.60-18.32Q161.60-17.84 162.24-17.84L162.24-17.84L162.24-17.84Q164.80-18.08 166.72-19.16L166.72-19.16L166.72-19.16Q168.64-20.24 169.60-21.60L169.60-21.60L169.60-21.60Q171.52-24.56 171.68-26.72L171.68-26.72L171.76-27.68L171.76-27.68Q171.76-32 168.32-32L168.32-32L168.32-32Q165.76-32 164.16-29.76L164.16-29.76L164.16-29.76Q161.52-26.24 161.52-20.32zM178.96-9.68L178.96-9.68L178.96-9.68Q178.96-6.64 177.72-4.36L177.72-4.36L177.72-4.36Q176.48-2.08 174.92-1L174.92-1L174.92-1Q173.36 0.08 171.28 0.72L171.28 0.72L171.28 0.72Q168.64 1.52 166.24 1.52L166.24 1.52L166.24 1.52Q159.52 1.52 156.32-3.52L156.32-3.52L156.32-3.52Q153.12-8.56 153.12-16.36L153.12-16.36L153.12-16.36Q153.12-24.16 157.08-30.24L157.08-30.24L157.08-30.24Q161.04-36.32 168.96-36.32L168.96-36.32L168.96-36.32Q176.16-36.32 178.72-31.28L178.72-31.28L178.72-31.28Q179.76-29.36 179.76-27.64L179.76-27.64L179.76-27.64Q179.76-25.92 179.60-24.92L179.60-24.92L179.60-24.92Q179.44-23.92 178.48-21.92L178.48-21.92L178.48-21.92Q177.52-19.92 175.92-18.32L175.92-18.32L175.92-18.32Q174.32-16.72 170.88-15.28L170.88-15.28L170.88-15.28Q167.44-13.84 162.80-13.36L162.80-13.36L162.80-13.36Q162.16-13.36 162.16-12.80L162.16-12.80L162.16-12.80Q162.16-12.08 162.68-10.68L162.68-10.68L162.68-10.68Q163.20-9.28 163.84-8.32L163.84-8.32L163.84-8.32Q165.60-6.08 169.04-6.08L169.04-6.08L169.04-6.08Q172.48-6.08 174.88-8.32L174.88-8.32L174.88-8.32Q176.16-9.52 176.96-11.28L176.96-11.28L176.96-11.28Q177.28-11.92 177.80-11.92L177.80-11.92L177.80-11.92Q178.32-11.92 178.64-11.04L178.64-11.04L178.64-11.04Q178.96-10.16 178.96-9.68" fill="#8cd0e5" stroke="none" stroke-width="none" transform="translate(-102.67999267578125,21.397797622680663)" style="fill: rgb(140, 208, 229);"></path></g><g class="path" style="transform: scale(0.91); transform-origin: 92.04px 4.1178px; animation: 2.7027s linear 0s infinite normal forwards running breath-da8b94d2-79a8-455d-8cd2-dd66021a4f20;"><path d="M207.68-10.96L207.68-10.96L207.68-10.96Q207.68-7.52 206.36-4.96L206.36-4.96L206.36-4.96Q205.04-2.40 203.36-1.20L203.36-1.20L203.36-1.20Q201.68 0 199.36 0.72L199.36 0.72L199.36 0.72Q196.32 1.68 193.84 1.68L193.84 1.68L193.84 1.68Q188.64 1.68 185.20-0.36L185.20-0.36L185.20-0.36Q181.76-2.40 181.76-6.88L181.76-6.88L181.76-6.88Q181.76-9.52 183.20-11.20L183.20-11.20L183.20-11.20Q185.44-13.68 188.56-13.68L188.56-13.68L188.56-13.68Q189.52-13.68 189.52-12.80L189.52-12.80L189.52-12.80Q189.52-12.72 189.16-11.56L189.16-11.56L189.16-11.56Q188.80-10.40 188.80-8.64L188.80-8.64L188.80-8.64Q188.80-6.88 190.20-5.52L190.20-5.52L190.20-5.52Q191.60-4.16 193.60-4.16L193.60-4.16L193.60-4.16Q195.60-4.16 196.80-4.84L196.80-4.84L196.80-4.84Q198-5.52 198.48-6.56L198.48-6.56L198.48-6.56Q199.20-8 199.20-9.28L199.20-9.28L199.20-9.28Q199.20-11.60 196.88-13.28L196.88-13.28L196.88-13.28Q194.56-14.96 191.76-15.92L191.76-15.92L191.76-15.92Q188.96-16.88 186.64-19.12L186.64-19.12L186.64-19.12Q184.32-21.36 184.32-24.72L184.32-24.72L184.32-24.72Q184.32-30.48 187.96-33.36L187.96-33.36L187.96-33.36Q191.60-36.24 197.84-36.24L197.84-36.24L197.84-36.24Q200.56-36.24 203.56-35.48L203.56-35.48L203.56-35.48Q206.56-34.72 206.56-32.92L206.56-32.92L206.56-32.92Q206.56-31.12 205.96-29.60L205.96-29.60L205.96-29.60Q205.36-28.08 204.48-28.08L204.48-28.08L204.48-28.08Q204-28.08 203.84-28.44L203.84-28.44L203.84-28.44Q203.68-28.80 203.28-29.28L203.28-29.28L203.28-29.28Q202.88-29.76 201.36-30.52L201.36-30.52L201.36-30.52Q199.84-31.28 198.76-31.28L198.76-31.28L198.76-31.28Q197.68-31.28 197.32-31.24L197.32-31.24L197.32-31.24Q196.96-31.20 196.08-31L196.08-31L196.08-31Q195.20-30.80 194.48-30.40L194.48-30.40L194.48-30.40Q192.64-29.36 192.64-27.36L192.64-27.36L192.64-27.36Q192.64-26.08 193.20-25.48L193.20-25.48L193.20-25.48Q193.76-24.88 194.08-24.56L194.08-24.56L194.08-24.56Q194.40-24.24 195.20-23.80L195.20-23.80L195.20-23.80Q196-23.36 196.32-23.20L196.32-23.20L196.32-23.20Q196.64-23.04 197.76-22.52L197.76-22.52L197.76-22.52Q198.88-22 199.20-21.84L199.20-21.84L199.20-21.84Q207.68-17.84 207.68-10.96" fill="#8cd0e5" stroke="none" stroke-width="none" transform="translate(-102.67999267578125,21.397797622680663)" style="fill: rgb(55, 104, 136);"></path></g></g>
</g>
</g>
<style id="breath-da8b94d2-79a8-455d-8cd2-dd66021a4f20" data-anikit="">@keyframes breath-da8b94d2-79a8-455d-8cd2-dd66021a4f20
{
  0% {
    animation-timing-function: cubic-bezier(0.9647,0.2413,-0.0705,0.7911);
    transform: scale(0.9099999999999999);
  }
  51% {
    animation-timing-function: cubic-bezier(0.9226,0.2631,-0.0308,0.7628);
    transform: scale(1.02994);
  }
  100% {
    transform: scale(0.9099999999999999);
  }
}</style></svg>